<?xml version="1.0" encoding="UTF-8" standalone="no"?>
<svg
   xmlns:dc="http://purl.org/dc/elements/1.1/"
   xmlns:cc="http://creativecommons.org/ns#"
   xmlns:rdf="http://www.w3.org/1999/02/22-rdf-syntax-ns#"
   xmlns:svg="http://www.w3.org/2000/svg"
   xmlns="http://www.w3.org/2000/svg"
   viewBox="0 0 600 600"
   height="600"
   width="600"
   version="1.1"
   id="svg3712">
  <metadata
     id="metadata3718">
    <rdf:RDF>
      <cc:Work
         rdf:about="">
        <dc:format>image/svg+xml</dc:format>
        <dc:type
           rdf:resource="http://purl.org/dc/dcmitype/StillImage" />
        <dc:title></dc:title>
      </cc:Work>
    </rdf:RDF>
  </metadata>
  <defs
     id="defs3716" />
  <g
     transform="translate(-2.08333,-4.1666667)"
     id="g3722">
    <path
       id="path3740"
       d="M 275.73129,587.015 C 204.84224,580.13335 142.8883,550.60455 93.936622,500.3671 50.587793,455.87967 24.708175,403.15657 14.734258,339.01255 12.999805,327.85799 12.633156,320.96291 12.633156,299.5 c 0,-21.46291 0.366649,-28.35799 2.101102,-39.51255 2.962376,-19.05157 6.761062,-35.30058 11.849245,-50.68556 C 55.21821,122.72 123.72,54.21821 210.30189,25.583503 c 15.38498,-5.088183 31.63399,-8.886869 50.68556,-11.849245 19.4887,-3.030349 59.5364,-3.030349 79.0251,0 64.1437,9.973867 116.86165,35.850802 161.35552,79.202364 15.59972,15.199218 26.6694,28.436968 38.10104,45.563378 25.59448,38.34457 39.51835,74.50063 46.7854,121.48745 2.55509,16.52052 3.05667,57.43013 0.89519,73.01255 -7.88459,56.84106 -27.48313,103.79724 -60.93741,146 -9.6771,12.20773 -34.00456,36.53519 -46.21229,46.21229 -40.17378,31.8459 -87.23396,52.16308 -138.5,59.79426 -15.82139,2.35509 -51.10006,3.43243 -65.76871,2.00845 z M 389.2126,418.26789 c 48.40696,-32.31951 83.45394,-56.35564 84.5,-57.95229 1.66471,-2.54091 1.7874,-6.71553 1.7874,-60.81611 0,-54.10077 -0.12269,-58.27516 -1.7874,-60.8156 -1.0455,-1.5955 -36.11863,-25.65101 -84.5,-57.95578 L 306.5,125.5 l -6,0 -6,0 -82.54931,55.11924 c -49.87301,33.30084 -83.32147,56.25955 -84.5,58 -1.87876,2.77454 -1.95069,5.02104 -1.95069,60.92447 0,54.07511 0.1223,58.23039 1.7888,60.77403 1.04916,1.60138 36.19544,25.68756 85,58.25155 l 83.2112,55.52122 5.5,-0.29926 c 5.4442,-0.29622 6.33919,-0.85955 88.2126,-55.52336 z M 224.18546,394.46943 c -44.16606,-29.45715 -59.23421,-39.99593 -59,-41.26503 0.27789,-1.50581 52.11706,-37.2044 54.0258,-37.2044 0.41234,0 15.721,10.0125 34.01923,22.25 L 286.5,360.5 l 0,36.4863 c 0,31.64173 -0.19917,36.52332 -1.5,36.76504 -0.825,0.15329 -28.19154,-17.52356 -60.81454,-39.28191 z m 90.31363,38.38879 c -0.28887,-0.75278 -0.40684,-17.34134 -0.26215,-36.86346 L 314.5,360.5 347.76951,338.25 C 366.06774,326.0125 381.3764,316 381.78874,316 c 1.90702,0 53.74789,35.6985 54.02551,37.20288 0.23382,1.26704 -14.73151,11.73559 -58.47044,40.90127 -32.33158,21.55911 -59.58002,39.40637 -60.5521,39.66057 -0.97207,0.2542 -2.00375,-0.15372 -2.29262,-0.9065 z M 272.27139,319.20491 C 252.57434,305.90896 246.04444,301.00195 246.04946,299.5 c 0.005,-1.49824 6.62696,-6.45314 26.39474,-19.75 C 286.95762,269.9875 299.58273,262 300.5,262 c 0.91727,0 13.54238,7.9875 28.0558,17.75 19.80471,13.3217 26.38805,18.24896 26.38805,19.75 0,1.50104 -6.58334,6.4283 -26.38805,19.75 -14.51342,9.7625 -27.21328,17.72971 -28.22192,17.70491 -1.00863,-0.0248 -13.63676,-8.0123 -28.06249,-17.75 z m -119.82075,5.52705 c -0.26763,-0.69742 -0.366,-12.50992 -0.21862,-26.25 0.25899,-24.14376 0.33508,-24.98917 2.26798,-25.1969 3.11947,-0.33525 38,23.72767 38,26.21494 0,1.4743 -4.73129,5.20516 -18,14.19388 -17.55159,11.89011 -21.0503,13.6416 -22.04936,11.03808 z M 426.5,313.71494 c -13.26169,-8.99948 -18,-12.74142 -18,-14.21494 0,-2.48727 34.88053,-26.55019 38,-26.21494 1.94321,0.20884 2,0.95325 2,26.21494 0,25.26169 -0.0568,26.0061 -2,26.21494 -1.15895,0.12455 -9.56949,-4.92178 -20,-12 z M 191.98078,265.25 c -14.68063,-9.84039 -26.62107,-18.51016 -26.79561,-19.45587 -0.41318,-2.23882 117.88338,-81.36554 120.27284,-80.44862 1.38958,0.53323 1.53727,4.70859 1.30449,36.8779 L 286.5,238.5 l -33,22.18852 c -18.15,12.20369 -33.45865,22.21619 -34.01922,22.25 -0.56058,0.0338 -12.93558,-7.92602 -27.5,-17.68852 z M 347.5,260.68852 314.5,238.5 314.2375,202.22341 c -0.23278,-32.16931 -0.0851,-36.34467 1.30449,-36.8779 2.38946,-0.91692 120.68602,78.2098 120.27284,80.44862 -0.31117,1.68603 -52.31669,37.26376 -54.29561,37.14439 -0.56057,-0.0338 -15.86922,-10.04631 -34.01922,-22.25 z"
       style="fill:#e7e7e7" />
    <path
       id="path3738"
       d="M 271,585.92175 C 217.3011,580.00876 168.31544,560.39209 124.79033,527.371 111.54941,517.32554 82.674457,488.45059 72.628999,475.20967 49.064935,444.14987 31.790331,409.16342 22.535308,373.75435 14.901275,344.54708 12.466015,322.78119 13.292747,291.14612 14.027533,263.02938 17.332936,241.97002 25.131525,215.71898 34.279775,184.92481 51.42804,151.73532 72.628999,123.79033 82.674457,110.54941 111.54941,81.674457 124.79033,71.628999 166.43195,40.036852 211.27094,21.476407 264.5,13.798231 c 12.06567,-1.740447 59.93433,-1.740447 72,0 53.22906,7.678176 98.06805,26.238621 139.70967,57.830768 13.24092,10.045458 42.11587,38.920411 52.16133,52.161331 30.7509,40.53277 49.28107,84.37585 57.14602,135.20967 2.22677,14.39241 3.06782,50.47489 1.55224,66.59446 -3.40962,36.26453 -12.35388,67.84311 -28.5803,100.90554 -14.62703,29.80359 -30.18669,51.36496 -54.90534,76.08362 -24.44673,24.44673 -46.2595,40.25223 -75.08362,54.40548 -29.98462,14.72309 -54.09378,22.31371 -87.5,27.54884 -12.43902,1.94933 -56.88483,2.82797 -70,1.38381 z M 388.94546,419.03042 c 62.65819,-41.76349 84.36295,-56.72615 85.51313,-58.95034 C 475.7948,357.49614 476,349.43131 476,299.5 c 0,-49.93131 -0.2052,-57.99614 -1.54141,-60.58008 -1.15018,-2.22419 -22.85494,-17.18685 -85.51313,-58.95034 C 309.27043,126.86386 304.74483,124 300.5,124 c -4.24483,0 -8.77043,2.86386 -88.44546,55.96958 -62.65819,41.76349 -84.36295,56.72615 -85.51313,58.95034 C 125.2052,241.50386 125,249.56869 125,299.5 c 0,49.93131 0.2052,57.99614 1.54141,60.58008 1.15018,2.22419 22.85494,17.18685 85.51313,58.95034 C 291.72957,472.13614 296.25517,475 300.5,475 c 4.24483,0 8.77043,-2.86386 88.44546,-55.96958 z m -164.7597,-25.12306 c -43.38494,-29.01667 -58.23063,-39.43584 -57.98765,-40.69756 0.4632,-2.40519 50.7734,-36.27351 53.30189,-35.88229 2.9122,0.45059 65.20899,42.26022 66.46498,44.60705 0.70461,1.31658 0.97291,13.50948 0.7982,36.27432 -0.25679,33.45893 -0.31172,34.29608 -2.26318,34.49563 -1.1972,0.12242 -25.40745,-15.45083 -60.31424,-38.79715 z m 90.48091,38.42597 c -1.14272,-1.14272 -0.77913,-68.25468 0.38153,-70.42339 1.247,-2.33004 63.55853,-44.13477 66.4518,-44.58243 2.52851,-0.39122 52.83869,33.47711 53.3019,35.88233 0.24316,1.26267 -14.63319,11.6713 -58.23124,40.74304 C 344.36385,415.4288 317.40994,433 316.67308,433 c -0.73686,0 -1.63975,-0.3 -2.00641,-0.66667 z M 274,319.43689 C 246.25725,300.8301 245.85225,300.52522 246.55625,298.77759 247.40856,296.66181 298.11702,263.5 300.5,263.5 c 2.24892,0 53.06316,33.09893 53.87203,35.09068 0.24361,0.59988 0.14706,1.54337 -0.21455,2.09664 -1.34083,2.0515 -52.19374,35.31026 -53.89306,35.24708 C 299.29399,335.89832 287.475,328.47444 274,319.43689 Z m -121.39301,3.98132 c -0.7918,-2.06339 -0.7918,-45.77303 0,-47.83642 C 152.94083,274.7118 153.84989,274 154.62712,274 156.96046,274 192,297.90793 192,299.5 c 0,1.59207 -35.03954,25.5 -37.37288,25.5 -0.77723,0 -1.68629,-0.7118 -2.02013,-1.58179 z M 426.75,312.92369 C 416.9875,306.35037 409,300.30951 409,299.49955 409,297.90779 444.03995,274 446.37288,274 c 0.77723,0 1.68629,0.7118 2.02013,1.58179 C 448.72686,276.45177 449,287.21497 449,299.5 c 0,12.28503 -0.27314,23.04823 -0.60699,23.91821 -0.33384,0.86999 -1.34634,1.55371 -2.25,1.51938 -0.90365,-0.0343 -9.63051,-5.44058 -19.39301,-12.0139 z M 192.00447,264.73581 c -14.02254,-9.47969 -25.63896,-18.00211 -25.81425,-18.93869 -0.23744,-1.26861 14.63703,-11.67557 58.32588,-40.80785 32.25453,-21.50774 59.39594,-38.9604 60.31425,-38.7837 1.51464,0.29145 1.69408,3.50354 1.93283,34.59898 0.17471,22.75537 -0.0936,34.94434 -0.7982,36.26089 -1.25867,2.35184 -63.56044,44.15998 -66.46498,44.60189 -1.26396,0.19231 -11.3829,-6.03885 -27.49553,-16.93152 z m 156.2939,-4.20661 c -17.70821,-11.80894 -32.67554,-22.36544 -33.26074,-23.45888 -0.70793,-1.32279 -0.97591,-13.45867 -0.80081,-36.26577 0.23875,-31.09544 0.41819,-34.30753 1.93283,-34.59898 0.91831,-0.1767 28.05972,17.27596 60.31425,38.7837 43.68885,29.13228 58.56332,39.53924 58.32588,40.80785 -0.34498,1.84323 -50.33638,36.06211 -52.81222,36.14972 -0.82634,0.0292 -15.99098,-9.6087 -33.69919,-21.41764 z"
       style="fill:#cfcfcf" />
    <path
       id="path3736"
       d="M 277.05945,585.8651 C 155.03104,575.85316 51.937061,488.57056 21.975817,369.9033 -2.8082997,271.74104 25.79054,168.22223 97.506386,96.506386 163.12599,30.886783 255.54005,1.0616109 346.9033,16.017488 459.49621,34.448593 551.11321,118.54995 579.02418,229.0967 c 24.78412,98.16226 -3.81472,201.68107 -75.53057,273.39691 -59.85569,59.8557 -142.44047,90.26284 -226.43416,83.37149 z M 304.6849,474.96151 c 1.54831,-0.57116 39.969,-25.79389 85.37933,-56.05051 60.26574,-40.15468 83.08703,-55.87612 84.5,-58.21151 1.85533,-3.06654 1.93577,-5.60952 1.93577,-61.19949 0,-55.58997 -0.0804,-58.13295 -1.93577,-61.19949 -1.41211,-2.33397 -24.27089,-18.09155 -84.5,-58.24963 -45.41033,-30.27758 -84.12011,-55.49568 -86.02174,-56.04022 -2.25321,-0.64522 -4.68257,-0.65182 -6.97462,-0.019 -1.93442,0.53411 -40.68244,25.75221 -86.10672,56.04021 -60.24621,40.17097 -83.1133,55.93467 -84.52538,58.26859 -1.85533,3.06654 -1.93577,5.60952 -1.93577,61.19949 0,55.58997 0.0804,58.13295 1.93577,61.19949 1.41209,2.33393 24.28404,18.10087 84.54497,58.28165 45.43506,30.29519 83.93896,55.47924 85.56423,55.96456 4.04822,1.20883 4.90144,1.21049 8.13993,0.0158 z m -78.58058,-80.4642 c -31.56762,-21.09805 -57.98885,-38.95347 -58.71383,-39.6787 -0.72499,-0.72524 -0.99694,-1.8119 -0.60433,-2.41482 1.20446,-1.84964 49.57383,-33.74186 51.83715,-34.17869 1.49676,-0.28889 11.52966,5.85909 34,20.83458 17.53218,11.68442 32.21057,21.73849 32.61864,22.34236 1.15641,1.7113 0.43551,70.8854 -0.74195,71.19361 -0.55,0.14396 -26.82805,-17.00029 -58.39568,-38.09834 z m 89.56235,37.83602 c -0.91382,-0.91381 -0.81835,-69.56089 0.0986,-70.93129 0.40408,-0.60387 15.0792,-10.65794 32.61138,-22.34236 22.47034,-14.97549 32.50324,-21.12347 34,-20.83458 2.22592,0.42961 50.62102,32.31256 51.80733,34.13094 0.37621,0.57666 0.44555,1.43431 0.1541,1.90588 C 433.83491,355.07614 317.38661,433 316.67308,433 c -0.18686,0 -0.63975,-0.3 -1.00641,-0.66667 z M 273.5,318.44081 c -14.3,-9.65138 -26,-18.17548 -26,-18.94246 0,-1.1706 48.44988,-34.77441 52.22791,-36.22418 1.49825,-0.57493 54.27209,34.6446 54.27209,36.21942 0,1.13376 -51.92072,36.51076 -53.57004,36.50079 -0.51148,-0.003 -12.62996,-7.9022 -26.92996,-17.55357 z m -119.83333,5.89252 c -1.20339,-1.20338 -0.77697,-49.14713 0.44383,-49.90162 1.00542,-0.62139 34.595,21.30358 36.90876,24.0915 0.66055,0.79592 0.41203,1.66781 -0.77279,2.71122 C 187.68729,303.48815 155.78297,325 154.99965,325 c -0.36647,0 -0.96632,-0.3 -1.33298,-0.66667 z m 276.77564,-9.43149 c -20.70492,-14.04588 -21.72659,-14.85437 -20.55497,-16.26609 0.54206,-0.65314 8.89045,-6.5521 18.55197,-13.10879 11.88782,-8.06754 17.89462,-11.59303 18.58174,-10.90591 1.4129,1.4129 0.85601,49.58786 -0.57874,50.06538 -0.58173,0.19362 -7.78173,-4.20945 -16,-9.78459 z M 192.49684,264.34925 c -13.74826,-9.15792 -25.30465,-17.12393 -25.68086,-17.70226 -0.37621,-0.57832 -0.44555,-1.43734 -0.1541,-1.90891 1.18303,-1.91419 117.49501,-78.75915 118.38073,-78.21175 1.12737,0.69676 1.31304,69.3964 0.19208,71.07163 C 283.84698,239.67183 221.02341,281 219.25859,281 c -0.97069,0 -13.01348,-7.49284 -26.76175,-16.65075 z M 349,260.43663 c -16.775,-11.23714 -31.2875,-21.10298 -32.25,-21.9241 -1.60481,-1.36909 -1.75,-4.39269 -1.75,-36.44373 0,-21.18489 0.37708,-35.18382 0.95739,-35.54247 0.88572,-0.5474 117.1977,76.29756 118.38073,78.21175 0.29145,0.47157 0.22211,1.33059 -0.1541,1.90891 -1.45906,2.24292 -50.78963,34.34932 -52.68086,34.2869 C 380.40142,280.89753 365.775,271.67376 349,260.43663 Z"
       style="fill:#afafaf" />
    <path
       id="path3734"
       d="M 271,584.8695 C 247.24617,582.4529 217.91103,575.26496 195.5,566.36987 95.01257,526.4857 25.661934,434.69761 15.079175,327.57632 c -1.384947,-14.01878 -1.384947,-42.13386 0,-56.15264 C 19.199949,229.71219 32.9172,188.08352 54.266249,152.5 101.1959,74.280029 181.99535,23.012798 272.42368,14.079175 c 14.01878,-1.384947 42.13386,-1.384947 56.15264,0 47.55766,4.698331 95.10107,21.990478 133.92368,48.70976 69.89598,48.105215 115.11308,124.541745 123.42082,208.634745 1.38495,14.01878 1.38495,42.13386 0,56.15264 -3.31405,33.54564 -13.83998,70.3121 -28.50956,99.58224 C 513.02914,515.71398 426.70615,575.22635 328.57632,584.92082 315.98045,586.1652 283.45099,586.1362 271,584.8695 Z m 38.5,-111.81287 c 2.75,-1.60853 40.55,-26.69181 84,-55.74062 56.93813,-38.06639 79.62834,-53.76492 81.25,-56.21389 l 2.25,-3.39789 0,-58.20423 0,-58.20423 -2.25,-3.39789 c -1.62166,-2.44897 -24.31187,-18.1475 -81.25,-56.21389 -43.45,-29.04881 -81.25,-54.13209 -84,-55.74062 -6.58745,-3.85313 -11.41255,-3.85313 -18,0 -2.75,1.60853 -40.55,26.69181 -84,55.74062 -56.93813,38.06639 -79.62834,53.76492 -81.25,56.21389 l -2.25,3.39789 0,58.20423 0,58.20423 2.25,3.39789 c 1.62166,2.44897 24.31187,18.1475 81.25,56.21389 43.45,29.04881 81.25,54.13209 84,55.74062 3.26888,1.91204 6.38489,2.9246 9,2.9246 2.61511,0 5.73112,-1.01256 9,-2.9246 z M 225,393.45401 C 193.375,372.31298 167.37005,354.41796 167.21123,353.6873 166.94542,352.4645 217.34803,318 219.40212,318 c 1.2736,0 63.87998,41.99427 65.36076,43.84182 0.97356,1.21469 1.20266,9.37133 1,35.6035 -0.22676,29.35304 -0.46895,34.05662 -1.76288,34.23738 -0.825,0.11525 -27.375,-17.08766 -59,-38.22869 z m 90.66667,37.87932 C 315.3,430.96667 315,415.52768 315,397.02446 c 0,-25.41281 0.30577,-34.02485 1.25,-35.20647 C 317.68912,360.01705 380.38666,318 381.63489,318 383.3164,318 434,352.34984 434,353.48945 434,354.62936 318.86437,432 317.16807,432 c -0.45911,0 -1.13474,-0.3 -1.5014,-0.66667 z M 273.25,317.92604 C 259.25032,308.5306 248,300.32064 248,299.49977 248,297.85386 298.06588,264 300.5,264 c 2.43442,0 52.5,33.85387 52.5,35.5 0,1.78654 -50.21325,35.52754 -52.73558,35.43589 -0.97043,-0.0353 -13.12692,-7.68969 -27.01442,-17.00985 z m -119.64301,4.49217 c -0.79171,-2.06316 -0.79171,-43.77326 0,-45.83642 C 153.94083,275.7118 154.61794,275 155.11168,275 156.83182,275 191,298.32571 191,299.5 c 0,1.17429 -34.16818,24.5 -35.88832,24.5 -0.49374,0 -1.17085,-0.7118 -1.50469,-1.58179 z M 427.5,312.44122 C 418.15,306.15478 410.37043,300.41647 410.21206,299.68941 409.94418,298.45955 443.84328,275 445.88832,275 447.69204,275 448,278.57303 448,299.5 c 0,21.56497 -0.28814,24.5522 -2.35699,24.43555 C 445.01436,323.90011 436.85,318.72766 427.5,312.44122 Z M 193,264.00977 c -14.025,-9.34382 -25.62913,-17.58352 -25.78696,-18.31046 -0.37605,-1.73201 115.50085,-79.02308 117.38793,-78.29894 1.94609,0.74679 2.08839,67.36252 0.14903,69.76746 -1.54686,1.91821 -63.99358,43.83245 -65.30307,43.83143 C 218.92612,280.99885 207.025,273.35358 193,264.00977 Z m 155.54782,-4.54245 c -17.5737,-11.82696 -32.30431,-22.05791 -32.73469,-22.73544 -0.43038,-0.67754 -0.7894,-16.4335 -0.79782,-35.01326 -0.0127,-28.0321 0.22279,-33.87276 1.38372,-34.31825 C 318.06117,166.76255 434,243.76874 434,245.51055 c 0,1.2154 -50.75858,35.50102 -52.51924,35.47489 -0.53942,-0.008 -15.35924,-9.69116 -32.93294,-21.51812 z"
       style="fill:#8d8d8d" />
    <path
       id="path3732"
       d="M 281.5,585.40539 C 262.47067,583.47901 255.62067,582.51686 243,579.99769 169.69623,565.36574 103.82072,520.77256 61.563089,457.17741 37.09472,420.35402 21.387806,377.37214 15.819367,332 14.160208,318.48102 14.158424,280.54072 15.816311,267 21.35164,221.79044 37.148718,178.56472 61.563089,141.82259 103.79003,78.27362 169.74946,33.623636 243,19.002314 c 21.95142,-4.381658 33.40535,-5.471593 57.5,-5.471593 12.1,0 26.725,0.579891 32.5,1.288646 85.13905,10.448959 159.30999,56.080077 206.43691,127.003223 24.46837,36.82339 40.17528,79.80527 45.74372,125.17741 1.6605,13.52984 1.6605,51.47016 0,65 -5.56844,45.37214 -21.27535,88.35402 -45.74372,125.17741 -46.24627,69.59782 -118.68584,114.99549 -201.55783,126.31573 -10.92741,1.49268 -48.07689,2.7527 -56.37908,1.91225 z m 23.23687,-109.39174 c 0.68028,-0.008 39.02415,-25.19996 85.20859,-55.98323 65.62616,-43.74174 84.36309,-56.68626 85.76313,-59.25 1.66358,-3.04635 1.79141,-7.41901 1.79141,-61.28042 0,-53.80576 -0.12921,-58.23658 -1.78679,-61.27149 -1.39259,-2.54974 -20.03477,-15.4423 -84.5,-58.43853 -45.49227,-30.34188 -84.38412,-55.74928 -86.42634,-56.46089 -2.12627,-0.7409 -5.11747,-1.01297 -6.99918,-0.63663 -1.93263,0.38653 -37.76336,23.63734 -86.99546,56.45195 -65.4161,43.60173 -84.10089,56.51163 -85.50082,59.07517 -1.66358,3.04635 -1.79141,7.41901 -1.79141,61.28042 0,53.80576 0.12921,58.23658 1.78679,61.27149 1.39259,2.54972 20.03509,15.44259 84.5,58.43892 45.49227,30.34209 84.28821,55.74878 86.21321,56.4593 1.925,0.71052 4.4,1.08165 5.5,0.82473 1.1,-0.25692 2.55659,-0.47328 3.23687,-0.48079 z m -80.02889,-83.54338 c -33.61804,-22.4141 -57.51749,-38.96947 -57.1395,-39.58107 0.35737,-0.57824 12.09928,-8.66804 26.09314,-17.97735 20.09793,-13.37 25.80001,-16.7265 27.14088,-15.97632 0.93363,0.52234 15.6475,10.31303 32.6975,21.75709 l 31,20.80738 0.26296,34.75 c 0.20796,27.48214 -0.001,34.75 -1.00138,34.75 -0.69539,0 -27.2695,-17.33838 -59.0536,-38.52973 z M 316.2369,396.37006 316.5,361.5 l 31,-20.80738 c 17.05,-11.44406 31.76387,-21.23475 32.6975,-21.75709 1.34087,-0.75018 7.04295,2.60632 27.14088,15.97632 13.99386,9.30931 25.73543,17.39856 26.09237,17.97611 0.6423,1.03925 -112.09052,76.9488 -115.66401,77.88329 -1.70227,0.44515 -1.77963,-1.29444 -1.52984,-34.40119 z M 273.7774,317.69587 C 259.62997,308.23814 248.05354,300.05 248.052,299.5 c -0.003,-1.17941 50.67733,-35 52.448,-35 1.76888,0 52.4508,33.81964 52.4508,35 0,1.02628 -50.26292,34.84321 -52.31247,35.19587 -0.62608,0.10772 -12.7135,-7.54228 -26.86093,-17 z m -119.13792,5.61028 c -0.92367,-0.92367 -0.78956,-47.09536 0.13846,-47.66891 1.20934,-0.74742 34.72206,22.27186 34.72206,23.84995 0,0.77006 -7.2,6.28418 -16,12.2536 -19.34928,13.12545 -18.07923,12.34665 -18.86052,11.56536 z M 428.44287,312.38764 C 419.12429,306.06705 411.5,300.26373 411.5,299.49137 c 0,-1.58089 33.51068,-24.6028 34.72206,-23.85413 1.03523,0.63981 1.00683,47.10326 -0.0292,47.74356 -0.44392,0.27436 -8.43142,-4.67256 -17.75,-10.99316 z M 193.66162,264.08815 c -13.99386,-9.30931 -25.73543,-17.39856 -26.09237,-17.97611 -0.6423,-1.03925 112.09052,-76.9488 115.66401,-77.88329 1.70227,-0.44515 1.77963,1.29444 1.52984,34.40119 L 284.5,237.5 l -31,20.80738 c -17.05,11.44406 -31.76387,21.23475 -32.6975,21.75709 -1.34087,0.75018 -7.04295,-2.60632 -27.14088,-15.97632 z M 348.90925,259.19995 316.5,237.5 316.2369,202.62994 c -0.24979,-33.10675 -0.17243,-34.84634 1.52984,-34.40119 3.47437,0.90857 116.30741,76.84226 115.68341,77.85192 -0.61624,0.99708 -45.91781,31.51092 -50.0409,33.7061 -1.84492,0.98226 -5.90135,-1.43829 -34.5,-20.58682 z"
       style="fill:#6f6f6f" />
    <path
       id="path3730"
       d="M 285,584.84614 C 165.971,579.47866 61.399258,497.25883 26.54166,381.63254 13.367956,337.93399 11.188074,287.39422 20.4945,241.43137 28.434058,202.21926 46.814555,161.13209 70.592354,129.44427 118.96194,64.983846 188.23492,24.906979 267.56391,15.489261 c 16.86223,-2.001836 49.00995,-2.001836 65.87218,0 113.93398,13.525926 207.98987,92.306349 241.02225,201.878199 13.2281,43.879 15.37811,93.9234 6.02608,140.26508 C 561.69578,450.73496 495.21409,529.86434 406,565.31143 367.67242,580.53998 328.77311,586.82004 285,584.84614 Z M 389.79612,420.36356 c 45.9973,-30.72496 84.54775,-57.13406 85.66767,-58.68689 1.9937,-2.76438 2.03621,-4.06252 2.03621,-62.17667 0,-58.11415 -0.0425,-59.41229 -2.03621,-62.17667 C 474.34387,235.7705 435.70134,209.3 389.59149,178.5 l -83.83608,-56 -5.25541,0 -5.25541,0 -83.83608,56 c -46.10985,30.8 -84.75238,57.27017 -85.8723,58.8226 -1.9824,2.74801 -2.04398,4.32037 -2.3303,59.5 -0.16176,31.17257 -0.0314,58.12665 0.28979,59.89796 0.32113,1.77131 1.77943,4.64139 3.24065,6.37796 2.58228,3.06887 161.56486,109.76275 167.69708,112.54223 7.71845,3.49844 5.09576,5.01868 95.36269,-55.27719 z M 225.53587,392.68574 C 194.2056,371.68358 168.45509,354.05 168.31251,353.5 c -0.39371,-1.51875 50.3481,-34.84422 52.05624,-34.18874 2.20874,0.84757 63.02295,41.91786 63.86594,43.13125 0.40408,0.58162 0.74158,16.24499 0.75,34.80749 0.012,26.37534 -0.25783,33.73596 -1.23469,33.68574 -0.6875,-0.0353 -26.88386,-17.24785 -58.21413,-38.25 z m 90.47944,4.56426 c 0.008,-18.5625 0.34592,-34.22587 0.75,-34.80749 0.84299,-1.21339 61.6572,-42.28368 63.86594,-43.13125 1.70814,-0.65548 52.44995,32.66999 52.05624,34.18874 -0.32821,1.26605 -113.74891,77.34893 -115.43749,77.43574 -0.97686,0.0502 -1.24665,-7.3104 -1.23469,-33.68574 z M 274,317.44105 C 260.525,308.40578 249.37062,300.41896 249.21248,299.69255 248.89513,298.23482 298.02763,265 300.5,265 c 2.13271,0 51.5,33.07129 51.5,34.5 0,1.57422 -49.50699,34.5182 -51.74673,34.4344 C 299.28897,333.89832 287.475,326.47631 274,317.44105 Z m -119.33333,4.89228 c -1.0859,-1.0859 -0.78655,-45.14121 0.31134,-45.81974 1.13386,-0.70076 34.42139,21.48958 34.4817,22.98641 0.0354,0.87964 -32.04703,23.30371 -33.54304,23.44493 -0.32084,0.0303 -0.88334,-0.24493 -1.25,-0.6116 z M 428,311.69147 C 418.925,305.53616 411.51813,300.05 411.54029,299.5 c 0.0688,-1.70804 33.57824,-23.78147 34.58064,-22.77907 1.27068,1.27068 0.67174,45.53341 -0.62093,45.88783 -0.55,0.1508 -8.425,-4.76198 -17.5,-10.91729 z M 193.27807,263.27695 C 179.40601,254.04963 168.17215,246.05 168.31394,245.5 c 0.32621,-1.26535 113.74648,-77.34888 115.43606,-77.43574 0.97686,-0.0502 1.24665,7.3104 1.23469,33.68574 -0.008,18.5625 -0.34592,34.22726 -0.75,34.81058 -1.05846,1.52797 -62.2103,42.62501 -64.12875,43.09767 -0.88832,0.21885 -12.87642,-7.10117 -26.82787,-16.3813 z M 349.954,259.47794 C 333.2043,248.19081 318.7125,238.29521 317.75,237.48773 316.14642,236.14241 316,233.1741 316,202.00979 c 0,-26.57544 0.27324,-33.99574 1.25,-33.94553 1.68858,0.0868 115.10928,76.16969 115.43749,77.43574 0.26911,1.03809 -49.4421,34.5 -51.2534,34.5 -0.56435,0 -14.73039,-9.23493 -31.48009,-20.52206 z"
       style="fill:#4e4e4e" />
    <path
       id="path3728"
       d="M 275.73129,584.015 C 219.47316,578.55367 170.77509,559.47007 125.5,525.14297 112.63284,515.38722 84.612776,487.36716 74.857028,474.5 43.597621,433.27098 25.760511,391.17178 17.8704,340 c -1.885194,-12.22653 -2.235736,-18.57656 -2.235736,-40.5 0,-21.92344 0.350542,-28.27347 2.235736,-40.5 C 25.760511,207.82822 43.597621,165.72902 74.857028,124.5 84.612776,111.63284 112.63284,83.612776 125.5,73.857028 166.68045,42.634448 208.8885,24.751216 260,16.8704 c 21.0001,-3.237978 59.9999,-3.237978 81,0 51.1115,7.880816 93.31955,25.764048 134.5,56.986628 12.86716,9.755748 40.88722,37.775812 50.64297,50.642972 39.51614,52.11909 59.8364,111.54855 59.8364,175 0,63.49874 -20.29081,122.84207 -59.8364,175 -9.75575,12.86716 -37.77581,40.88722 -50.64297,50.64297 -41.0761,31.14346 -83.99302,49.35063 -134,56.84845 -15.81343,2.371 -51.02858,3.4545 -65.76871,2.02358 z M 390.23714,420.75 c 67.30181,-44.93294 84.65622,-56.95417 86.25784,-59.75 1.94342,-3.39246 2.00502,-5.28204 2.00502,-61.5 0,-56.21796 -0.0616,-58.10754 -2.00502,-61.5 -1.60162,-2.79583 -18.95603,-14.81706 -86.25784,-59.75 L 305.98431,122 300.5,122 l -5.48431,0 -84.25283,56.25 c -67.30181,44.93294 -84.65622,56.95417 -86.25784,59.75 -1.94342,3.39246 -2.00502,5.28204 -2.00502,61.5 0,56.21796 0.0616,58.10754 2.00502,61.5 1.60162,2.79583 18.95603,14.81706 86.25784,59.75 l 84.25283,56.25 5.48431,0 5.48431,0 84.25283,-56.25 z M 225.77787,392.24894 c -31.19717,-20.76192 -56.73467,-38.24267 -56.75,-38.84611 -0.0318,-1.25202 48.35801,-33.73616 50.25486,-33.73616 0.68263,0 15.52327,9.52852 32.97921,21.1745 L 284,362.01568 l 0,33.99216 c 0,18.69569 -0.3375,33.99168 -0.75,33.9911 -0.4125,-5.8e-4 -26.27496,-16.98808 -57.47213,-37.75 z m 91.22213,3.7589 0,-33.99216 31.73806,-21.17451 c 17.45594,-11.64598 32.29658,-21.1745 32.97921,-21.1745 1.89647,0 50.28658,32.48395 50.25547,33.73616 C 431.9467,354.45075 319.27774,430 317.74098,430 317.33344,430 317,414.70353 317,396.00784 Z m -41.85662,-78.48005 c -13.39614,-8.98757 -24.81001,-16.79442 -25.36417,-17.34858 -0.67674,-0.67674 7.39768,-6.61739 24.5922,-18.09338 C 288.45127,272.68862 300.20914,265 300.5,265 c 0.81475,0 51.5,33.9542 51.5,34.5 0,0.68959 -50.81783,34.51316 -51.73558,34.4344 -0.42043,-0.0361 -11.7249,-7.41905 -25.12104,-16.40661 z M 155,299.57332 C 155,287.158 155.32381,277 155.71957,277 c 1.43922,0 33.2364,21.52821 33.2325,22.5 -0.004,1.00121 -30.34699,21.71416 -32.70207,22.32332 -0.97263,0.25158 -1.25,-4.68556 -1.25,-22.25 z m 272.78241,11.55656 C 419.13773,305.28345 412.06012,300.05 412.05437,299.5 412.04423,298.52951 443.83716,277 445.28043,277 445.67619,277 446,287.125 446,299.5 c 0,17.3974 -0.28348,22.47276 -1.25,22.37988 -0.6875,-0.0661 -8.32292,-4.90357 -16.96759,-10.75 z M 194.07418,263.37096 C 180.28338,254.21051 169.01227,246.21708 169.02726,245.6078 169.05323,244.55292 281.71203,169 283.25902,169 283.66656,169 284,184.29647 284,202.99216 l 0,33.99216 -31.25,20.82099 c -17.1875,11.45155 -31.77912,21.136 -32.42582,21.52101 -0.67687,0.40297 -11.81576,-6.3675 -26.25,-15.95536 z M 349.16661,258.44133 317,236.99063 317,202.99532 C 317,184.29789 317.33344,169 317.74098,169 c 1.52934,0 114.20566,75.54659 114.23176,76.58947 0.023,0.91991 -42.2937,29.84484 -48.55613,33.18977 -1.83583,0.98057 -5.90557,-1.43607 -34.25,-20.33791 z"
       style="fill:#2f2f2f" />
    <path
       id="path3726"
       d="M 284,583.97282 C 166.86447,577.43484 64.866252,498.44648 29.102523,386.57787 21.564194,362.99804 17.524327,340.83865 16.070186,315.09316 7.2006677,158.05884 127.93472,23.379212 285,15.100189 366.70919,10.79324 444.48955,40.513306 501.98812,98.011876 597.55546,193.57922 612.8692,343.31697 538.59969,456 482.32784,541.37667 386.23136,589.67892 284,583.97282 Z m 22.36243,-107.35089 c 1.81401,-0.75794 40.44503,-26.15323 85.84672,-56.43398 77.68496,-51.81215 82.67349,-55.31407 84.66968,-59.43766 C 478.96416,356.4426 479,355.40755 479,299.5 c 0,-55.94388 -0.0346,-56.93994 -2.12549,-61.25922 -2.00266,-4.13695 -6.96704,-7.61869 -85.91198,-60.2539 -54.70166,-36.47141 -85.00486,-56.0918 -87.29634,-56.52168 -1.93041,-0.36215 -4.97183,-0.33734 -6.75871,0.0551 -1.78687,0.39246 -40.91558,25.82722 -86.95269,56.52168 -78.86559,52.58231 -83.82668,56.0619 -85.8293,60.19878 C 122.03456,242.56006 122,243.55612 122,299.5 c 0,55.90755 0.0358,56.9426 2.12117,61.25029 1.99618,4.12358 6.98433,7.62525 84.66033,59.43142 45.39655,30.27732 83.92953,55.655 85.62884,56.39484 4.00703,1.74457 7.85043,1.75916 11.95209,0.0454 z M 227,392.38203 c -31.075,-20.69137 -56.88872,-37.9782 -57.36382,-38.41517 -0.73215,-0.6734 44.97386,-32.11252 48.84411,-33.59767 1.44006,-0.5526 64.30797,40.91544 65.07991,42.9271 0.25726,0.67041 0.34896,15.95361 0.20377,33.96267 L 283.5,430.00271 227,392.38203 Z m 90.23662,3.93526 L 317.5,362.5 349,341.28409 c 17.325,-11.66875 32.19505,-21.07255 33.04455,-20.89734 2.91313,0.60082 50.18372,32.78504 49.31927,33.57906 -0.7899,0.72554 -110.22012,73.6741 -113.1272,75.41304 -1.00989,0.60409 -1.21054,-6.0297 -1,-33.06156 z m -42.56664,-79.60948 c -13.1065,-8.9143 -23.9065,-16.60598 -24,-17.09264 -0.24385,-1.26936 47.46516,-33.52238 49.66153,-33.57298 1.00733,-0.0232 12.8652,7.43386 26.35084,16.57126 20.12025,13.63278 24.27697,16.8397 23.16849,17.87455 -3.85571,3.5996 -47.92816,32.50588 -49.50564,32.46981 -1.01486,-0.0232 -12.56871,-7.33571 -25.67522,-16.25 z m -119.06133,4.56751 c -0.79513,-0.79513 -0.79513,-42.75551 0,-43.55064 C 156.19303,277.1403 189,298.53453 189,299.5 c 0,0.96547 -32.80697,22.3597 -33.39135,21.77532 z m 273.53085,-9.81124 c -8.44828,-5.6568 -15.81078,-10.73536 -16.36112,-11.2857 -0.66747,-0.66747 4.49352,-4.67309 15.50185,-12.03148 9.07636,-6.06698 16.77636,-10.75698 17.11112,-10.42222 0.88515,0.88515 0.74834,43.07653 -0.14135,43.59089 -0.4125,0.23848 -7.66223,-4.19469 -16.1105,-9.85149 z M 193.63051,262.41633 C 179.95576,253.29532 169.15718,245.47401 169.63367,245.03565 170.11015,244.5973 195.925,227.30934 227,206.61797 l 56.5,-37.62068 0.26397,32.74375 c 0.14519,18.00906 0.0535,33.29226 -0.20377,33.96267 C 283.08021,236.95456 220.6363,279 219.25859,279 c -0.42069,0 -11.95333,-7.46265 -25.62808,-16.58367 z m 156.47129,-3.88948 c -16.719,-11.21707 -31.01268,-21.00916 -31.76373,-21.7602 -1.11014,-1.11015 -1.31621,-7.57506 -1.1018,-34.56744 L 317.5,168.99731 374,206.61798 c 31.075,20.69136 56.88872,37.97819 57.36382,38.41516 0.86627,0.79675 -46.4178,32.98621 -49.31927,33.57496 -0.8495,0.17238 -15.22374,-8.86418 -31.94275,-20.08125 z"
       style="fill:#151515" />
    <path
       id="path3724"
       d="M 277,582.87151 C 148.52087,572.46842 42.180176,475.1428 20.432673,348.05478 4.7538912,256.43115 34.054887,163.9682 99.511542,98.511542 141.17432,56.848768 194.2754,29.301223 251.94522,19.432673 323.89195,7.1210347 397.55299,22.552455 457.5,62.494814 523.00438,106.14002 567.42877,174.16615 580.56733,250.94522 592.88475,322.92577 577.46632,396.52481 537.50519,456.5 479.76489,543.15883 380.60667,591.26065 277,582.87151 Z M 391.08378,421.57918 c 74.91613,-49.9172 84.80279,-56.80003 86.5,-60.219 1.8219,-3.67017 1.91622,-6.71506 1.91622,-61.86018 0,-55.12805 -0.0948,-58.19097 -1.9146,-61.85675 -1.69418,-3.41275 -11.5515,-10.28205 -85.62201,-59.66766 -47.52787,-31.68863 -85.36991,-56.26994 -87.55388,-56.87296 -2.69137,-0.74313 -5.01342,-0.74783 -7.73248,-0.0157 -2.28695,0.61581 -38.3407,24.01863 -87.61693,56.87296 -74.09172,49.39975 -83.95131,56.27055 -85.6455,59.68332 -1.8198,3.66578 -1.9146,6.7287 -1.9146,61.85675 0,55.12805 0.0948,58.19097 1.9146,61.85675 1.69432,3.41302 11.5843,10.30392 85.9591,59.89241 46.22448,30.81961 85.18791,56.40258 86.5854,56.85105 6.97124,2.23713 6.68223,2.40886 95.12468,-56.52103 z M 226.87642,391.58649 C 196.28345,371.18892 171.28101,354.05 171.31545,353.5 c 0.11166,-1.7837 46.93844,-32.66687 48.79512,-32.18134 1.66391,0.43513 59.05894,38.70508 61.65335,41.10933 0.97938,0.90759 1.20451,8.4962 1,33.70814 L 282.5,428.67299 226.87642,391.58649 Z m 91.36008,4.28785 0.2635,-33.15267 30.91927,-20.86084 C 366.42486,330.38737 380.91287,321 381.61484,321 c 1.96614,0 49.47204,32.32263 48.6284,33.08638 -0.40878,0.37008 -25.83681,17.38311 -56.50674,37.80675 L 317.97301,429.027 318.2365,395.87434 Z M 275.67405,316.44538 C 262.10332,307.39374 251,299.77018 251,299.50413 c 0,-0.76323 48.34948,-32.83746 49.5,-32.83746 1.14652,0 49.5,32.07285 49.5,32.83333 0,0.37526 -44.01716,30.06595 -48.57595,32.76571 -0.59177,0.35045 -12.17927,-6.7687 -25.75,-15.82033 z M 156,299.51258 l 0,-21.51943 16.02538,10.67805 c 8.81395,5.87292 15.67645,10.99219 15.25,11.37615 -0.42646,0.38395 -7.63788,5.26257 -16.02538,10.84137 L 156,321.032 l 0,-21.51942 z m 273.23976,11.07977 c -8.39313,-5.65373 -15.48305,-10.50231 -15.75537,-10.77463 -0.27233,-0.27232 6.70728,-5.29426 15.51024,-11.15985 L 445,277.99315 l 0,21.50342 c 0,11.82689 -0.1125,21.47459 -0.25,21.43935 -0.1375,-0.0353 -7.11711,-4.68985 -15.51024,-10.34357 z M 194.07975,261.92483 c -12.88114,-8.7626 -23.56934,-16.08108 -23.75155,-16.26329 -0.18221,-0.18221 25.10048,-17.28508 56.18375,-38.00637 l 56.51504,-37.67508 -0.2635,33.17816 -0.26349,33.17816 -30.91464,20.8318 c -17.00305,11.45748 -31.62805,20.79958 -32.5,20.76021 -0.87195,-0.0394 -12.12447,-7.24099 -25.00561,-16.00359 z M 349.41464,257.16821 318.5,236.33641 318.2365,203.1547 317.97301,169.973 373.7365,207.10687 c 30.66993,20.42364 56.09673,37.43544 56.50402,37.80402 C 431.10299,245.6914 383.68588,278 381.67791,278 c -0.74175,0 -15.26022,-9.37431 -32.26327,-20.83179 z"
       style="fill:#000000" />
  </g>
</svg>
