<?xml version="1.0" encoding="UTF-8" standalone="no"?>
<svg
   xmlns:dc="http://purl.org/dc/elements/1.1/"
   xmlns:cc="http://creativecommons.org/ns#"
   xmlns:rdf="http://www.w3.org/1999/02/22-rdf-syntax-ns#"
   xmlns:svg="http://www.w3.org/2000/svg"
   xmlns="http://www.w3.org/2000/svg"
   viewBox="0 0 626 626"
   height="626"
   width="626"
   version="1.1"
   id="svg3609">
  <metadata
     id="metadata3615">
    <rdf:RDF>
      <cc:Work
         rdf:about="">
        <dc:format>image/svg+xml</dc:format>
        <dc:type
           rdf:resource="http://purl.org/dc/dcmitype/StillImage" />
        <dc:title></dc:title>
      </cc:Work>
    </rdf:RDF>
  </metadata>
  <defs
     id="defs3613" />
  <g
     transform="translate(1.4136895,2.8273728)"
     id="g3619">
    <path
       id="path3637"
       d="M 276.5,624.88485 C 254.15695,623.02894 239.03294,620.06616 217.77427,613.38056 123.46477,583.7213 47.425194,509.53784 15.101041,415.65455 3.7833043,382.78296 -0.00585572,357.03482 -0.00585572,313 c 0,-32.98736 2.10819042,-55.37436 7.08402652,-75.22573 C 18.620037,191.72739 38.192388,152.18967 67.836001,115.03859 77.72806,102.64129 102.90922,77.443519 115.03859,67.804852 151.70769,38.665567 191.07286,19.020804 235.5,7.6898826 c 21.94299,-5.5964515 43.08388,-7.69573832 77.5,-7.69573832 34.41612,0 55.55701,2.09928682 77.5,7.69573832 56.39209,14.3825224 107.15289,43.5327954 147.03742,84.4387964 40.12511,41.152741 66.76016,88.429881 80.7727,143.371321 5.62817,22.06738 7.7043,42.95181 7.7043,77.5 0,34.54819 -2.07613,55.43262 -7.7043,77.5 -11.31939,44.38191 -30.65607,83.169 -60.00363,120.36016 -9.778,12.39132 -35.05501,37.66833 -47.44633,47.44633 -37.19116,29.34756 -75.97825,48.68424 -120.36016,60.00363 -15.21374,3.88019 -23.08949,5.10309 -43,6.67679 -14.9442,1.18118 -56.2664,1.12178 -71,-0.10206 z M 254.1099,493.47103 C 283.37468,490.56365 304.82065,485.63168 328,476.4784 398.12334,448.78743 452.99649,388.92128 477.84386,313 c 7.59772,-23.21487 11.84529,-48.09756 12.82432,-75.12615 0.35382,-9.7679 0.91072,-18.14254 1.23756,-18.61033 0.32684,-0.46779 4.41926,-4.04904 9.09426,-7.95834 4.675,-3.9093 11.47972,-10.18972 15.1216,-13.9565 7.24792,-7.49647 16.20753,-18.35288 15.62614,-18.93427 -0.20182,-0.20182 -2.66489,0.5062 -5.47349,1.57338 -6.90899,2.62521 -27.64124,7.80281 -34.44714,8.60271 -4.35077,0.51135 -5.64006,0.33932 -6.08166,-0.81148 -0.75077,-1.95645 -0.1199,-2.71187 5.91201,-7.07925 11.47854,-8.31101 26.97249,-27.78912 29.83359,-37.50513 0.65345,-2.21905 0.40747,-2.16868 -6.5714,1.34582 -13.56635,6.83191 -39.23966,15.45696 -46.01467,15.45883 -1.76269,4.8e-4 -4.89869,-2.02654 -9.77731,-6.3198 -12.64583,-11.12849 -27.43923,-18.0448 -45.05389,-21.06388 -12.12596,-2.07833 -16.45526,-2.03417 -29.15436,0.29743 -16.97961,3.11751 -28.59844,8.30996 -40.95391,18.30228 -25.21065,20.38876 -36.75171,48.10018 -33.76487,81.07338 0.69088,7.62688 0.66869,11.24197 -0.0736,11.98421 -1.44952,1.44952 -22.67447,-0.65619 -38.63941,-3.83338 -24.72347,-4.92022 -45.57481,-12.10399 -67.99574,-23.42611 -27.80846,-14.04272 -50.24132,-30.60113 -71.79818,-52.99655 -7.04343,-7.31742 -13.15503,-12.9022 -13.58135,-12.41063 -2.11398,2.43758 -6.32085,14.58654 -8.20176,23.68574 -2.57561,12.45993 -2.19921,27.86855 0.98221,40.20802 4.49554,17.43646 17.04156,36.91364 30.68293,47.63397 4.11198,3.23148 6.39838,5.72342 6.18901,6.74536 -0.74601,3.64135 -23.17679,0.004 -36.62933,-5.9398 l -4.36452,-1.92839 0.66627,5.74443 c 2.49174,21.48316 10.70086,39.26185 24.98173,54.10357 11.80425,12.26784 22.93126,19.23625 38.58105,24.16182 6.74941,2.12429 8.5,3.06696 8.5,4.57715 0,3.03405 -7.95761,4.60446 -24.1362,4.76319 l -14.1362,0.1387 1.78938,4.5 c 10.82836,27.23161 42.09845,50.5983 71.6563,53.54547 9.65291,0.96247 10.49313,1.27053 10.14164,3.71825 -0.40358,2.81042 -16.22189,13.58956 -30.17509,20.56235 C 167.18194,451.5475 140.52837,458 111.30658,458 c -8.94801,0 -14.334594,0.35932 -13.75658,0.91765 2.15735,2.08388 22.7418,12.20577 33.45,16.44821 27.26566,10.80226 52.72199,16.54198 84,18.93976 11.27835,0.86459 24.94121,0.57304 39.1099,-0.83459 z"
       style="fill:#e8e8e8" />
    <path
       id="path3635"
       d="M 274.5,624.45462 C 227.43252,620.12594 174.81883,600.14457 133,570.71645 66.556885,523.9601 21.310347,455.01807 4.8797549,375.5 -1.4661079,344.78834 -1.6227364,285.57353 4.5557314,253 28.081143,128.97155 125.82013,30.373975 250.49021,4.9051268 281.86928,-1.505304 344.53709,-1.518023 375.5,4.8797549 454.96851,21.300104 523.50598,66.288038 570.68651,133 c 24.04592,34.00026 41.81118,75.40696 50.40836,117.49021 6.42986,31.47417 6.42986,93.54541 0,125.01958 C 611.21578,423.868 590.8929,467.68251 559.64077,508 543.7973,528.4392 513.991,556.31795 491,572.20182 c -33.44998,23.10968 -74.64085,40.54794 -115.49021,48.89305 -22.77507,4.65272 -69.90537,6.22035 -101.00979,3.35975 z m -4.88033,-131.84613 c 54.04724,-8.13284 100.37455,-30.38649 138.80882,-66.67782 11.0524,-10.43616 27.4803,-30.06662 36.30718,-43.38514 29.50112,-44.51305 44.66129,-91.64173 46.87632,-145.72527 0.37572,-9.17386 0.95423,-17.06509 1.28557,-17.53607 0.33134,-0.47099 4.00795,-3.61452 8.17025,-6.98563 C 513.53081,202.20458 536.40247,177 533.09916,177 c -0.56382,0 -3.36081,0.92064 -6.21555,2.04588 -7.12013,2.80649 -26.57401,7.70664 -33.87524,8.53268 -5.12094,0.57937 -6.00837,0.44381 -6.00837,-0.91785 0,-0.87869 2.38658,-3.36069 5.30351,-5.51555 9.66636,-7.14096 20.88094,-20.17424 26.2644,-30.52378 2.70755,-5.20519 4.62274,-9.76407 4.25596,-10.13084 -0.36677,-0.36677 -2.61469,0.47237 -4.99536,1.86477 -6.62096,3.87243 -25.83066,11.31669 -36.64239,14.19988 -5.32736,1.42066 -10.4432,2.79759 -11.36851,3.05985 -1.04066,0.29494 -4.09221,-1.5606 -8,-4.86453 -12.55739,-10.61689 -22.35135,-16.09225 -36.52102,-20.41724 -7.85558,-2.39775 -10.4547,-2.6929 -24.29659,-2.75912 -17.9283,-0.0858 -25.34946,1.35707 -38.84209,7.55174 -24.33726,11.17361 -42.04598,31.66544 -49.75759,57.57752 -3.00513,10.09766 -4.32614,29.95061 -2.61052,39.2325 0.55261,2.98975 0.77783,6.02725 0.50049,6.75 -0.67272,1.75307 -8.01038,1.69751 -22.15234,-0.16772 -38.72127,-5.10707 -78.95851,-20.24094 -111.45953,-41.92173 -17.9633,-11.98295 -31.2793,-23.20225 -46.41426,-39.10599 l -11.95759,-12.56498 -2.56169,5.78725 c -10.27518,23.21325 -11.20048,45.2426 -2.91122,69.30974 2.88324,8.37125 6.39286,14.76437 12.9149,23.52574 5.4136,7.27236 9.06742,11.03018 18.15995,18.67685 1.78218,1.4988 2.95529,3.1863 2.60689,3.75 -1.92461,3.1141 -25.18213,-1.61441 -36.35257,-7.39087 L 107,260.94864 l 0,5.83529 c 0,12.58179 7.27069,32.83774 16.35321,45.55959 10.64978,14.91711 28.33925,28.01208 45.71056,33.83811 6.93236,2.325 8.96809,3.41441 8.72631,4.66987 -0.47659,2.47474 -11.29896,4.17042 -25.29008,3.96251 -9.93801,-0.14767 -11.95405,0.0678 -11.73259,1.25384 0.74207,3.97423 8.9833,18.4092 14.08102,24.66371 15.6866,19.24621 35.47653,30.24488 60.64093,33.70246 11.48527,1.57807 11.2077,2.71247 -2.9515,12.06226 -19.44277,12.83873 -40.36255,21.67686 -63.65468,26.89267 -12.73682,2.85216 -36.85879,5.08099 -47.13318,4.35503 -3.7125,-0.26232 -6.75,-0.10394 -6.75,0.35194 0,1.28217 33.28921,17.32937 44.5,21.4514 17.24312,6.34003 39.02145,11.46903 59.5,14.01281 13.85659,1.72122 56.69317,1.14397 70.61967,-0.95164 z"
       style="fill:#d0d0d0" />
    <path
       id="path3633"
       d="m 277.5,624.48616 c -16.79964,-1.63475 -23.92748,-2.8863 -41,-7.19901 C 193.01631,606.30269 153.48648,586.84667 118,558.96312 95.190197,541.04028 65.47913,508.3839 49.797897,484 27.626811,449.52455 11.254669,408.6791 4.4316816,370.81972 c -5.7383221,-31.84079 -5.7383221,-83.79865 0,-115.63944 C 13.053503,207.33953 35.85987,157.49847 67.431683,117.5 77.796249,104.36909 104.77839,77.448425 118,67.046906 157.90868,35.650512 207.46462,13.030959 255.18028,4.4316816 c 31.84079,-5.7383221 83.79865,-5.7383221 115.63944,0 C 418.59135,13.041047 468.04451,35.613683 508,67.046906 521.49304,77.661961 548.33804,104.50696 558.95309,118 c 31.3964,39.90868 54.01595,89.46462 62.61523,137.18028 5.73832,31.84079 5.73832,83.79865 0,115.63944 -8.60937,47.77163 -31.182,97.22479 -62.61523,137.18028 -10.61505,13.49304 -37.46005,40.33804 -50.95309,50.95309 -39.95549,31.43323 -89.40865,54.00586 -137.18028,62.61523 -23.60718,4.25447 -65.97138,5.57907 -93.31972,2.91784 z m -12,-130.90333 c 31.66985,-4.355 54.70956,-11.21252 81.13691,-24.14954 40.68248,-19.91535 73.70624,-49.14398 99.4922,-88.05844 28.62354,-43.19673 43.81379,-90.52895 45.53167,-141.87485 0.33123,-9.9 0.88055,-18.49673 1.22072,-19.10385 0.34018,-0.60711 4.68309,-4.47315 9.65093,-8.59121 12.51761,-10.37638 33.74912,-33.85672 32.10277,-35.50307 -0.30859,-0.30859 -3.84025,0.65543 -7.84813,2.14225 C 511.47969,184.12279 488,188.73211 488,186.05845 c 0,-0.51786 2.5875,-2.93869 5.75,-5.37963 8.01426,-6.18571 16.28013,-15.11386 21.53815,-23.26384 4.62183,-7.16388 9.34023,-17.11994 8.50795,-17.95221 -0.262,-0.262 -4.9358,1.72786 -10.38623,4.42191 -5.45043,2.69406 -13.95987,6.32758 -18.90987,8.07451 -8.47016,2.98923 -23.50055,7.01832 -26.23941,7.0338 -0.68168,0.004 -3.63965,-2.16666 -6.57328,-4.82336 -7.36595,-6.67064 -13.26597,-10.58231 -22.9279,-15.20104 -13.37148,-6.39202 -21.95675,-8.26082 -38.25941,-8.32813 -16.33648,-0.0674 -25.30223,1.82758 -38.98661,8.24029 -10.656,4.99358 -16.32151,8.87868 -24.87489,17.0579 -20.99098,20.07274 -31.30965,48.81528 -27.64562,77.00658 0.75247,5.78955 0.85054,9.61135 0.26174,10.20015 -2.21518,2.21518 -39.14895,-3.3305 -58.04313,-8.71529 -33.60866,-9.57838 -67.44831,-27.1292 -94.71149,-49.12179 -10.15116,-8.18871 -26.88248,-24.3227 -33.2452,-32.0583 -1.92265,-2.3375 -3.88394,-4.25 -4.35842,-4.25 -1.42606,0 -5.69803,9.31776 -8.57007,18.69253 -2.44661,7.98612 -2.69992,10.29958 -2.71622,24.80747 -0.0151,13.47756 0.33108,17.26122 2.19612,24 4.76739,17.22558 16.24642,35.47636 28.63536,45.52806 6.6986,5.43488 8.25943,7.49686 6.24529,8.25053 -2.66561,0.99745 -15.32039,-1.42025 -24.93947,-4.76469 -5.63606,-1.95959 -11.10334,-3.84725 -12.14949,-4.1948 -1.79773,-0.59724 -1.8638,-0.2092 -1.20408,7.0711 1.36005,15.00869 7.83096,32.07022 17.10875,45.1098 11.29614,15.87629 32.35937,30.4115 50.76356,35.03066 3.00014,0.75299 3.64359,2.90627 1.15394,3.86164 -3.70463,1.4216 -20.52443,2.67605 -27.67007,2.06369 -9.45397,-0.81018 -9.44657,-0.83485 -3.32227,11.06709 9.63014,18.71516 24.21834,32.75961 43.36874,41.75224 7.38057,3.46576 22.99392,7.72468 28.31894,7.72468 10.04201,0 9.08903,2.47524 -4.36541,11.33855 -12.98912,8.55678 -19.78169,12.11146 -33.43996,17.49978 C 156.09616,452.60192 138.60708,456.04257 112,456.88361 L 92.5,457.5 l 5,2.94675 c 24.09231,14.1988 54.79196,25.51729 84,30.96951 7.38935,1.37936 20.61015,3.05495 31.5,3.99229 9.08453,0.78194 41.81385,-0.35624 52.5,-1.82572 z"
       style="fill:#b0b0b0" />
    <path
       id="path3631"
       d="M 283,624.84325 C 174.85387,614.77023 78.939516,548.02327 31.034449,449.5 -14.899963,355.02965 -9.7464491,241.03777 44.506876,151.5 111.54596,40.861067 236.01206,-16.394628 365,4.0698509 453.21691,18.065835 533.95819,73.050027 581.49312,151.5 c 59.45364,98.12018 59.45364,224.87982 0,323 C 529.36289,560.5339 440.81975,615.92677 341,624.95325 c -13.45061,1.21631 -44.39046,1.15763 -58,-0.11 z M 267,494.03822 C 335.4614,483.87128 390.88609,452.86469 431.51956,402 469.93395,353.91314 490.03848,299.68268 492.58825,237.27178 l 0.70385,-17.22823 9.76656,-7.99327 c 12.67362,-10.37249 34.48555,-34.83941 32.67392,-36.65104 -0.27872,-0.27872 -5.04206,1.07188 -10.58521,3.00132 C 509.03127,184.01021 489,188.31679 489,186.17199 c 0,-0.5803 2.62884,-3.07794 5.84186,-5.55031 7.51177,-5.78017 15.36303,-14.37147 20.81642,-22.77852 4.57852,-7.05832 9.97184,-18.54637 9.11111,-19.4071 -0.28258,-0.28259 -4.99273,1.72494 -10.467,4.46118 -10.80228,5.39936 -28.77007,11.9234 -39.63123,14.38996 l -6.82885,1.55082 -5.24443,-4.74938 C 432.77744,127.08311 387.81462,122.16658 353.71247,142.18239 333.1836,154.23153 319.55286,171.56922 311.4015,196 c -2.7185,8.14775 -2.83678,9.29775 -2.85412,27.75 l -0.0181,19.25 -4.57823,0 c -2.51803,0 -9.50165,-0.64937 -15.51917,-1.44304 -60.88067,-8.02974 -119.22832,-38.3665 -159.74611,-83.05696 -4.98647,-5.5 -9.40895,-10.14275 -9.82772,-10.31722 -1.42458,-0.59352 -7.05189,12.12881 -9.61565,21.73926 -2.13979,8.02119 -2.55556,11.7722 -2.55799,23.07796 -0.002,11.57119 0.38518,14.92875 2.71327,23.5 4.74891,17.48386 13.53494,31.69002 27.78932,44.93262 4.29019,3.98567 7.50319,7.54383 7.14,7.90703 -2.05187,2.05187 -21.01258,-1.98026 -31.75385,-6.75267 -3.25975,-1.44833 -6.23623,-2.2854 -6.6144,-1.86015 -1.12043,1.25991 0.68015,15.35367 3.04932,23.86817 4.21955,15.16448 14.98489,32.81587 26.12722,42.8395 10.032,9.02478 18.354,14.02779 31.82727,19.13386 4.65442,1.76393 8.6146,3.66317 8.80039,4.22054 0.58922,1.76766 -13.6051,3.47451 -24.99257,3.00532 -5.97658,-0.24624 -11.06566,-0.1255 -11.30905,0.26832 -0.71977,1.16461 3.62049,10.8837 8.41201,18.83691 5.24831,8.71143 17.0251,20.95328 26.00475,27.03167 12.06473,8.16672 28.08268,14.15326 41.87189,15.64918 4.04992,0.43936 6.25,1.12756 6.25,1.95506 0,2.72886 -21.8688,16.40522 -36.53285,22.847 -26.2892,11.54858 -58.98798,17.86134 -84.21715,16.25878 -5.090663,-0.32336 -9.25,-0.19267 -9.25,0.29063 0,1.87422 19.38982,12.14198 35.73004,18.92063 23.45045,9.72828 44.3561,15.25617 70.76996,18.71305 11.82906,1.54811 56.85903,1.20153 68.5,-0.52723 z"
       style="fill:#909090" />
    <path
       id="path3629"
       d="M 282,624.42595 C 208.28832,616.45623 143.55327,585.67865 91.937307,534.06269 51.915948,494.04133 24.733527,446.78815 10.399585,392.31972 3.8755219,367.52854 1.1370183,348.09357 0.35020786,321 -2.1384301,235.30454 30.69987,153.17474 91.937307,91.937307 153.10655,30.768067 234.8771,-1.9941547 320.5,0.36129288 c 35.12569,0.96629202 64.57792,6.34512702 97,17.71502712 78.99345,27.701725 145.82457,89.04128 180.41697,165.59197 37.25894,82.45159 37.25894,176.21183 0,258.66342 C 567.17182,510.36869 510.36869,567.17182 442.33171,597.91697 392.48077,620.44405 334.23759,630.07388 282,624.42595 Z M 265,494.56271 c 31.04897,-4.03022 54.88148,-11.06565 81.5,-24.05904 25.49992,-12.44736 45.6201,-26.70314 65.60067,-46.48013 49.88036,-49.37215 78.19227,-114.47482 80.60673,-185.35363 l 0.60738,-17.83009 5.09261,-4.15723 c 13.91791,-11.36156 40.27517,-40.33337 38.39971,-42.20883 -0.26019,-0.26019 -5.38573,1.27078 -11.39009,3.40215 -11.75364,4.17221 -29.92562,8.4809 -33.53129,7.95049 -1.90507,-0.28024 -1.24069,-1.15922 4.6977,-6.2151 12.09025,-10.29349 20.60269,-21.19157 25.88861,-33.14396 C 525.15683,140.39653 525.6009,138 524.041,138 c -0.52744,0 -4.91494,1.96564 -9.75,4.36809 -11.12627,5.52844 -19.51027,8.83484 -30.4163,11.99529 -15.87135,4.59933 -14.682,4.73676 -23.54447,-2.72049 -20.79601,-17.49863 -48.67954,-25.44335 -74.41496,-21.2027 -25.90108,4.26795 -48.15954,18.33596 -62.59168,39.55981 -5.45685,8.02481 -10.4742,19.14768 -13.04997,28.93017 -2.14698,8.15405 -2.50045,11.56705 -2.38922,23.06983 0.0718,7.425 0.23967,15.075 0.37307,17 l 0.24253,3.5 -7.5,-0.30218 c -4.125,-0.1662 -13.08129,-1.18829 -19.90287,-2.27131 C 243.28774,233.92371 208.40265,220.15701 176,198.45202 159.49905,187.39882 145.85802,175.82562 131.29962,160.52773 124.74244,153.63748 118.90916,148 118.33678,148 c -1.51211,0 -6.97131,12.35936 -9.52625,21.56694 -3.18888,11.49221 -3.1838,35.3785 0.01,46.93306 4.68282,16.94161 12.8639,30.49204 26.41406,43.75 l 8.94286,8.75 -4.97685,0 c -5.57957,0 -19.95851,-3.86268 -27.99534,-7.52051 -6.38104,-2.90422 -6.78279,-2.42087 -5.81767,6.99929 1.5094,14.73263 7.69323,31.38714 16.43226,44.25592 5.27258,7.76423 20.27785,21.85617 28.25403,26.53431 5.3772,3.15379 13.16408,6.52972 23.34335,10.12029 6.284,2.21658 -12.08426,5.13567 -25.66722,4.07904 -8.37032,-0.65113 -8.75,-0.5919 -8.75,1.36505 0,3.35017 8.69555,19.3375 14.43543,26.54049 14.73245,18.48776 36.87304,31.26954 59.06457,34.09802 2.75,0.35051 6.125,0.88008 7.5,1.17681 l 2.5,0.53952 -3.63634,3.15588 c -5.70879,4.95451 -23.40634,15.23042 -34.59378,20.08655 -24.92635,10.81976 -47.89406,15.48344 -76.51988,15.53763 -9.298183,0.0176 -16.75,0.43413 -16.75,0.93625 0,1.67349 19.26409,12.07504 34,18.35814 27.03594,11.52759 57.14372,18.74484 88,21.09482 10.04482,0.765 40.33311,-0.2804 52,-1.79479 z"
       style="fill:#6f6f6f" />
    <path
       id="path3627"
       d="m 293,625.30268 c -1.925,-0.20749 -10.475,-1.28401 -19,-2.39227 C 215.41028,615.29369 164.76558,593.95282 118,557.17449 105.77468,547.56 78.439996,520.22532 68.825512,508 32.031644,461.21466 11.487129,412.49235 2.8348754,351.5 -0.41168201,328.61404 -0.41806439,296.99097 2.8193348,274.5 11.659564,213.08485 32.029378,164.78822 68.825512,118 78.439996,105.77468 105.77468,78.439996 118,68.825512 164.20811,32.485603 212.06135,12.073361 271.5,3.3486729 302.25768,-1.1660857 324.04561,-0.98421554 359.27149,4.0813268 405.67316,10.753968 451.55282,28.840509 490.5,55.813837 519.60414,75.970248 549.99864,106.36349 570.18945,135.5 c 33.94919,48.99061 53.49276,108.85169 55.5233,170.06529 1.35213,40.76212 -8.31045,90.58776 -25.18814,129.88402 -16.50393,38.42606 -36.44891,67.6783 -66.92296,98.15234 -30.47404,30.47405 -59.72628,50.41903 -98.15234,66.92296 -29.28937,12.57974 -56.26972,19.31641 -95.94318,23.95587 -11.6439,1.36165 -37.29402,1.81513 -46.50613,0.8222 z M 271.5,494.15443 C 345.67965,482.59406 405.25688,444.7171 446.90857,382.63627 475.65165,339.79542 491.453,290.422 493.57605,236.8176 l 0.66072,-16.6824 8.38062,-6.6415 c 13.61775,-10.79184 37.67015,-38.23119 34.45236,-39.30378 -0.55655,-0.18552 -6.31242,1.46494 -12.79083,3.66767 -12.14847,4.13063 -32.06014,8.69453 -33.15524,7.59942 -0.34101,-0.34101 0.72916,-1.57935 2.37815,-2.75186 6.64679,-4.72618 16.98816,-15.65421 21.9594,-23.20515 7.63685,-11.5998 12.3018,-22.5 9.6293,-22.5 -0.50021,0 -5.33771,2.19788 -10.75,4.88418 C 503.5143,147.2576 488.07329,153.0491 478,155.51451 c -3.575,0.87497 -7.25918,1.81348 -8.18706,2.08558 -1.06663,0.31279 -3.66787,-1.2991 -7.07327,-4.38305 -7.67643,-6.9518 -13.57868,-10.80262 -24.06146,-15.69847 C 424.94063,131.10261 417.21031,129.5 400,129.5 c -10.9896,0 -16.31573,0.46251 -22,1.91045 -32.82243,8.36075 -57.76551,32.44724 -67.62353,65.30123 -2.28462,7.61398 -2.65299,10.72588 -2.75673,23.28832 -0.0659,7.975 0.10526,16.075 0.38026,18 0.49411,3.45879 0.45291,3.50393 -3.5,3.83359 -5.26453,0.43904 -20.1991,-1.44674 -34.5,-4.3563 C 215.50469,226.39007 164.14972,197.06711 127.8137,156.29093 123.26012,151.18092 119.03083,147 118.41527,147 c -0.61556,0 -2.5002,3.0375 -4.18811,6.75 -9.85042,21.66576 -11.45243,44.74596 -4.61177,66.44172 5.15862,16.36099 12.30456,27.69678 25.25886,40.06875 4.46916,4.26826 8.12575,7.98076 8.12575,8.25 0,2.19343 -21.27769,-2.66925 -30.87084,-7.05503 C 109.17519,260.10495 106.29658,259 105.73223,259 c -1.93799,0 -0.0747,17.92256 2.80693,27 9.51202,29.96329 29.83086,51.20262 59.30544,61.9921 5.47474,2.00409 6.09171,2.47232 4.5,3.4152 -1.10093,0.65217 -8.27787,1.14156 -17.80166,1.21389 -11.33903,0.0861 -16.07166,0.46498 -16.35305,1.30913 -0.21779,0.65337 1.91097,5.83006 4.73057,11.50376 14.05795,28.28788 41.26347,47.25214 73.32954,51.11609 2.6125,0.31481 4.75,0.93493 4.75,1.37805 0,0.76047 -7.25721,5.793 -18.52249,12.84448 -25.61983,16.03664 -67.74285,26.47689 -100.6994,24.95848 -13.769317,-0.6344 -14.62995,0.0958 -6.115414,5.18856 29.002294,17.34703 63.438784,29.14773 99.337304,34.04092 19.44207,2.65007 56.85172,2.25582 76.5,-0.80623 z"
       style="fill:#4f4f4f" />
    <path
       id="path3625"
       d="m 296.5,625.41665 c -2.75,-0.20426 -7.925,-0.83076 -11.5,-1.39221 -3.575,-0.56144 -11.675,-1.72196 -18,-2.57892 C 188.18132,610.76655 111.52785,564.99833 63.098566,499.70013 31.89386,457.62618 10.874427,406.95566 4.5251259,358.5 3.6603067,351.9 2.4270804,344.25 1.7846231,341.5 0.18462494,334.6513 0.18502317,293.44831 1.7851692,285 2.4622899,281.425 3.7129634,273.325 4.5644436,267 14.118117,196.03302 52.610094,125.91964 108.80464,77.125824 152.87553,38.858994 211.32534,12.048417 267,4.5625559 c 6.325,-0.850442 14.425,-2.100266 18,-2.7773867 8.44831,-1.60014603 49.6513,-1.60054426 56.5,-5.461e-4 2.75,0.6424573 10.4,1.8756836 17,2.7405028 C 414.41877,11.852343 472.28042,38.369245 517.50194,77.392717 573.05681,125.33325 611.90495,196.20436 621.43556,267 c 0.85148,6.325 2.09772,14.425 2.76943,18 0.72229,3.84424 1.22128,15.28445 1.22128,28 0,12.71555 -0.49899,24.15576 -1.22128,28 -0.67171,3.575 -1.9171,11.675 -2.76755,18 -7.5179,55.913 -33.95857,113.45643 -72.83016,158.50194 -48.07984,55.7163 -119.27781,94.65668 -190.10728,103.97558 -6.6,0.86835 -14.19165,2.02071 -16.87033,2.56081 -5.16342,1.0411 -36.70191,2.00432 -45.12967,1.37832 z M 265,495.54504 c 33.49503,-4.47019 60.12706,-12.69767 88,-27.18601 52.12851,-27.09637 93.96508,-73.01005 118.61817,-130.1779 13.71908,-31.81307 20.76301,-63.43396 22.04154,-98.94668 l 0.6576,-18.26554 6.59134,-5.34528 c 18.45828,-14.96879 42.09062,-42.68085 36.34135,-42.61505 -0.4125,0.005 -5.72392,1.76495 -11.80315,3.91161 -11.87857,4.1945 -31.12665,8.73334 -32.25421,7.60579 -0.37894,-0.37894 0.6602,-1.62366 2.30919,-2.76604 5.32204,-3.68696 16.02548,-15.27995 20.95867,-22.70052 5.7679,-8.67617 11.12573,-20.87319 9.76622,-22.2327 -0.59384,-0.59384 -4.62325,0.88756 -10.83605,3.98382 -12.15928,6.05981 -20.30288,9.30341 -31.51597,12.55284 -15.1278,4.38386 -15.50253,4.39154 -19.70344,0.40363 -30.92106,-29.3532 -79.64607,-33.602 -115.37906,-10.06099 -25.9242,17.07894 -41.76977,45.77173 -42.13329,76.29398 -0.0688,5.775 0.2434,13.13704 0.69373,16.3601 l 0.81878,5.8601 -7.33571,-0.67659 C 234.06402,235.38509 171.84478,204.72499 128.88384,156.81 c -5.26749,-5.8749 -9.08712,-9.31 -10.3522,-9.31 -2.37844,0 -5.25604,5.34464 -8.88374,16.5 -3.68387,11.32806 -5.00687,21.56505 -4.36449,33.77116 0.70294,13.35673 3.45809,24.07156 9.22022,35.85756 5.46468,11.17759 11.26027,19.0196 20.49349,27.72975 l 7.04037,6.64153 -3.90688,0 c -4.61653,0 -19.49413,-4.1385 -26.75451,-7.44229 -7.0867,-3.22476 -7.82778,-2.4979 -6.98097,6.84694 1.05176,11.60659 4.06851,22.06079 9.61024,33.3032 11.78094,23.89979 29.49373,39.17489 56.49463,48.71965 2,0.707 2,0.707 0,1.87782 -1.30271,0.76262 -7.35152,1.15526 -17.34945,1.12618 l -15.34946,-0.0446 0.51955,3.20161 c 1.33085,8.20105 11.13279,23.82927 21.36351,34.06201 14.73372,14.73662 34.6899,24.77658 53.59397,26.96316 3.17796,0.36758 5.9762,0.98884 6.21831,1.38058 1.28869,2.08514 -23.81493,16.81211 -39.88105,23.3961 -23.57482,9.66112 -44.48845,13.56207 -72.86538,13.59136 -13.523919,0.014 -17.749843,0.31593 -17.749342,1.26832 0.0012,2.3203 21.989902,14.35224 38.499342,21.06637 27.58698,11.21918 54.85009,17.58166 86,20.07009 9.62757,0.7691 40.10477,-0.32063 51.5,-1.84142 z"
       style="fill:#2e2e2e" />
    <path
       id="path3623"
       d="M 299,625.04486 C 261.05956,621.31223 231.11712,614.95199 204.60695,604.99432 143.88007,582.18426 92.357037,541.85895 55.763926,488.5 28.665754,448.98628 10.273394,401.03405 4.5592141,355 3.7058243,348.125 2.5716426,339.8 2.0388102,336.5 -0.64683336,319.86696 -0.2351114,306.65154 3.9704003,274.5 14.334519,195.26531 52.525522,125.00625 112.5,74.840715 159.67136,35.384328 213.11667,12.003126 274.5,3.9691259 c 35.37769,-4.63031902 41.62231,-4.63031902 77,0 70.39955,9.2140661 132.07534,39.4325081 181.56269,88.9577861 49.69284,49.730928 79.73782,111.049018 88.96818,181.573088 4.60006,35.14646 4.60325,42.62087 0.0329,77 -8.19683,61.65842 -31.53278,114.96671 -70.91626,162 -49.48951,59.1023 -122.02541,98.93057 -196.64752,107.97591 -7.15,0.86669 -15.025,1.99613 -17.5,2.50987 -6.30391,1.30851 -29.02733,1.94182 -38,1.05908 z M 271.55409,495.181 c 66.29073,-10.31623 120.73789,-41.45459 162.05788,-92.681 37.35439,-46.31006 58.3928,-103.22313 60.91631,-164.79071 l 0.68822,-16.79072 4.64175,-3.69445 c 7.81555,-6.22053 28.4689,-27.32068 33.95551,-34.69006 8.13512,-10.92675 7.29857,-11.82862 -6.411,-6.91156 -10.54045,3.78043 -27.84651,8.3775 -31.53782,8.3775 -1.90347,0 -1.58487,-0.53575 2.20506,-3.70802 2.4365,-2.03942 6.58663,-5.97692 9.22251,-8.75 C 518.9793,159.24686 530.98209,136 525.6435,136 c -0.74607,0 -6.93357,2.65374 -13.75,5.89721 -12.82897,6.10441 -30.93931,12.41881 -39.0489,13.61488 -4.63108,0.68304 -4.70123,0.64954 -13.4313,-6.41264 C 449.22174,140.855 436.1811,134.13755 424,130.85746 c -11.53171,-3.10521 -34.67049,-3.33149 -46,-0.44984 -34.38896,8.7468 -60.28184,34.45194 -69.59701,69.09238 -1.49723,5.56779 -1.88448,10.5294 -1.89268,24.2501 l -0.0103,17.25009 -4.17764,-9e-5 c -9.90839,-2.3e-4 -34.83841,-4.43636 -50.89071,-9.05566 -27.60166,-7.9428 -51.7244,-19.21837 -75.93165,-35.49233 -15.32595,-10.30327 -29.16732,-22.17279 -43.81439,-37.57256 -8.85973,-9.31502 -12.97756,-12.9815 -14.09708,-12.55189 -2.27778,0.87406 -7.40809,12.63734 -10.3242,23.67234 -3.66938,13.8855 -3.6091,32.43458 0.15087,46.42078 4.60451,17.12768 15.71598,35.48284 28.05466,46.34378 2.66159,2.34282 4.53376,4.56515 4.16039,4.93852 -1.10663,1.10663 -18.89707,-3.59631 -25.60539,-6.76884 C 110.61242,259.32041 106.89539,258 105.7648,258 c -1.97412,0 -2.03214,0.38661 -1.46326,9.75 1.28468,21.14491 10.44416,41.37106 25.96112,57.32788 10.29276,10.58454 20.17377,16.86779 38.73734,24.63277 2.33699,0.97755 2.1822,1.09489 -2.37412,1.7997 -2.68077,0.41468 -10.25649,0.53229 -16.83494,0.26136 -14.04161,-0.5783 -14.23451,-0.43395 -10.79096,8.07479 6.49117,16.03919 19.31362,31.70498 34.50602,42.15762 10.39807,7.15407 27.34812,13.45406 41.91367,15.57848 l 3.91967,0.57169 -2.91967,2.35695 c -4.92673,3.97717 -18.3961,11.7239 -29.08696,16.72897 -26.7749,12.53502 -57.24832,18.70631 -86.08271,17.43294 -12.139281,-0.53609 -13.25,-0.43952 -13.25,1.1519 0,1.12638 3.076076,3.53957 8.75,6.86441 29.23221,17.12965 61.92012,28.21496 98.25,33.3191 18.4814,2.59653 57.24399,2.1775 76.55409,-0.82756 z"
       style="fill:#161616" />
    <path
       id="path3621"
       d="m 305,624.87265 c -3.025,-0.46517 -10.225,-1.30053 -16,-1.85635 -24.75188,-2.38229 -50.87729,-7.54688 -70.73383,-13.98299 C 122.32628,577.93624 48.045382,503.59741 16.892175,407.50225 10.578629,388.0275 5.306516,361.40928 3.0272429,337.5 2.5029275,332 1.6450059,324.33378 1.1207504,320.46397 c -0.57945455,-4.27728 -0.60220343,-9.5705 -0.058019,-13.5 C 1.5550757,303.40878 2.419538,295.775 2.9837582,290 4.3558062,275.95659 5.7981407,265.07312 7.4896173,256 28.817564,141.59639 113.16658,48.008029 224.62579,15.079371 244.60566,9.1766725 266.43931,5.1090608 289.5,2.9933 c 6.05,-0.5550724 13.8125,-1.4493668 17.25,-1.9873208 4.13183,-0.64661446 8.36817,-0.63564852 12.5,0.032357 3.4375,0.5557503 11.2,1.4441268 17.25,1.9741701 42.12587,3.6906665 79.57744,14.1689577 116,32.4547577 C 547.20994,83.01601 611.1842,175.54006 621.92394,280.5 c 1.58676,15.50748 1.81992,17.5162 2.90187,25 0.64587,4.46737 0.67958,9.53263 0.0932,14 -0.50536,3.85 -1.36759,11.725 -1.91606,17.5 -1.37828,14.51227 -4.72629,35.56487 -7.55397,47.5 C 586.40353,507.09582 485.8541,600.29572 361.5,619.8869 c -7.15,1.12643 -17.275,2.33322 -22.5,2.68175 -5.225,0.34852 -13.27145,1.26316 -17.88099,2.03252 -4.60954,0.76935 -8.88454,1.33547 -9.5,1.25803 C 311.00355,625.7818 308.025,625.33781 305,624.87265 Z M 270.5,495.98409 c 14.9087,-2.21363 29.95993,-5.61008 43,-9.70336 103.71137,-32.55504 177.24455,-132.59374 181.35393,-246.72415 l 0.64607,-17.94342 5.5,-4.4175 c 11.67148,-9.37434 27.28321,-25.6575 35.31097,-36.82964 3.62253,-5.04142 4.5046,-7.74394 2.8594,-8.76072 -0.45629,-0.28201 -5.96242,1.29524 -12.23583,3.505 -10.47668,3.69032 -26.31199,7.94441 -29.22327,7.85072 -0.6662,-0.0214 1.32174,-2.38395 4.41765,-5.25 8.86824,-8.20985 15.33016,-16.83623 20.80707,-27.77655 C 528.42229,138.9754 529.25351,135 526.05864,135 c -1.06775,0 -6.80525,2.43317 -12.75,5.40704 -12.0827,6.04439 -24.85348,10.78017 -36.78237,13.63998 l -7.97374,1.91161 -3.02626,-2.80401 c -11.28741,-10.45845 -26.66716,-18.97427 -41.3163,-22.87699 -13.44603,-3.5822 -33.38469,-3.78001 -46.70997,-0.46341 -35.58423,8.85675 -62.89863,37.38391 -70.55323,73.68578 -1.31227,6.22345 -1.81734,23.29431 -0.94677,32 l 0.5,5 -6,-0.29843 c -8.3969,-0.41765 -29.11649,-3.85807 -41,-6.80793 -46.44344,-11.52869 -91.18676,-37.33494 -124,-71.51849 -4.95,-5.15671 -10.49733,-11.08948 -12.32741,-13.18391 -1.88711,-2.15971 -4.0514,-3.67457 -5,-3.49966 -2.32278,0.42831 -8.73601,13.65866 -11.29844,23.30842 -2.64909,9.97615 -3.6537,30.80159 -1.92003,39.80205 4.16803,21.63856 13.67796,39.54805 28.38665,53.45891 3.61415,3.41812 4.94963,5.23904 3.84234,5.23904 -3.26631,0 -19.73424,-4.93665 -25.34389,-7.59742 -8.45424,-4.01003 -9.26515,-3.30988 -8.53857,7.37222 1.8309,26.91776 16.22685,53.13161 37.91859,69.04668 5.89005,4.32148 17.6089,10.81322 23.78076,13.17352 l 3.5,1.3385 -7,0.70592 c -3.85,0.38826 -10.375,0.37781 -14.5,-0.0232 -12.2164,-1.18765 -12.87687,0.0358 -6.94059,12.85702 9.46009,20.4319 28.11571,38.60496 48.21231,46.96521 8.24191,3.42866 21.75072,7.16156 25.91662,7.16156 1.54641,0 2.81166,0.35138 2.81166,0.78085 0,0.98474 -17.52346,11.95149 -25.5,15.95872 -26.38222,13.25385 -55.6837,19.732 -86.5,19.12395 -9.075,-0.17906 -17.042847,0.0178 -17.706326,0.43748 -2.149457,1.35962 -0.268758,3.48587 6.795346,7.68258 33.58371,19.95171 72.67644,32.40126 112.91098,35.95784 16.07483,1.42095 47.21127,0.4612 63.5,-1.95733 z"
       style="fill:#000000" />
  </g>
</svg>
