<?xml version="1.0" encoding="UTF-8" standalone="no"?>
<!-- Created with Inkscape (http://www.inkscape.org/) -->

<svg
   xmlns:dc="http://purl.org/dc/elements/1.1/"
   xmlns:cc="http://creativecommons.org/ns#"
   xmlns:rdf="http://www.w3.org/1999/02/22-rdf-syntax-ns#"
   xmlns:svg="http://www.w3.org/2000/svg"
   xmlns="http://www.w3.org/2000/svg"
   xmlns:sodipodi="http://sodipodi.sourceforge.net/DTD/sodipodi-0.dtd"
   xmlns:inkscape="http://www.inkscape.org/namespaces/inkscape"
   id="svg3406"
   version="1.1"
   inkscape:version="0.91 r13725"
   width="640"
   height="640"
   viewBox="0 0 640 640"
   sodipodi:docname="linkedin.svg">
  <metadata
     id="metadata3412">
    <rdf:RDF>
      <cc:Work
         rdf:about="">
        <dc:format>image/svg+xml</dc:format>
        <dc:type
           rdf:resource="http://purl.org/dc/dcmitype/StillImage" />
        <dc:title></dc:title>
      </cc:Work>
    </rdf:RDF>
  </metadata>
  <defs
     id="defs3410" />
  <sodipodi:namedview
     pagecolor="#ffffff"
     bordercolor="#666666"
     borderopacity="1"
     objecttolerance="10"
     gridtolerance="10"
     guidetolerance="10"
     inkscape:pageopacity="0"
     inkscape:pageshadow="2"
     inkscape:window-width="2351"
     inkscape:window-height="1284"
     id="namedview3408"
     showgrid="false"
     inkscape:zoom="1.1009789"
     inkscape:cx="320"
     inkscape:cy="320"
     inkscape:window-x="0"
     inkscape:window-y="0"
     inkscape:window-maximized="0"
     inkscape:current-layer="svg3406" />
  <g
     id="g3416"
     transform="translate(-14.532523,2.724848)">
    <path
       style="fill:#f9f9f9"
       d="m 286.875,611.87378 c -32.8495,-4.66919 -61.49223,-13.41462 -90,-27.47956 C 120.56041,546.74275 65.186633,478.69259 44.432608,397.05411 37.766346,370.83157 35.767051,354.21821 35.76143,325 35.754505,289.00126 39.748681,264.0441 50.765296,231.25 75.006555,159.08897 128.15747,98.590554 196.80021,65.027425 224.88707,51.294242 251.78188,43.039411 285,37.956226 c 19.91866,-3.048041 60.07357,-3.020667 80.625,0.05496 61.83807,9.254395 116.05604,35.82904 160.0498,78.447554 49.40689,47.86242 79.11711,108.457 86.9218,177.27874 2.10905,18.59757 0.76759,62.81478 -2.43264,80.18446 -11.40518,61.90333 -37.55353,112.21763 -80.78896,155.45306 -43.22902,43.22902 -93.3173,69.26644 -155.45306,80.80925 -17.90278,3.32576 -68.61108,4.30997 -87.04694,1.68953 z M 248.75,361.875 l 0,-94.375 -29.375,0 -29.375,0 0,94.375 0,94.375 29.375,0 29.375,0 0,-94.375 z M 350.27784,395.9375 350.625,335.625 353.5443,330 c 3.75089,-7.22734 10.73669,-14.51264 17.0807,-17.813 6.19931,-3.2251 21.36305,-4.35716 29.37281,-2.19285 7.69368,2.07889 16.23271,10.83742 20.11381,20.63085 2.95847,7.46529 2.97413,7.77336 3.38273,66.5625 l 0.41051,59.0625 29.37775,0 29.37775,0 -0.46612,-65.3125 c -0.45323,-63.50511 -0.54424,-65.57194 -3.28899,-74.6875 -8.02195,-26.64175 -21.6083,-41.72011 -44.5229,-49.41229 -8.04893,-2.70194 -12.0035,-3.26337 -22.98925,-3.26386 -15.27574,-6.9e-4 -25.1235,2.49659 -35.10627,8.90253 -6.19833,3.97744 -20.03683,17.85604 -20.03683,20.09487 0,0.64831 -1.40625,1.17875 -3.125,1.17875 l -3.125,0 0,-13.125 0,-13.125 -29.375,0 -29.375,0 0,94.375 0,94.375 29.34034,0 29.34033,0 0.34717,-60.3125 z M 230.76522,233.15316 C 243.70089,229.31169 252.5,217.73812 252.5,204.5652 c 0,-16.79934 -11.86453,-29.0997 -29.42851,-30.50957 -26.30413,-2.11144 -44.22782,20.61146 -33.84553,42.90795 6.8546,14.72061 23.99316,21.40022 41.53926,16.18958 z"
       id="path3502"
       inkscape:connector-curvature="0" />
    <path
       style="fill:#f5f5f5"
       d="M 291.875,612.2942 C 252.80387,607.8838 206.02449,591.70665 173.08602,571.21485 109.89442,531.90186 63.113258,468.74381 45.101355,398.42605 22.734866,311.10814 40.291529,222.18778 94.149922,150.00659 105.54023,134.74125 134.74125,105.54023 150.00659,94.149922 222.18778,40.291529 311.10814,22.734866 398.42605,45.101355 c 70.27248,18.000302 133.50113,64.833755 172.7888,127.984665 21.0462,33.8296 36.76765,79.955 41.217,120.92722 1.68782,15.54238 1.69114,45.13281 0.006,60.72352 -14.7506,136.54144 -121.1599,242.95074 -257.70134,257.70189 -14.27495,1.54219 -48.6192,1.46326 -62.86176,-0.14445 z M 248.75,362.5 l 0,-95 -29.375,0 -29.375,0 0,95 0,95 29.375,0 29.375,0 0,-95 z M 350,398.76341 c 0,-54.94743 0.15523,-59.14512 2.40626,-65.06937 3.29405,-8.66924 9.76445,-16.17474 17.76347,-20.60516 6.04772,-3.34968 7.80848,-3.71301 17.95527,-3.70492 9.20408,0.007 12.19414,0.51222 16.44159,2.77623 6.88707,3.67099 12.25274,10.40515 15.65594,19.64894 2.70747,7.35406 2.79801,9.21937 3.2339,66.62837 l 0.44843,59.0625 29.36764,0 29.36764,0 -0.44417,-66.5625 c -0.43088,-64.57436 -0.52726,-66.83612 -3.22668,-75.72329 -7.90981,-26.04108 -24.0412,-43.18815 -46.46929,-49.3951 -29.84434,-8.25938 -57.8669,0.72433 -75.13691,24.08804 -2.22197,3.00597 -3.79082,4.04212 -5.26419,3.47674 C 350.32671,292.70384 350,290.6266 350,280.03922 l 0,-12.53922 -29.6875,0.002 -29.6875,0.002 0.0991,94.06019 c 0.0545,51.7331 0.19512,94.48206 0.3125,94.99769 0.11738,0.51562 13.43219,0.9375 29.58844,0.9375 l 29.375,0 0,-58.73659 z M 230.60092,233.60464 C 244.06734,229.86608 252.5,218.64982 252.5,204.47679 c 0,-19.89318 -14.30386,-32.00998 -35.95316,-30.45593 -18.48635,1.32701 -30.2044,12.97244 -30.26939,30.08179 -0.0525,13.80561 7.59454,24.70499 20.59755,29.35806 4.98932,1.78541 17.53902,1.86154 23.72592,0.14393 z"
       id="path3500"
       inkscape:connector-curvature="0" />
    <path
       style="fill:#f1f1f1"
       d="M 290.32222,611.77946 C 193.0591,599.99645 108.74806,540.09347 65.663185,452.15926 44.938634,409.86141 36.123716,371.47199 36.17806,323.75 36.266571,246.0238 65.469385,175.78061 120.625,120.625 175.78061,65.469385 246.0238,36.266571 323.75,36.17806 c 47.72199,-0.05434 86.11141,8.760574 128.40926,29.485125 84.9346,41.615165 143.89,121.878525 158.44479,215.710735 2.88991,18.6307 3.79256,50.10769 1.98885,69.35452 -14.10145,150.47258 -139.60489,264.03191 -290.53784,262.88751 -9.72404,-0.0738 -24.00381,-0.90015 -31.73284,-1.83649 z M 248.75,362.5 l 0,-95 -29.375,0 -29.375,0 0,95 0,95 29.375,0 29.375,0 0,-95 z m 101.51696,34.6875 0.35804,-60.3125 3.31299,-6.25 c 6.72896,-12.69429 17.26959,-20.1562 30.38452,-21.50978 20.52621,-2.11849 34.8303,10.63685 38.13923,34.00978 0.6813,4.8125 1.24988,32.51562 1.2635,61.5625 l 0.0248,52.8125 29.44451,0 29.44451,0 -0.46518,-67.1875 c -0.51751,-74.74246 -0.33451,-72.96613 -9.43298,-91.5625 -13.31151,-27.20741 -44.73581,-41.21198 -77.09406,-34.35776 -15.48201,3.27945 -26.82886,10.79989 -39.06777,25.89322 -1.70044,2.09704 -3.4998,3.12868 -4.67225,2.67876 C 350.37554,292.37664 350,289.79697 350,279.86626 l 0,-12.36626 -29.77515,0 -29.77515,0 -0.24944,95 -0.24945,95 29.97905,0 29.97907,0 0.35803,-60.3125 z M 237.95242,230.79222 c 17.80424,-10.43397 20.57694,-35.84933 5.36784,-49.2031 -7.05768,-6.19673 -14.14057,-8.24078 -26.33708,-7.60063 -8.97573,0.4711 -11.48186,1.11457 -16.55393,4.2504 -3.28731,2.0324 -7.68182,6.12053 -9.76559,9.08477 -3.36045,4.78035 -3.82725,6.54304 -4.13007,15.59543 -0.28954,8.65493 0.098,11.04592 2.54982,15.73342 6.09654,11.65544 16.03841,16.58451 32.25382,15.9911 9.02436,-0.33024 11.64231,-0.93709 16.6152,-3.85139 z"
       id="path3498"
       inkscape:connector-curvature="0" />
    <path
       style="fill:#ededed"
       d="M 301.875,612.98381 C 230.0683,605.41919 172.9686,579.41405 123.99479,531.97119 79.109339,488.48886 50.97633,435.1894 39.821255,372.5 36.506498,353.87169 35.300189,314.54412 37.436588,294.75609 44.511096,229.2297 74.25887,166.92428 120.59157,120.59157 166.92428,74.25887 229.2297,44.511096 294.75609,37.436588 c 19.78803,-2.136399 59.1156,-0.93009 77.74391,2.384667 62.6894,11.155075 115.98886,39.288084 159.47119,84.173535 43.11518,44.50647 69.18301,97.30872 78.8692,159.75521 3.08078,19.86174 3.0616,62.43563 -0.0371,82.45544 C 591.1542,493.14961 493.57017,591.16234 367.5,610.57754 c -12.60771,1.94162 -55.20816,3.50365 -65.625,2.40627 z M 248.75,362.5 l 0,-95 -30,0 -30,0 0,94.16666 c 0,51.79168 0.375,94.54168 0.83334,95 0.45832,0.45834 13.95832,0.83334 30,0.83334 l 29.16666,0 0,-95 z m 101.51655,35.3125 c 0.34917,-58.14319 0.42834,-59.83873 3.05956,-65.53209 3.64818,-7.89381 11.77411,-16.44582 18.9184,-19.91037 8.17515,-3.96445 23.60957,-4.0724 30.96575,-0.21658 7.82018,4.09903 13.75885,11.53014 16.94628,21.20504 2.71027,8.22655 2.82285,10.48555 3.30671,66.35137 l 0.50091,57.83487 29.58043,-0.33487 29.58041,-0.33487 0.36095,-50.625 c 0.51387,-72.07541 -1.04669,-87.91311 -10.59251,-107.5 -13.39497,-27.48489 -45.10325,-41.43325 -78.2307,-34.4134 -12.68007,2.68696 -22.26809,8.39768 -32.20457,19.18132 C 351.20015,295.73581 350,295.34049 350,279.41422 l 0,-11.91422 -30,0 -30,0 0,95 0,95 29.95405,0 29.95404,0 0.35846,-59.6875 z M 235,232.39886 c 12.22493,-5.53378 18.09257,-14.66314 18.0116,-28.02386 -0.0636,-10.4992 -2.96919,-17.00399 -10.45901,-23.415 -6.26683,-5.36416 -13.25826,-7.52401 -24.03503,-7.42509 -19.75698,0.18135 -32.70724,12.42734 -32.61367,30.84009 0.0653,12.83845 6.05561,22.49086 17.17002,27.66641 8.46417,3.94143 23.63338,4.11126 31.92609,0.35745 z"
       id="path3496"
       inkscape:connector-curvature="0" />
    <path
       style="fill:#e9e9e9"
       d="M 298.75,612.38819 C 233.38892,606.10642 173.17717,578.75112 126.02265,533.91498 32.659689,445.14225 9.2989304,305.25738 68.833956,191.46745 83.161767,164.08256 99.738427,141.72484 122.03705,119.70994 143.99899,98.027439 164.79446,82.789298 191.46745,68.833956 294.47881,14.938285 420.82506,28.6881 510.0804,103.50748 639.82986,212.27154 648.47598,409.05422 528.7651,528.7651 468.48635,589.04385 382.21135,620.40954 298.75,612.38819 Z M 249.69536,362.1875 250.01571,267.5 l -30.63285,0 -30.63286,0 0,95.02223 0,95.02222 30.3125,-0.33472 30.3125,-0.33473 0.32036,-94.6875 z m 100.56057,35.625 0.36907,-59.6875 3.47473,-7.07568 c 6.58245,-13.40402 18.998,-21.42773 33.40027,-21.58538 15.19766,-0.16635 26.09267,7.12192 31.85305,21.30826 2.31634,5.70455 2.52026,10.01821 3.125,66.1028 l 0.64695,60 30.41135,0.33495 30.41134,0.33495 -0.53897,-64.08495 c -0.6032,-71.72289 -0.8654,-74.27569 -9.53543,-92.83495 -12.30817,-26.34714 -36.4927,-39.72734 -68.24549,-37.75714 -19.32229,1.19891 -33.94451,8.57974 -45.75105,23.09365 C 351.59169,296.14645 350,294.86709 350,278.02276 l 0,-10.52276 -30,0 -30,0 0,95 0,95 29.94343,0 29.94342,0 0.36908,-59.6875 z M 233.125,233.39512 c 3.1251,-0.89716 7.38965,-3.81038 11.37275,-7.769 5.04676,-5.01575 6.70424,-7.71541 7.96595,-12.97483 5.09714,-21.24723 -8.85543,-38.90679 -31.09678,-39.35879 -15.37933,-0.31255 -26.94927,5.72071 -32.8967,17.15431 -3.74326,7.19624 -3.75802,20.63223 -0.0305,27.79654 7.80172,14.995 24.96257,20.81386 44.6853,15.15177 z"
       id="path3494"
       inkscape:connector-curvature="0" />
    <path
       style="fill:#e5e5e5"
       d="M 301.875,612.50931 C 213.31855,605.0039 134.07422,558.35066 84.595022,484.59084 68.078081,459.96864 51.026153,421.4083 44.42392,393.75 37.482414,364.6704 34.705744,327.10984 37.401032,298.75 50.615558,159.70674 159.70674,50.615558 298.75,37.401032 c 28.35984,-2.695288 65.9204,0.08138 95,7.022888 27.6583,6.602232 66.21864,23.654161 90.84084,40.171102 69.23451,46.443548 113.0561,116.297048 126.11323,201.029978 3.18262,20.6532 2.94173,58.61492 -0.51606,81.32753 -17.33687,113.8781 -99.01881,205.85154 -209.77605,236.20672 -29.29135,8.02788 -69.32079,11.82623 -98.53696,9.35006 z M 249.69531,362.1875 249.375,266.875 l -30,0 -30,0 -0.32031,95.3125 -0.3203,95.3125 30.64061,0 30.64061,0 -0.3203,-95.3125 z m 100.54043,35.625 0.38926,-59.6875 3.43517,-6.51635 c 7.96177,-15.10307 18.6532,-22.04505 33.87833,-21.99728 13.92779,0.0437 23.24249,5.36883 28.84247,16.48895 5.29488,10.51423 5.71903,16.09223 5.71903,75.2112 l 0,56.18848 30.625,0 30.625,0 0,-57.84529 c 0,-31.81491 -0.56774,-62.3731 -1.26164,-67.90707 -2.93421,-23.40077 -8.83085,-36.90692 -21.81726,-49.97205 -14.4165,-14.50388 -29.75316,-19.97111 -53.1711,-18.95448 -21.27086,0.92343 -35.99373,7.9219 -47.31572,22.49139 C 351.58156,296.38272 350,295.15009 350,277.37514 l 0,-11.17039 -29.6875,0.33513 -29.6875,0.33512 -0.32031,95.3125 -0.3203,95.3125 29.93105,0 29.93105,0 0.38925,-59.6875 z M 235.35937,232.74628 c 6.01762,-2.66188 12.53098,-8.70804 15.43904,-14.33162 3.03761,-5.8741 3.62454,-17.12937 1.25575,-24.08137 -2.94661,-8.64784 -7.3567,-13.68587 -15.44336,-17.6423 -8.92356,-4.36589 -22.49196,-4.9141 -31.88845,-1.28842 -12.48566,4.81768 -21.10306,19.50318 -19.27418,32.84642 1.89625,13.83467 11.09979,23.31645 26.42683,27.22575 4.66985,1.1911 18.16915,-0.37728 23.48437,-2.72847 z"
       id="path3492"
       inkscape:connector-curvature="0" />
    <path
       style="fill:#e1e1e1"
       d="M 306.22976,612.39856 C 229.65544,607.9535 154.65109,570.4686 105.58149,512.12064 70.04649,469.86647 47.632019,420.603 39.191291,366.20544 36.099581,346.28044 36.101726,303.71266 39.195446,283.75 48.839407,221.52102 74.636522,169.03157 117.44907,124.52718 161.90407,78.315427 218.40936,49.321639 283.75,39.195446 c 19.96266,-3.09372 62.53044,-3.095865 82.45544,-0.0041 136.55581,21.188976 238.32432,132.069594 246.16043,268.201034 3.07206,53.36858 -7.03436,101.50851 -31.30848,149.13191 -14.42548,28.30138 -28.36514,47.21302 -52.84263,71.69049 -24.52937,24.52938 -43.37142,38.40648 -71.88747,52.94484 -47.55251,24.24372 -96.19704,34.36784 -150.09753,31.23897 z M 249.69531,362.1875 249.375,266.875 l -30,0 -30,0 -0.32031,95.3125 -0.3203,95.3125 30.64061,0 30.64061,0 -0.3203,-95.3125 z m 100.53014,36.25 0.39955,-59.0625 3.35138,-7.15043 c 4.24867,-9.06491 12.97127,-17.62545 20.61177,-20.22882 8.84904,-3.01518 20.958,-2.59008 28.68314,1.00695 7.23932,3.37081 11.92041,8.81896 15.88324,18.48595 2.64333,6.44817 2.73093,8.32884 3.08954,66.32385 l 0.36908,59.6875 30.56842,0 30.56843,0 0,-59.28455 c 0,-35.7021 -0.53812,-63.15356 -1.35281,-69.01095 -4.87044,-35.01709 -22.73754,-57.40264 -51.72232,-64.80247 -9.61981,-2.45596 -29.30048,-2.44879 -38.75617,0.0141 -13.47529,3.50986 -26.5721,12.73154 -35.44711,24.95886 -2.64432,3.64314 -2.7753,3.68085 -4.59673,1.32359 C 350.53391,288.96315 350,285.13652 350,277.26109 l 0,-11.01109 -30,0 -30,0 0,95.625 0,95.625 29.91295,0 29.91294,0 0.39956,-59.0625 z M 234.45269,233.1731 c 12.11985,-5.064 19.3412,-15.61169 19.24245,-28.10603 -0.10363,-13.11165 -5.7903,-22.87091 -16.58515,-28.46287 -8.70108,-4.50734 -24.63552,-4.90425 -33.44733,-0.83313 -18.1972,8.40725 -24.14286,30.32873 -12.7603,47.04688 6.07458,8.92205 17.45615,13.73349 30.49262,12.89041 4.54848,-0.29415 10.42445,-1.43501 13.05771,-2.53526 z"
       id="path3490"
       inkscape:connector-curvature="0" />
    <path
       style="fill:#dddddd"
       d="M 286.91617,610.5469 C 190.92369,597.48347 108.70938,538.40355 66.278951,451.99508 45.798365,410.28689 36.965409,371.98245 36.994046,325 c 0.01792,-29.39505 2.039889,-46.24595 8.638414,-71.99164 13.003106,-50.73465 37.803866,-93.9512 75.61428,-131.76162 24.28223,-24.28223 45.42141,-39.553429 75.79564,-54.755678 26.98374,-13.50532 56.60532,-22.752708 87.39511,-27.283368 20.60005,-3.031259 60.86075,-3.045085 80.56251,-0.02767 109.45231,16.763147 197.63795,90.002316 233.00697,193.514916 16.42336,48.06535 19.23333,107.97333 7.40768,157.93006 -7.38888,31.21385 -22.62736,66.58947 -39.84553,92.5 -46.63463,70.17753 -120.97531,116.75235 -203.44565,127.45976 -18.17536,2.35976 -57.7354,2.33985 -75.2073,-0.0379 z M 249.69531,362.1875 249.375,266.875 l -30,0 -30,0 -0.32031,95.3125 -0.3203,95.3125 30.64061,0 30.64061,0 -0.3203,-95.3125 z M 351.25,396.25 c 0.62084,-60.22184 0.64405,-60.66068 3.48936,-65.98936 3.6744,-6.88139 10.86836,-14.05944 17.17709,-17.1391 3.25483,-1.58888 8.39449,-2.5766 14.95855,-2.8747 9.05737,-0.41134 10.64805,-0.116 16.875,3.13293 8.75944,4.57031 14.07684,12.19244 16.7718,24.04123 1.64453,7.23044 1.9782,18.09128 1.9782,64.38826 l 0,55.69074 30.6962,0 30.69619,0 -0.47826,-65.3125 c -0.53592,-73.18551 -0.60283,-73.82393 -9.74446,-92.98184 -6.44633,-13.50943 -16.35236,-23.66722 -28.87882,-29.61276 -11.49808,-5.45743 -19.32962,-7.0929 -33.96475,-7.0929 -19.53005,0 -33.45387,5.13533 -45.10345,16.63487 -3.61612,3.56958 -7.39369,7.71763 -8.39456,9.21792 -1.00089,1.50027 -2.63728,2.90652 -3.63644,3.125 -1.46306,0.3199 -1.9383,-2.03579 -2.44165,-12.10279 l -0.625,-12.5 -30.3125,-0.33473 -30.3125,-0.33472 0,95.66945 0,95.66945 30.3125,-0.33472 30.3125,-0.33473 0.625,-60.625 z M 235.62956,232.62676 c 8.11545,-3.58985 11.55609,-6.88356 15.14866,-14.50176 8.23578,-17.46434 -0.76113,-38.3989 -18.8176,-43.7859 -22.83408,-6.81239 -44.70717,5.73026 -46.6112,26.72816 -1.4694,16.20477 8.21248,30.05032 23.81555,34.05739 6.66384,1.71136 19.73874,0.47728 26.46459,-2.49789 z"
       id="path3488"
       inkscape:connector-curvature="0" />
    <path
       style="fill:#d9d9d9"
       d="M 291.25,611.09992 C 247.68505,606.10103 201.20652,588.84641 164.39318,564.0058 94.570414,516.89136 50.138341,444.8362 38.595112,360 36.184382,342.2825 36.554824,302.58014 39.30073,284.375 55.120526,179.49096 123.24787,94.10988 221.89415,55.538479 253.81575,43.056906 286.81622,37.053439 323.75,37.008801 c 35.32565,-0.04269 61.68432,4.168289 93.49756,14.936884 72.73059,24.618877 131.97639,76.742015 165.83171,145.895055 19.78475,40.41242 27.74698,72.7326 29.01699,117.7854 1.0878,38.58895 -2.84967,66.68428 -14.08486,100.50086 -34.69569,104.42982 -126.85579,179.98253 -237.1873,194.44571 -15.93795,2.08929 -53.48141,2.37378 -69.5741,0.52721 z M 249.69531,362.1875 249.375,266.875 l -30.3125,-0.33473 -30.3125,-0.33472 0,95.64722 0,95.64723 30.63281,0 30.6328,0 -0.3203,-95.3125 z m 101.82206,34.375 c 0.40149,-68.41089 -0.23515,-63.70599 10.15115,-75.01985 7.32555,-7.97979 15.45789,-11.51511 26.52355,-11.53044 15.70014,-0.0217 25.36323,7.10794 31.32553,23.11279 2.12696,5.7095 2.36243,11.35774 2.7228,65.3125 l 0.39448,59.0625 30.62818,0 30.62819,0 -0.43605,-65.9375 c -0.41804,-63.21557 -0.54851,-66.34001 -3.16063,-75.6881 -9.67926,-34.63976 -33.81817,-53.52586 -68.57823,-53.65514 -21.61237,-0.0804 -36.67619,6.13503 -49.63818,20.48092 -4.23673,4.68906 -8.38591,8.53103 -9.2204,8.5377 -1.06249,0.009 -1.62446,-3.64067 -1.875,-12.17538 l -0.35776,-12.1875 -30.29693,-0.33469 -30.29691,-0.33469 -0.32809,94.70969 c -0.18043,52.09033 -0.15425,95.13157 0.0582,95.64719 0.21245,0.51562 14.11402,0.9375 30.89237,0.9375 l 30.50611,0 0.35762,-60.9375 z M 236.875,232.20339 c 11.29274,-5.79259 16.80909,-14.91098 16.83534,-27.82839 0.0406,-19.9583 -15.57429,-33.15803 -37.36664,-31.58719 -18.88956,1.3616 -31.23396,13.8456 -31.23396,31.58719 0,14.91506 8.31468,25.74075 23.64026,30.7795 6.28415,2.06611 21.44517,0.47529 28.125,-2.95111 z"
       id="path3486"
       inkscape:connector-curvature="0" />
    <path
       style="fill:#d3d3d3"
       d="M 291.875,611.0442 C 174.31085,597.7734 74.94139,510.89708 45.682608,395.80411 39.269997,370.57934 37.105201,352.92839 37.075513,325.625 37.037577,290.73877 41.159089,264.93835 51.951844,232.5 86.497156,128.67174 178.89934,53.418119 290,38.630285 c 17.56812,-2.33837 56.24727,-1.988168 74.375,0.673392 61.78484,9.071418 116.49722,35.92555 160.4365,78.746043 25.5311,24.88102 42.98464,48.81636 58.39055,80.07528 36.11305,73.2742 39.22131,159.42001 8.47913,235 -39.78457,97.8108 -130.89181,166.63677 -235.69442,178.0528 -14.25407,1.55267 -49.82999,1.47854 -64.11176,-0.1336 z m -42.17974,-248.8567 0.32026,-95.9375 -30.63276,0 -30.63276,0 0,95.41666 c 0,52.47918 0.38494,95.80161 0.85541,96.27209 0.47048,0.47047 14.1111,0.70485 30.3125,0.52082 L 249.375,458.125 249.69526,362.1875 Z M 351.25,397.5 c 0.70075,-67.9722 0.29505,-64.9516 10.16099,-75.65488 2.9434,-3.19321 7.62692,-6.96771 10.40782,-8.38777 6.25821,-3.19575 19.3283,-4.27071 26.929,-2.21479 7.69856,2.08239 16.23544,10.84174 20.1084,20.63244 2.93819,7.42761 2.97311,8.0731 3.6178,66.875 l 0.65099,59.375 30,0 30,0 0,-65 c 0,-73.38409 -0.18302,-75.21376 -9.43796,-94.3518 C 462.1814,274.981 440.13616,262.04589 411.25,262.13806 c -21.97945,0.0701 -33.41306,4.69147 -47.75467,19.30182 -5.29632,5.39557 -10.19783,9.81012 -10.89224,9.81012 -0.73929,0 -1.41084,-5.05113 -1.62033,-12.1875 l -0.35776,-12.1875 -30.2251,0 -30.2251,0 -0.23367,95 c -0.12852,52.25 -0.16784,95.43187 -0.0874,95.95973 0.0805,0.52784 13.7869,0.8091 30.45878,0.625 L 350.625,458.125 351.25,397.5 Z M 232.01522,234.40316 c 12.99259,-3.85838 21.73478,-15.40829 21.73478,-28.71529 0,-10.0218 -2.10246,-16.13427 -7.76055,-22.5622 -8.45815,-9.60896 -24.43786,-13.19077 -39.20008,-8.78657 -28.66031,8.55059 -29.04323,51.13955 -0.53937,59.99018 7.46471,2.31783 18.10625,2.34836 25.76522,0.0739 z"
       id="path3484"
       inkscape:connector-curvature="0" />
    <path
       style="fill:#cdcdcd"
       d="M 290,610.60151 C 167.06377,595.35877 68.311286,504.26981 42.707756,382.5 36.336804,352.1999 35.250195,314.09615 39.871656,283.04748 55.296501,179.41769 124.25951,93.668635 222.95579,55.399465 271.19592,36.694504 331.19952,31.92123 382.5,42.707756 c 78.6854,16.544528 145.49641,63.487054 187.88265,132.009484 58.21756,94.11565 55.95293,216.66897 -5.71052,309.03276 -31.17432,46.69505 -75.67818,83.87831 -126.20928,105.44867 -26.19428,11.18163 -55.77166,18.94749 -83.72609,21.98318 -16.03041,1.74083 -48.35312,1.45106 -64.73676,-0.58034 z m -40.30474,-248.41401 0.32026,-95.9375 -30.63276,0 -30.63276,0 0,95.41666 c 0,52.47918 0.38494,95.80161 0.85541,96.27209 0.47048,0.47047 14.1111,0.70485 30.3125,0.52082 L 249.375,458.125 249.69526,362.1875 Z M 351.25,397.5 l 0.625,-60.625 3.70787,-6.69426 C 362.64036,317.43903 374.54948,310 387.89015,310 c 16.06142,0 26.63426,8.41507 32.19567,25.625 1.18058,3.6533 1.80746,20.82372 2.32747,63.75 l 0.71171,58.75 30,0 30,0 0.34222,-61.25 c 0.21339,-38.19388 -0.15147,-64.54374 -0.96931,-70 C 477.41979,292.9957 458.80209,270.56991 430,263.63907 c -3.78125,-0.9099 -12.5,-1.65035 -19.375,-1.64543 -21.45274,0.0154 -34.38698,5.42967 -48.13294,20.14871 -4.67805,5.0092 -9.10089,9.10765 -9.82853,9.10765 -0.81574,0 -1.46017,-4.6729 -1.68077,-12.1875 l -0.35776,-12.1875 -30.26116,0 -30.26117,0 -0.60262,95.17787 c -0.33145,52.34784 -0.25103,95.52948 0.1787,95.9592 0.42972,0.42974 14.31842,0.63094 30.86379,0.44713 L 350.625,458.125 351.25,397.5 Z M 234.06657,233.75804 c 12.51567,-4.6827 19.98774,-15.66705 19.98774,-29.38304 0,-18.38611 -12.08982,-30.43635 -31.7126,-31.60876 -12.90718,-0.77118 -20.90272,1.91738 -28.55335,9.60128 -11.62103,11.67157 -12.07197,30.70998 -1.02466,43.26038 8.89169,10.10149 26.67699,13.60239 41.30287,8.13014 z"
       id="path3482"
       inkscape:connector-curvature="0" />
    <path
       style="fill:#c9c9c9"
       d="M 290.32222,610.52946 C 161.40467,594.91165 59.167589,494.93896 39.870662,365.625 c -2.806,-18.80378 -3.377573,-55.64657 -1.144146,-73.75 8.27293,-67.05764 37.30242,-125.95201 85.146534,-172.74336 46.18328,-45.167049 103.07454,-72.395001 168.00195,-80.405124 18.10343,-2.233427 54.94622,-1.661854 73.75,1.144147 60.4117,9.01496 114.96119,35.705233 158.59781,77.599617 C 631.50032,220.46459 642.2168,388.44935 548.94504,505 487.43564,581.86099 388.1368,622.37927 290.32222,610.52946 Z M 250,362.5 l 0,-96.25 -30.625,0 -30.625,0 0,96.25 0,96.25 30.625,0 30.625,0 0,-96.25 z m 101.25,35 0.625,-60.625 3.70787,-6.69426 c 12.76835,-23.0522 43.07813,-27.21744 57.76422,-7.93808 8.19322,10.75576 8.33343,11.98194 8.85576,77.44484 l 0.47126,59.0625 30.53794,0 30.53795,0 -0.0164,-63.4375 c -0.0149,-57.4446 -0.2411,-64.52626 -2.39476,-74.96256 -6.47859,-31.394 -26.32502,-52.21669 -54.56479,-57.24879 -12.70116,-2.26325 -20.28232,-2.25413 -31.14902,0.0375 -15.64826,3.29999 -27.5171,10.75046 -37.63143,23.62252 -5.47805,6.97162 -6.74362,5.33292 -6.74362,-8.73178 l 0,-11.82307 -30.86384,0.33434 -30.86384,0.33434 -0.4122,94.34316 c -0.2267,51.88875 -0.13303,95.07065 0.20817,95.9598 0.48875,1.27367 7.05762,1.5456 30.96354,1.28183 L 350.625,458.125 351.25,397.5 Z m -115,-164.28703 c 13.54431,-6.94352 20.45672,-20.84552 17.48427,-35.16373 -2.1447,-10.33097 -7.51993,-17.29477 -16.92246,-21.92362 -7.53117,-3.70758 -8.62599,-3.90265 -18.9647,-3.37907 -15.76707,0.79847 -26.00441,7.01725 -30.90876,18.7758 -2.40553,5.76745 -2.52671,19.64981 -0.21973,25.17121 3.44443,8.24364 11.54668,15.44351 20.77329,18.45966 5.45288,1.78254 23.92768,0.53608 28.75809,-1.94025 z"
       id="path3480"
       inkscape:connector-curvature="0" />
    <path
       style="fill:#c3c3c3"
       d="M 295,611.17454 C 189.11951,599.55073 98.41166,531.30581 58.345144,433.125 43.793639,397.46734 37.5,364.57247 37.5,324.17403 c 0,-46.01859 9.048912,-84.90738 29.32996,-126.04903 15.777447,-32.00575 32.7492,-55.25385 58.63033,-80.31249 37.42138,-36.232144 83.0623,-61.189482 133.91471,-73.227156 38.92355,-9.2139 87.35324,-9.568506 126.79545,-0.928409 C 476.16366,63.3706 552.63244,126.32927 588.71235,210.4148 622.9248,290.14815 619.9446,379.27208 580.4865,456.41214 538.91624,537.68141 458.43516,595.48658 367.5,609.38871 c -15.65656,2.39358 -57.56176,3.42579 -72.5,1.78583 z M 250,362.5 l 0,-96.25 -30.625,0 -30.625,0 0,96.25 0,96.25 30.625,0 30.625,0 0,-96.25 z m 101.25,35 c 0.61793,-59.93859 0.65692,-60.68475 3.44517,-65.90275 4.20361,-7.86671 9.35789,-13.17704 16.78127,-17.28925 5.82133,-3.22476 7.89277,-3.68031 16.64856,-3.66136 7.87535,0.017 11.10304,0.60689 15.19159,2.77622 7.15866,3.79828 12.51029,10.71591 15.72552,20.32714 2.60574,7.78926 2.73697,10.53969 3.17578,66.5625 l 0.45772,58.4375 30.59714,0 30.59714,0 -0.42241,-67.8125 c -0.41369,-66.40999 -0.4814,-68.00621 -3.27348,-77.1786 -9.71826,-31.92598 -31.19359,-49.5932 -63.2809,-52.05963 -24.51844,-1.88463 -45.64756,7.20494 -59.63595,25.65492 -4.73619,6.24677 -6.00715,4.27848 -6.00715,-9.30297 l 0,-11.80122 -31.25,0 -31.25,0 0,95.41666 c 0,52.47918 0.38476,95.80144 0.85504,96.2717 0.47026,0.47028 14.39214,0.70465 30.9375,0.52084 L 350.625,458.125 351.25,397.5 Z M 236.89139,232.85705 c 16.15545,-8.39183 22.08677,-26.60857 14.01524,-43.04474 -5.92077,-12.05654 -15.65892,-17.32104 -32.00129,-17.3001 -7.41293,0.01 -10.91894,0.66979 -15.78034,2.97193 C 190.84631,181.29876 185,190.61766 185,204.375 c 0,13.72951 5.78549,22.97514 18.125,28.96506 5.5054,2.67248 7.59029,2.97964 17.5,2.57831 8.29616,-0.33597 12.56712,-1.13977 16.26639,-3.06132 z"
       id="path3478"
       inkscape:connector-curvature="0" />
    <path
       style="fill:#bcbcbc"
       d="M 302.5,611.72942 C 287.63886,610.36767 267.93993,606.9442 253.16956,603.1563 154.96961,577.97264 76.135071,501.45375 48.37266,404.375 29.245447,337.49155 35.253444,263.74454 64.869862,201.875 80.089959,170.07979 96.184138,147.4563 121.82022,121.82022 147.4563,96.184138 170.07979,80.089959 201.875,64.869862 256.04217,38.9405 321.5145,30.801802 380.625,42.649906 489.22661,64.418002 575.73927,146.26094 603.1563,253.16956 c 6.94901,27.09661 8.64666,41.4098 8.59381,72.45544 -0.0382,22.49574 -0.54927,30.44374 -2.80794,43.67675 -10.46966,61.33936 -35.6384,111.54209 -77.63357,154.85148 -24.88867,25.66755 -48.93993,43.33568 -79.4336,58.35223 -39.4328,19.41859 -76.63431,28.4538 -120.625,29.29644 -12.71875,0.24362 -25.65625,0.21101 -28.75,-0.0725 z M 250,362.47816 l 0,-96.27184 -30.9375,0.33434 -30.9375,0.33434 -0.3232,94.375 c -0.17776,51.90625 -0.0547,95.07812 0.27326,95.9375 0.45479,1.19132 7.88078,1.5625 31.26071,1.5625 l 30.66423,0 0,-96.27184 z m 101.25,38.37371 c 0,-64.28401 0.105,-65.26863 8.12108,-76.13303 13.70881,-18.57997 43.49328,-19.20287 54.89085,-1.14797 7.11202,11.26618 7.33207,13.3959 7.93125,76.76319 l 0.55277,58.45908 30.81453,-0.33408 L 484.375,458.125 484.7263,405 c 0.48384,-73.16701 -0.86672,-86.40384 -10.90454,-106.875 -11.42029,-23.29059 -34.63979,-36.82429 -63.19676,-36.83483 -22.09803,-0.009 -39.47451,8.52435 -54.11733,26.57364 -1.5567,1.91884 -3.37651,3.15126 -4.04402,2.73873 -0.6675,-0.41255 -1.21365,-6.06064 -1.21365,-12.55132 l 0,-11.80122 -31.25,0 -31.25,0 0,95.41666 c 0,52.47918 0.375,95.79168 0.83334,96.25 0.45832,0.45834 14.52082,0.83334 31.25,0.83334 l 30.41666,0 0,-57.89812 z M 236.75425,233.17814 c 11.56245,-5.67543 17.56995,-15.5334 17.55279,-28.80314 -0.0257,-19.91649 -13.48607,-32.28579 -35.05808,-32.21646 -13.2047,0.0424 -23.16965,4.83216 -29.42224,14.14206 -11.63157,17.31899 -3.87163,41.12589 15.79828,48.46791 5.97525,2.23034 25.36339,1.23981 31.12925,-1.59037 z"
       id="path3476"
       inkscape:connector-curvature="0" />
    <path
       style="fill:#b3b3b3"
       d="M 304.375,611.72645 C 202.22106,603.44701 113.03077,543.65662 67.78659,453.125 48.659077,414.85167 39.23391,377.44715 37.864042,334.375 35.919508,273.2338 51.355047,217.76036 84.297176,167.5 163.87346,46.089106 321.01806,2.9181805 450.8457,66.801411 537.22791,109.30681 595.00029,188.74177 609.53965,285 c 2.67071,17.68151 3.01009,57.75757 0.63512,75 -9.1073,66.11966 -36.34117,121.42475 -82.54559,167.62918 -45.29948,45.29948 -99.83029,72.63291 -163.25418,81.83074 -12.67185,1.83769 -48.56288,3.19349 -60,2.26653 z M 250.625,362.5 l 0,-95.625 -31.25,0 -31.25,0 -0.3232,94.375 c -0.17776,51.90625 -0.051,95.08799 0.28167,95.9594 0.47069,1.23292 7.47492,1.51022 31.5732,1.25 l 30.96833,-0.3344 0,-95.625 z m 100.88143,35.9375 0.36857,-60.3125 3.43739,-6.52071 c 8.50941,-16.14238 23.63141,-23.81729 40.16477,-20.38498 9.95533,2.06671 15.98169,6.98465 20.96959,17.11268 l 4.17825,8.48399 0.625,60.65451 0.625,60.65451 31.25,0 31.25,0 0,-63.125 c 0,-56.32796 -0.24479,-64.26085 -2.27344,-73.67381 -8.46685,-39.28656 -33.10315,-59.9715 -71.52643,-60.05449 -19.90924,-0.043 -34.28142,5.86321 -47.76036,19.62698 -4.98312,5.08842 -9.62375,8.9034 -10.3125,8.47772 -0.68874,-0.42566 -1.25227,-5.80325 -1.25227,-11.95018 l 0,-11.17622 -31.25,0 -31.25,0 0,96.25 0,96.25 31.19392,0 31.19394,0 0.36856,-60.3125 z M 232.75994,234.9051 c 11.07901,-2.92372 20.76086,-14.95055 21.94347,-27.25822 0.76308,-7.9415 -2.34355,-18.28599 -7.28137,-24.24566 -14.04704,-16.95392 -47.28738,-14.99897 -58.07914,3.41579 -6.88614,11.7503 -6.94434,23.33198 -0.17399,34.62148 8.1839,13.64656 24.18155,18.58874 43.59103,13.46661 z"
       id="path3474"
       inkscape:connector-curvature="0" />
    <path
       style="fill:#ababab"
       d="M 301.875,611.25475 C 199.48922,602.61465 110.03887,540.99474 65.639661,448.51867 34.392335,383.43578 28.969692,307.2739 50.707814,238.79854 72.481021,170.21264 117.09186,114.05069 178.9468,77.354545 277.80165,18.707781 403.60208,25.431656 496.06251,94.303982 557.88486,140.35447 598.007,208.05807 609.44211,285.625 c 2.94975,20.00879 2.98079,56.91818 0.0651,77.5 -8.61135,60.78895 -34.91237,115.5043 -76.59274,159.33987 -44.83636,47.15476 -105.05378,78.15968 -168.53954,86.77815 -17.81457,2.4184 -46.67336,3.3473 -62.5,2.01173 z M 250.9454,363.2626 c 0.23319,-69.04156 -0.0636,-95.32515 -1.09055,-96.5625 C 248.74069,265.35761 242.45001,265 219.94917,265 c -15.67208,0 -29.38446,0.34143 -30.47193,0.75874 -1.77905,0.68268 -1.97724,10.30921 -1.97724,96.04166 0,52.40561 0.3846,95.66754 0.85467,96.1376 0.47007,0.47007 14.67319,0.70445 31.5625,0.52084 l 30.70783,-0.33384 0.3204,-94.8624 z m 100.55026,35.7999 c 0.37904,-59.64115 0.38163,-59.69256 3.32629,-66.2047 3.35016,-7.40894 12.92111,-17.02604 19.892,-19.98792 2.74494,-1.16631 8.28814,-1.99198 13.48411,-2.00851 14.72998,-0.0469 24.33975,6.84682 30.16444,21.63863 1.97525,5.01614 2.28522,12.11952 2.86375,65.625 l 0.64875,60 31.25,0 31.25,0 0.3665,-56.875 c 0.38637,-59.95836 -0.44534,-75.07951 -4.94179,-89.84636 -5.45021,-17.89908 -17.89381,-34.16002 -31.94399,-41.74345 -9.30636,-5.02301 -23.90447,-8.41019 -36.24642,-8.41019 -21.7093,0 -36.2255,6.05584 -50.0446,20.87749 -4.9859,5.34761 -8.24393,7.94329 -9.00941,7.1778 -0.65952,-0.65951 -1.36363,-6.25738 -1.5647,-12.4397 L 350.625,265.625 l -30.625,0 -30.625,0 -0.32021,96.5625 -0.32022,96.5625 31.19088,0 31.19086,0 0.37935,-59.6875 z M 237.4463,232.82635 c 12.16368,-6.2007 18.4534,-17.7764 17.20636,-31.66684 -1.63621,-18.22546 -14.99945,-29.27014 -35.39902,-29.2572 -8.77357,0.005 -11.0968,0.50528 -17.44632,3.75254 -9.14965,4.67931 -14.80956,11.80494 -16.94066,21.32772 -2.948,13.17307 2.20334,26.88855 12.71053,33.84188 11.39506,7.5409 27.4246,8.34576 39.86911,2.0019 z"
       id="path3472"
       inkscape:connector-curvature="0" />
    <path
       style="fill:#a4a4a4"
       d="M 305.59086,611.1483 C 237.86928,606.92564 174.93769,578.86068 125.24479,530.72119 79.724839,486.62419 51.913754,433.32492 41.055782,369.375 37.380041,347.72607 37.062893,305.44508 40.414825,283.92524 51.981959,209.66274 88.324728,146.6587 146.875,99.365284 c 19.57245,-15.809464 52.53136,-34.417065 77.5,-43.75415 15.58611,-5.828469 40.9318,-12.2963 59.55024,-15.196309 21.51983,-3.351933 63.80083,-3.034784 85.44976,0.640957 63.94992,10.857972 117.24919,38.669057 161.34619,84.189008 56.6582,58.48651 85.23116,135.18008 80.47491,216.00521 -2.34581,39.86329 -11.24615,73.84993 -28.68384,109.53145 -28.09496,57.48879 -73.52368,103.00809 -131.38105,131.643 -44.29192,21.92108 -94.79359,31.88809 -145.54035,28.72385 z M 250.625,361.875 l 0,-96.25 -31.25,0 -31.25,0 -0.32021,96.58397 -0.32023,96.58399 31.57023,-0.33399 31.57021,-0.33397 0,-96.25 z m 100.85119,37.1875 c 0.38681,-57.89243 0.47916,-59.86128 3.07047,-65.4655 3.775,-8.16421 11.27403,-15.99729 18.57834,-19.40594 7.54499,-3.52096 20.67591,-3.99477 27.85265,-1.00502 6.8402,2.84953 13.66067,10.14964 16.82954,18.013 2.71781,6.7441 2.80786,8.50143 3.42946,66.92596 l 0.63835,60 31.64212,0.33412 31.64214,0.33414 -0.45545,-65.95914 C 484.26656,329.51138 484.13851,326.4753 481.50011,316.875 474.97486,293.13164 462.67015,276.80092 445,268.43241 433.28411,262.8838 425.51049,261.25 410.8261,261.25 c -21.26276,0 -35.75572,6.02636 -49.06536,20.402 -4.43562,4.79086 -8.47446,8.30356 -8.97524,7.80599 -0.50077,-0.49758 -1.19175,-6.06355 -1.5355,-12.36884 l -0.625,-11.46415 -30.625,0 -30.625,0 -0.32021,96.5625 -0.32022,96.5625 31.1714,0 31.1714,0 0.39882,-59.6875 z M 235.92705,233.78061 c 21.25051,-9.17696 25.76499,-38.40837 8.3,-53.74284 -7.17921,-6.30342 -12.26408,-7.9998 -24.22705,-8.08243 -11.41838,-0.0789 -19.8641,2.65136 -26.04089,8.41822 -12.18764,11.3788 -13.36857,31.92445 -2.5868,45.00461 9.48499,11.50694 28.89119,15.16669 44.55474,8.40244 z"
       id="path3470"
       inkscape:connector-curvature="0" />
    <path
       style="fill:#9a9a9a"
       d="M 286.25,609.2877 C 233.51287,601.88264 181.57981,578.95194 141.25,545.26392 28.645139,451.20361 4.6951287,287.38038 85.801694,165.98554 177.67675,28.473135 365.07688,-3.6708988 497.07853,95.440777 c 52.96792,39.770263 90.70996,97.204593 106.67451,162.333063 6.04125,24.64573 7.88083,43.80877 7.16385,74.6265 -0.66639,28.64295 -2.14715,39.90321 -8.51824,64.77571 -12.48685,48.74817 -42.34295,100.07015 -77.72806,133.61284 -43.37,41.11181 -93.7349,66.51062 -153.42059,77.36937 -16.5881,3.01791 -66.79921,3.68509 -85,1.12944 z M 250.94521,362.1875 250.625,265.625 l -31.25,0 -31.25,0 -0.32021,96.5625 -0.32022,96.5625 31.89043,0 31.89042,0 -0.32021,-96.5625 z M 352.5,396.875 c 0.69631,-68.23854 0.13895,-63.97501 9.75821,-74.64583 6.68469,-7.41543 15.06198,-10.95833 25.86679,-10.93951 10.82316,0.0189 17.26769,2.72602 23.31901,9.79563 8.98426,10.49607 9.06744,11.1768 9.52808,77.97721 l 0.4116,59.6875 31.88709,0 31.88708,0 -0.45402,-66.5625 c -0.43198,-63.32965 -0.58333,-67.02606 -3.11624,-76.10706 -7.83938,-28.10574 -25.17185,-46.43434 -49.99299,-52.86614 -9.42342,-2.44186 -31.10201,-2.56505 -39.88412,-0.22664 -11.01464,2.93285 -21.28753,9.30834 -29.78187,18.483 -4.34327,4.69114 -8.2415,8.52934 -8.66273,8.52934 -0.42124,0 -0.7745,-4.92188 -0.78503,-10.9375 -0.01,-6.01563 -0.47192,-11.65085 -1.02532,-12.52274 -0.77749,-1.22492 -7.94682,-1.50904 -31.54337,-1.25 l -30.53717,0.33524 -0.32021,96.58397 -0.32023,96.58399 31.57023,-0.33399 31.57021,-0.33397 0.625,-61.25 z M 236.62204,233.73765 c 7.18512,-3.3774 14.91011,-11.82805 16.90793,-18.4962 1.90043,-6.34305 1.87289,-15.47719 -0.0662,-21.97143 -2.34942,-7.86837 -12.44444,-17.55201 -20.87811,-20.02732 -18.63694,-5.47 -37.58244,1.18481 -45.4196,15.95411 -3.91222,7.37266 -3.91222,22.98371 0,30.35638 3.57048,6.72865 11.35878,13.31906 18.79103,15.90086 8.16218,2.83536 22.71436,2.02084 30.66498,-1.7164 z"
       id="path3468"
       inkscape:connector-curvature="0" />
    <path
       style="fill:#939393"
       d="M 291.875,609.87119 C 173.61534,595.61144 76.051123,510.34532 46.932608,395.80411 40.545449,370.67946 38.365239,352.93358 38.310594,325.625 38.240946,290.8191 42.452495,264.56916 53.251604,232.5 73.989311,170.91704 116.74525,117.07104 173.75,80.746637 c 23.52643,-14.991442 60.96352,-30.062651 90,-36.231673 23.0565,-4.898531 36.58407,-6.254978 61.875,-6.20437 27.30858,0.05465 45.05446,2.234855 70.17911,8.622013 116.2721,29.558539 201.91049,129.131153 214.31226,249.183003 1.84719,17.88119 0.80064,57.69758 -1.942,73.88439 -14.52027,85.69717 -63.1716,156.95016 -137.73602,201.72321 -29.60283,17.77534 -63.77291,30.18511 -100.43835,36.47683 -14.20446,2.43745 -63.09646,3.48328 -78.125,1.67115 z M 249.69531,458.96476 c 1.24276,-0.789 1.5035,-21.05811 1.25,-97.16836 l -0.32031,-96.1714 -31.25,0 -31.25,0 -0.32031,96.1714 c -0.2535,76.11025 0.007,96.37936 1.25,97.16836 0.86367,0.54833 14.50781,0.99695 30.32031,0.99695 15.8125,0 29.45664,-0.44862 30.32031,-0.99695 z M 351,458.5 c 1.1238,-1.1238 1.50306,-16.25003 1.51221,-60.3125 l 0.0125,-58.8125 2.91883,-6.25 c 6.2979,-13.48553 15.72237,-20.50476 28.95738,-21.56714 16.23572,-1.30325 27.37297,5.50795 33.22135,20.31714 2.94552,7.4586 2.96414,7.8276 3.37354,66.84981 0.30559,44.054 0.79411,59.59298 1.89558,60.29335 2.02685,1.2888 58.5758,1.20239 60.61767,-0.0926 1.32049,-0.83749 1.55004,-13.71759 1.19708,-67.16837 -0.4194,-63.51418 -0.54508,-66.52022 -3.17453,-75.93461 -4.41751,-15.81523 -9.73961,-25.37506 -19.61051,-35.22481 -13.86641,-13.8367 -29.03339,-19.74758 -50.6711,-19.74758 -23.02861,0 -40.87488,8.00953 -52.54239,23.5814 -2.29473,3.06264 -4.60983,5.56843 -5.14466,5.56843 -0.53484,0 -1.13341,-5.48438 -1.33019,-12.1875 L 351.875,265.625 320.3125,265.29104 c -24.83925,-0.26283 -31.55276,0.004 -31.51681,1.25 0.0251,0.87117 -0.0971,44.05271 -0.27165,95.95896 -0.17455,51.90625 0.11937,95.07812 0.65307,95.9375 1.36273,2.19415 59.63234,2.25305 61.82289,0.0625 z M 232.42744,235.53075 c 8.35753,-2.48192 17.85935,-11.05003 20.80351,-18.75923 2.56644,-6.7201 1.96142,-21.64458 -1.1179,-27.57637 -5.39821,-10.39879 -15.95369,-16.81049 -29.08728,-17.66845 -13.311,-0.86956 -21.70743,1.9819 -29.7948,10.11844 -7.19063,7.23437 -9.48793,12.93587 -9.46876,23.49988 0.0417,23.03465 23.69259,37.8018 48.66523,30.38573 z"
       id="path3466"
       inkscape:connector-curvature="0" />
    <path
       style="fill:#8b8b8b"
       d="M 290,609.35151 C 175.39492,595.14175 81.157947,514.53371 48.852709,403.07994 41.57511,377.97208 38.357539,353.45706 38.440726,323.75 38.658189,246.09268 67.235976,177.54929 122.39263,122.39263 177.54929,67.235976 246.09268,38.658189 323.75,38.440726 c 47.85231,-0.134 88.78382,9.488373 130.625,30.707931 C 551.12876,118.21689 611.25,216.27011 611.25,325 611.25,471.53431 500.95034,594.05386 354.73676,609.93185 338.70635,611.67268 306.38364,611.38291 290,609.35151 Z M 250.625,362.5 l 0,-96.875 -31.25,0 -31.25,0 -0.32315,95.625 c -0.17773,52.59375 -0.051,96.33799 0.28167,97.2094 0.47065,1.23292 7.47484,1.51022 31.57315,1.25 l 30.96833,-0.3344 0,-96.875 z M 351,458.5 c 1.12424,-1.12424 1.5,-16.26119 1.5,-60.42535 l 0,-58.92535 3.83542,-7.67536 c 6.96588,-13.93994 18.95943,-20.97397 34.11658,-20.00884 9.64751,0.61431 16.44016,4.02187 21.70345,10.88764 8.10241,10.5693 8.26532,11.97031 9.02909,77.64726 l 0.69046,59.375 31.25,0 31.25,0 0.34216,-61.875 c 0.36329,-65.69571 -0.0629,-72.65154 -5.4526,-88.99035 -7.73827,-23.45855 -25.95317,-40.511 -49.26456,-46.12057 -11.08345,-2.66708 -30.30716,-2.1575 -40.77505,1.08086 -11.12713,3.44231 -23.09573,11.3338 -29.04333,19.1497 -2.50613,3.29339 -5.23863,6.02002 -6.07221,6.05917 -1.05886,0.0498 -1.62391,-3.41326 -1.875,-11.49131 L 351.875,265.625 320.3125,265.29104 c -24.83553,-0.26279 -31.55469,0.004 -31.52585,1.25 0.0201,0.87117 -0.21058,44.13135 -0.51274,96.13372 -0.39679,68.28834 -0.16394,94.93522 0.83835,95.9375 2.02725,2.02725 59.85311,1.92236 61.88774,-0.11225 z M 234.16662,234.97061 c 29.53924,-11.05205 27.68562,-53.9919 -2.69498,-62.42997 -14.3019,-3.97229 -30.50286,0.10887 -39.30777,9.9021 -11.53202,12.82637 -11.53067,31.03964 0.004,43.86812 9.65693,10.74083 26.92253,14.30076 41.99952,8.65975 z"
       id="path3464"
       inkscape:connector-curvature="0" />
    <path
       style="fill:#848484"
       d="M 290.32222,609.27946 C 172.68992,595.02881 75.968187,509.73321 46.74014,394.47272 41.10095,372.23465 38.694619,351.72617 38.661993,325.625 38.601835,277.50026 47.81333,237.97119 68.862697,196.02542 107.59202,118.84825 179.39825,63.222794 264.375,44.569754 c 40.00511,-8.781423 90.21244,-7.943828 130.09772,2.170386 74.23503,18.824705 137.30152,65.78007 176.46505,131.38486 54.04532,90.53399 53.6286,204.6626 -1.07798,295.23212 -22.22802,36.7996 -59.70307,74.27465 -96.50267,96.50267 -54.27993,32.78664 -120.34326,47.01448 -183.0349,39.41967 z M 250.94516,362.1875 251.26532,265 l -31.88266,0 -31.88266,0 0,96.66666 c 0,53.16668 0.3846,97.05128 0.85467,97.52134 0.47007,0.47007 14.67319,0.70445 31.5625,0.52084 L 250.625,459.375 250.94516,362.1875 Z M 352.5,398.125 c 0.62116,-60.87394 0.64259,-61.28294 3.48936,-66.61436 3.66438,-6.86263 10.85156,-14.04435 17.17709,-17.16406 3.67726,-1.81361 7.54255,-2.44331 14.95855,-2.43692 12.07869,0.01 18.69348,2.94559 24.40407,10.82885 7.71479,10.64995 7.87332,12.06682 8.64402,77.26149 l 0.70191,59.375 31.25,0 31.25,0 0.32399,-63.50693 c 0.29987,-58.77905 0.14278,-64.39396 -2.11013,-75.42213 -7.70147,-37.6994 -34.57764,-60.24959 -71.96386,-60.38063 -18.13072,-0.0635 -35.83626,7.3095 -48.34325,20.13138 -4.5888,4.70432 -8.64581,8.55331 -9.0156,8.55331 -0.36979,0 -0.83406,-5.20313 -1.03174,-11.5625 l -0.35941,-11.5625 -31.82973,0 -31.82971,0 -0.3827,95.4669 c -0.28427,70.91849 -0.0112,95.91486 1.0631,97.20896 1.17869,1.42025 7.12938,1.68038 32.21242,1.4081 L 351.875,459.375 352.5,398.125 Z M 231.47164,236.20936 c 19.89426,-5.52554 29.74129,-27.86025 20.55828,-46.62962 -6.54118,-13.36969 -17.50125,-19.02992 -34.98878,-18.06964 -15.10147,0.82926 -25.59899,7.3027 -30.95229,19.08716 -3.0867,6.79488 -3.0867,20.7606 0,27.55548 3.76187,8.2812 12.0744,15.34168 21.40306,18.17933 4.64104,1.41174 18.71434,1.33973 23.97973,-0.12275 z"
       id="path3462"
       inkscape:connector-curvature="0" />
    <path
       style="fill:#7e7e7e"
       d="M 295,609.91863 C 197.05086,599.11095 110.82249,539.03661 68.150319,451.875 55.132484,425.28495 47.256389,401.13446 41.85643,371.25 38.574341,353.08626 37.891424,309.85771 40.555861,288.92417 46.908385,239.01465 65.794194,192.72339 96.723869,151.25 108.09567,136.00162 136.00162,108.09567 151.25,96.723869 192.72339,65.794194 239.01465,46.908385 288.92417,40.555861 c 20.93354,-2.664437 64.16209,-1.98152 82.32583,1.300569 61.47469,11.108141 114.01088,38.225987 156.25,80.65229 56.3018,56.5513 86.30816,132.84118 83.33131,211.86628 -0.9159,24.31401 -3.30415,40.89569 -9.08706,63.09182 -22.99907,88.27564 -87.75835,160.98382 -173.02743,194.26575 -17.12273,6.68329 -43.02386,13.6248 -61.21682,16.40614 -15.67684,2.39668 -57.58566,3.42555 -72.5,1.77992 z M 250.94516,362.1875 251.26532,265 l -31.88266,0 -31.88266,0 0,96.66666 c 0,53.16668 0.3846,97.05128 0.85467,97.52134 0.47007,0.47007 14.67319,0.70445 31.5625,0.52084 L 250.625,459.375 250.94516,362.1875 Z M 352.5,398.75 c 0.55692,-54.02231 0.86131,-61.14753 2.79477,-65.42275 3.48942,-7.71565 9.04236,-13.81451 16.17579,-17.76605 5.81263,-3.21988 7.91948,-3.6862 16.65444,-3.6862 8.66155,0 10.78377,0.46074 15.85581,3.44232 7.16075,4.20942 10.5637,8.81367 13.93911,18.85984 2.42409,7.21479 2.62934,11.38446 3.27074,66.44784 l 0.68434,58.75 31.25,0 31.25,0 0,-67.5 c 0,-66.75004 -0.032,-67.61048 -2.87895,-77.44366 -9.5566,-33.0077 -31.62391,-51.44709 -64.60295,-53.98207 -21.97578,-1.68918 -40.2799,4.89482 -54.5449,19.61983 -4.62534,4.7745 -8.71226,8.6809 -9.08205,8.6809 -0.36979,0 -0.83406,-5.20313 -1.03174,-11.5625 l -0.35941,-11.5625 -31.875,0 -31.875,0 -0.32315,95.625 c -0.17773,52.59375 -0.051,96.33781 0.28154,97.20902 0.4708,1.23334 7.59933,1.51008 32.19814,1.25 L 351.875,459.375 352.5,398.75 Z M 231.47164,236.20936 c 7.89205,-2.19199 16.11083,-8.73951 20.23061,-16.11682 9.69178,-17.3551 0.9402,-40.54982 -17.69566,-46.89969 -3.20475,-1.09198 -9.8965,-1.94285 -15.27962,-1.94285 -8.19953,0 -10.68808,0.55489 -17.29477,3.85629 -12.1751,6.08396 -17.6822,15.19967 -17.6822,29.26871 0,14.06904 5.5071,23.18475 17.6822,29.26871 6.45151,3.22387 9.1706,3.85515 16.57995,3.84932 4.87458,-0.004 10.93134,-0.58148 13.45949,-1.28367 z"
       id="path3460"
       inkscape:connector-curvature="0" />
    <path
       style="fill:#787878"
       d="M 301.875,610.48381 C 261.37154,606.21689 232.53134,598.17399 199.09074,581.81954 121.28323,543.76702 64.43859,472.39344 45.671717,389.18809 38.759659,358.54258 36.772246,320.11239 40.539762,289.95249 56.884584,159.10819 159.10819,56.884584 289.95249,40.539762 c 18.81915,-2.350851 52.39556,-2.283847 70.92098,0.141528 96.60733,12.647969 178.30679,71.2232 220.94607,158.40945 13.94007,28.50382 21.60643,52.97621 26.52085,84.65926 3.06372,19.75176 3.06104,62.44391 -0.005,82.23748 -9.70519,62.65036 -36.99132,116.66421 -81.33742,161.0103 -44.0696,44.06961 -98.61796,71.72618 -160.12277,81.18388 -12.09933,1.86054 -54.82696,3.37385 -65,2.30215 z M 250.94516,362.1875 251.26532,265 219.5164,265 c -27.79776,0 -31.84335,0.24606 -32.50766,1.97724 -0.41732,1.08747 -0.75874,44.28747 -0.75874,96 0,72.19162 0.35321,94.37597 1.52125,95.54401 1.13114,1.13114 9.38505,1.43566 32.1875,1.1875 L 250.625,459.375 250.94516,362.1875 Z M 352.5,398.75 c 0.61815,-59.96093 0.65621,-60.68836 3.47475,-66.4091 3.55782,-7.22129 10.07826,-14.022 16.90811,-17.63491 4.04529,-2.13993 7.38258,-2.77966 14.61714,-2.80202 16.3095,-0.0504 25.4132,6.80744 30.70629,23.13113 1.9466,6.00326 2.30662,14.02604 2.9433,65.5899 l 0.72541,58.75 30.46971,0.33507 c 21.4285,0.23567 30.97943,-0.088 32.1875,-1.09055 1.40789,-1.16844 1.71422,-10.92557 1.698,-54.08507 -0.0279,-74.30469 -1.30306,-86.29474 -11.36265,-106.84198 -13.94527,-28.48391 -46.39296,-43.02173 -80.08465,-35.88102 -12.89058,2.73208 -21.78007,7.69319 -32.0309,17.87605 -5.01764,4.98437 -9.3559,9.0625 -9.64058,9.0625 -0.28469,0 -0.67934,-5.20313 -0.87702,-11.5625 l -0.35941,-11.5625 -31.875,0 -31.875,0 -0.32315,95.625 c -0.17773,52.59375 -0.051,96.33781 0.28154,97.20902 0.4708,1.23334 7.59933,1.51008 32.19814,1.25 L 351.875,459.375 352.5,398.75 Z M 234.42085,235.416 c 8.93154,-3.04328 17.35392,-11.91156 20.0189,-21.07873 5.8817,-20.23236 -6.39,-39.56353 -27.18393,-42.82183 -18.16781,-2.8468 -33.63725,3.96427 -40.40061,17.78808 -8.71835,17.81968 -0.38076,39.86802 17.47329,46.20729 7.06186,2.5074 22.59896,2.45844 30.09235,-0.0949 z"
       id="path3458"
       inkscape:connector-curvature="0" />
    <path
       style="fill:#757575"
       d="M 302.5,610.47698 C 234.04809,604.2345 172.66735,576.26373 125.12305,529.64754 76.201569,481.68105 47.465891,422.40757 39.95948,353.97947 37.760114,333.93015 38.994064,296.34951 42.511705,276.25 56.287635,197.53549 102.19535,127.86656 168.75,84.672431 201.02992,63.72268 238.0801,49.19187 276.25,42.511705 c 20.09951,-3.517641 57.68015,-4.751591 77.72947,-2.552225 68.4281,7.506411 127.70158,36.242089 175.66807,85.16357 42.21737,43.0579 69.19193,97.47529 78.65308,158.67151 3.0839,19.94713 3.10495,61.39851 0.0412,81.20544 C 588.63219,492.4236 492.66379,588.79676 366.25,608.11294 c -12.70455,1.94126 -52.28938,3.40918 -63.75,2.36404 z M 251.20602,457.58217 c 1.39917,-2.61435 1.91695,-187.00426 0.53524,-190.60493 C 251.07707,265.24639 247.04381,265 219.375,265 c -27.66881,0 -31.70208,0.24639 -32.36626,1.97724 -0.99147,2.5837 -0.99147,188.46182 0,191.04552 0.66371,1.7296 4.65027,1.97724 31.83102,1.97724 29.44093,0 31.14021,-0.12694 32.36626,-2.41782 z M 352.5,398.75 c 0.61915,-60.0578 0.6518,-60.67941 3.48995,-66.44051 4.13875,-8.40115 13.51464,-16.6943 21.58261,-19.09024 8.24835,-2.4495 12.76394,-2.47699 20.68088,-0.12591 7.69421,2.28493 13.63334,7.90081 17.87982,16.90666 l 3.24174,6.875 0.625,60 c 0.34375,33 1.08007,60.70312 1.63627,61.5625 0.7643,1.18091 8.59245,1.5625 32.05377,1.5625 27.15357,0 31.13753,-0.2477 31.80122,-1.97724 1.29573,-3.3766 0.82991,-109.1251 -0.54452,-123.61924 -2.28283,-24.0735 -11.94719,-46.0512 -25.33173,-57.6068 -16.74681,-14.45843 -44.37517,-20.27245 -67.82962,-14.2738 -12.57433,3.21597 -21.46153,8.57927 -30.51368,18.41458 -3.95472,4.29687 -7.52508,7.8125 -7.93415,7.8125 -0.40906,0 -0.90547,-5.20313 -1.10315,-11.5625 l -0.35941,-11.5625 -31.875,0 -31.875,0 -0.32315,95.625 c -0.17773,52.59375 -0.051,96.33781 0.28154,97.20902 0.4708,1.23334 7.59933,1.51008 32.19814,1.25 L 351.875,459.375 352.5,398.75 Z M 238.13224,233.7465 C 248.41347,228.76944 256.25,216.06529 256.25,204.375 c 0,-12.47062 -8.69708,-25.64344 -20.19671,-30.59044 -12.83355,-5.52085 -31.32222,-3.24515 -41.44843,5.10173 -17.49606,14.42173 -14.07374,45.13643 6.11839,54.91127 10.80635,5.23126 26.54151,5.20979 37.40899,-0.0511 z"
       id="path3456"
       inkscape:connector-curvature="0" />
    <path
       style="fill:#6b6b6b"
       d="M 303.75,610.38861 C 280.87801,608.66207 253.53744,602.89809 230.625,594.97227 190.97094,581.25525 156.85421,560.11468 125.78339,530.00669 100.72579,505.7256 83.666095,482.38109 68.283229,451.32335 40.512712,395.25517 31.974059,331.88001 43.853193,270 65.708619,156.15212 156.15212,65.708619 270,43.853193 c 83.45586,-16.021061 169.16986,5.451247 235.625,59.026677 13.53284,10.91003 36.8024,35.13119 47.67699,49.62672 77.0165,102.66086 76.89856,241.15607 -0.29376,344.99341 -12.50242,16.81794 -38.69029,43.00581 -55.50823,55.50823 -56.50483,42.0055 -125.75161,62.51341 -193.75,57.38038 z M 251.74126,458.02276 c 1.14895,-2.9941 0.87089,-189.66076 -0.28524,-191.4822 -0.7782,-1.22604 -8.19608,-1.50879 -32.79335,-1.25 L 186.875,265.625 186.53071,360 c -0.18935,51.90625 -0.038,95.64062 0.33633,97.1875 l 0.68058,2.8125 31.71745,0 c 27.76905,0 31.8119,-0.24614 32.47619,-1.97724 z M 352.5,398.75 l 0.625,-60.625 3.32562,-6.30019 C 362.66659,320.0491 375.74871,311.25 387.04035,311.25 c 12.98796,0 23.97757,7.14094 29.38056,19.09119 l 2.95409,6.53381 0.31501,58.75 c 0.17325,32.3125 0.60584,60.01562 0.96131,61.5625 l 0.6463,2.8125 31.71746,0 c 27.76905,0 31.81189,-0.24614 32.47618,-1.97724 1.29445,-3.37326 0.81221,-113.00137 -0.5494,-124.89776 -2.79381,-24.40947 -9.45091,-40.18646 -22.41969,-53.13354 -14.5443,-14.51995 -32.38045,-20.79846 -55.64717,-19.58839 -20.3191,1.05678 -33.45965,7.04205 -46.08094,20.98903 -3.65406,4.03785 -7.01506,6.97024 -7.4689,6.5164 C 352.87132,287.45466 352.5,282.10509 352.5,276.02056 l 0,-11.06276 -32.1875,0.3336 -32.1875,0.3336 -0.32315,95.625 c -0.17773,52.59375 -0.051,96.33781 0.28154,97.20902 0.4708,1.23334 7.59933,1.51008 32.19814,1.25 L 351.875,459.375 352.5,398.75 Z M 226.95792,237.40356 c 13.72668,-2.49181 23.88409,-10.98055 27.45298,-22.94294 2.31997,-7.7762 2.31821,-12.39353 -0.007,-20.22584 -9.80566,-33.01924 -63.69154,-30.89377 -70.68385,2.78806 -3.98966,19.21806 8.19972,37.21173 27.40939,40.46111 8.21753,1.39002 7.71518,1.39257 15.82922,-0.0804 z"
       id="path3454"
       inkscape:connector-curvature="0" />
    <path
       style="fill:#636363"
       d="M 307.5,610.51001 C 258.51429,606.29946 217.1218,593.61785 179.80044,571.38609 64.565223,502.74229 11.868017,365.43957 52.052055,238.53736 89.600198,119.95937 200.10979,38.75 323.9224,38.75 c 102.0316,0 195.0118,52.99726 247.46369,141.05044 19.02979,31.94607 32.14503,70.48132 37.5058,110.19956 2.29161,16.97877 1.93533,57.40081 -0.65554,74.375 -5.97057,39.11636 -19.97576,78.25222 -39.14101,109.375 -22.98859,37.33154 -58.0138,72.35675 -95.34534,95.34534 -31.06054,19.12692 -71.18241,33.49576 -108.75,38.94663 -13.20234,1.91559 -47.03333,3.3677 -57.5,2.46804 z M 251.74126,458.02276 c 0.41731,-1.08747 0.75874,-44.66144 0.75874,-96.83101 0,-92.49984 -0.06,-94.8859 -2.41783,-96.14778 -3.24403,-1.73615 -58.17031,-1.73615 -61.41435,0 -2.35821,1.26208 -2.41782,3.66089 -2.41782,97.29168 0,52.79872 0.375,96.37269 0.83334,96.83101 C 187.54166,459.625 202.10649,460 219.4496,460 c 27.60079,0 31.62754,-0.24656 32.29166,-1.97724 z M 352.5,399.375 c 0.60372,-57.95795 0.71593,-60.19665 3.29666,-65.778 6.52105,-14.1031 17.89303,-21.69052 32.32834,-21.56959 13.89934,0.1165 23.2932,6.44439 28.44054,19.15824 2.75505,6.80496 2.81556,8.06501 3.12475,65.06435 0.17341,31.96875 0.60838,59.4001 0.9666,60.95855 l 0.6513,2.83354 32.15841,-0.33354 32.1584,-0.33355 0.36956,-57.5 c 0.46685,-72.63925 -0.68887,-84.02374 -10.59591,-104.375 -5.34292,-10.97554 -17.37497,-23.71375 -27.493,-29.10654 -9.54149,-5.08551 -23.98891,-8.39659 -36.5431,-8.37499 -21.01927,0.0361 -35.9208,5.97718 -48.90315,19.49695 -4.21695,4.39152 -8.18294,7.98458 -8.81329,7.98458 -0.63036,0 -1.14611,-5.00232 -1.14611,-11.11626 0,-8.98346 -0.37936,-11.26184 -1.97724,-11.875 -2.57937,-0.9898 -58.46615,-0.9898 -61.04552,0 -1.77937,0.6828 -1.97724,10.41937 -1.97724,97.29166 0,53.09311 0.38444,96.91738 0.85431,97.38725 0.46988,0.46988 14.95425,0.70425 32.1875,0.52084 l 31.33319,-0.33349 0.625,-60 z M 236.21201,234.87304 c 6.89358,-3.04459 13.10184,-8.81004 16.68839,-15.49804 3.84171,-7.16383 3.81189,-22.86973 -0.0572,-30.16026 -3.78821,-7.138 -12.86488,-14.7833 -20.01806,-16.86128 -9.13627,-2.65404 -22.21179,-2.06174 -30.05967,1.36168 C 191.17482,178.77119 182.5,191.89547 182.5,204.375 c 0,15.28319 11.36639,29.12534 27.16809,33.08569 6.62181,1.65961 19.84622,0.37042 26.54392,-2.58765 z"
       id="path3452"
       inkscape:connector-curvature="0" />
    <path
       style="fill:#5b5b5b"
       d="M 303.75,609.9888 C 193.09931,601.29599 98.818515,531.53755 58.191139,428.29959 45.02876,394.85275 39.440798,364.06749 39.440798,325 c 0,-48.38521 7.949123,-83.24095 28.693216,-125.8155 C 96.186676,141.61006 141.6755,96.15271 199.36256,68.046742 227.97527,54.10622 252.18295,46.537175 283.75,41.661212 c 20.0297,-3.093861 62.58477,-3.085273 82.45544,0.01664 42.596,6.649456 81.29392,21.516412 115.99773,44.563977 68.43318,45.447981 113.32907,115.886441 125.4395,196.805641 3.08743,20.62956 3.655,56.73755 1.18995,75.70253 -8.36822,64.38113 -37.05767,123.24352 -81.94838,168.13423 C 468.50745,585.26103 384.97971,616.37026 303.75,609.9888 Z M 252.1953,363.26247 c 0.23317,-69.96589 -0.0635,-96.57497 -1.09055,-97.8125 -1.92306,-2.31713 -61.05095,-2.50377 -63.35475,-0.19997 -1.14056,1.14056 -1.5,24.4537 -1.5,97.29166 0,52.68543 0.38429,96.17596 0.85397,96.64564 0.46969,0.46969 15.23532,0.70406 32.8125,0.52084 l 31.95853,-0.33314 0.3203,-96.11253 z m 100.55094,36.42503 c 0.36771,-58.55357 0.45667,-60.48101 3.05042,-66.0905 6.25585,-13.52955 18.17943,-21.42624 32.29828,-21.39036 9.75759,0.0247 17.14566,3.0917 22.49076,9.33625 8.68369,10.14492 8.64494,9.82595 9.37891,77.20711 l 0.66039,60.625 32.5,0 32.5,0 0,-65.625 c 0,-64.02356 -0.0685,-65.88427 -2.80622,-76.25 -7.99366,-30.26574 -25.22053,-48.62676 -52.14391,-55.57681 -9.5998,-2.47811 -29.25123,-2.48278 -38.74793,-0.009 -13.22922,3.44577 -26.11452,11.85336 -34.10498,22.2533 -1.49689,1.94825 -3.30669,3.18067 -4.02178,2.73872 -0.73195,-0.45282 -1.30018,-5.35684 -1.30018,-11.2215 0,-8.34627 -0.39311,-10.56834 -1.97724,-11.17622 -2.57937,-0.9898 -58.46615,-0.9898 -61.04552,0 -1.77937,0.6828 -1.97724,10.41937 -1.97724,97.29166 0,53.09311 0.375,96.90794 0.83334,97.36626 C 288.79166,459.625 303.38685,460 320.76707,460 l 31.60042,0 0.37875,-60.3125 z M 236.18484,234.90885 c 12.999,-5.59203 20.90655,-18.69093 19.77715,-32.76096 -1.05182,-13.10333 -8.2695,-23.6778 -19.69797,-28.85905 -8.34303,-3.78244 -24.67227,-3.67593 -33.13902,0.21616 -16.4911,7.58079 -23.85763,23.48537 -18.85236,40.7029 5.86528,20.17586 30.39482,29.95747 51.9122,20.70095 z"
       id="path3450"
       inkscape:connector-curvature="0" />
    <path
       style="fill:#545454"
       d="M 307.5,609.85233 C 211.14552,604.68412 122.16538,548.62014 74.551482,463.07774 58.314186,433.90606 47.275278,400.95884 41.69072,365 38.29151,343.11256 38.633205,302.33945 42.402419,280.07586 52.606792,219.80176 77.91742,169.26949 119.37285,126.40561 163.25731,81.030181 216.59397,53.14987 280.07586,42.402419 302.33945,38.633205 343.11256,38.29151 365,41.69072 428.9369,51.62039 481.63058,78.018009 526.30766,122.5 c 44.33586,44.14227 71.96748,99.09253 81.28843,161.65619 3.18418,21.37276 3.40848,55.15025 0.5162,77.73535 -11.99342,93.65341 -71.68983,177.21285 -156.23729,218.69155 -46.19174,22.6615 -92.50806,32.05125 -144.375,29.26924 z M 252.1953,363.26247 c 0.23317,-69.96589 -0.0635,-96.57497 -1.09055,-97.8125 -1.11721,-1.34614 -7.6018,-1.69997 -31.15558,-1.69997 -16.35958,0 -30.63446,0.34143 -31.72193,0.75874 -1.77936,0.6828 -1.97724,10.41937 -1.97724,97.29166 0,53.09311 0.38429,96.91722 0.85397,97.3869 0.46969,0.46969 15.23532,0.70406 32.8125,0.52084 l 31.95853,-0.33314 0.3203,-96.11253 z m 100.3456,42.67503 c 0.0225,-29.73438 0.54142,-57.94778 1.15317,-62.69645 1.40053,-10.8713 7.66054,-20.65936 16.8329,-26.31965 5.68939,-3.51094 7.02068,-3.7964 17.70483,-3.7964 10.85257,0 11.88074,0.23045 16.96241,3.80199 5.469,3.84376 9.79474,10.07314 12.55005,18.07301 1.05275,3.05661 1.71385,22.45578 2.19379,64.375 l 0.68695,60 32.5,0 32.5,0 -0.004,-65.625 c -0.004,-63.70715 -0.0847,-65.94379 -2.78216,-76.53346 -7.46935,-29.32395 -26.1156,-49.25969 -51.71815,-55.29474 -4.39787,-1.03666 -13.36232,-1.89316 -19.92099,-1.90332 -21.34626,-0.0331 -35.32145,5.43301 -48.90658,19.12873 -9.66038,9.73904 -9.52505,9.81974 -10.10063,-6.02221 l -0.31792,-8.75 -31.875,0 -31.875,0 -0.32011,97.8125 -0.32012,97.8125 32.50762,0 32.50761,0 0.0409,-54.0625 z M 236.82799,234.89085 c 11.64643,-5.47448 18.22211,-14.98255 19.18328,-27.73801 1.09838,-14.57629 -5.63673,-26.8302 -18.11416,-32.957 -6.44246,-3.16345 -8.55557,-3.55864 -18.52211,-3.46389 -12.88424,0.1225 -17.97818,1.88331 -25.74336,8.89869 -8.03057,7.25514 -10.46337,13.00836 -10.46337,24.74436 0,13.39309 3.57473,19.96272 15.96398,29.33865 7.3358,5.55158 27.07802,6.1681 37.69574,1.1772 z"
       id="path3448"
       inkscape:connector-curvature="0" />
    <path
       style="fill:#4c4c4c"
       d="M 295.625,609.19516 C 272.79364,606.79849 240.68811,598.88342 219.38242,590.3989 163.13205,567.99841 113.71008,526.57351 81.598408,474.91 50.563345,424.9786 35.033869,361.02366 39.8943,303.16024 47.62947,211.07304 96.213875,131.12106 174.375,81.854703 256.4584,30.116067 364.09347,25.140024 451.785,69.029848 c 28.72995,14.379413 52.66211,31.605142 75.11449,54.065392 41.88307,41.89777 68.67907,93.57576 79.61871,153.55036 3.80199,20.84374 4.10521,71.52241 0.55482,92.7294 -6.86151,40.98489 -21.13309,77.88929 -43.02235,111.25 -44.00665,67.06915 -111.53751,111.55197 -190.92567,125.76344 -11.9216,2.13411 -20.90026,2.75151 -43.75,3.00838 -15.8125,0.17777 -31,0.087 -33.75,-0.20166 z m -43.42984,-246.98192 0.32015,-97.16177 -2.82015,-0.69043 C 248.14408,263.98129 233.375,263.82909 216.875,264.0228 l -30,0.3522 -0.32313,96.25 c -0.17771,52.9375 -0.0511,96.96265 0.28139,97.83366 0.47094,1.23373 7.72384,1.50994 32.82313,1.25 l 32.21861,-0.33366 0.32016,-97.16176 z m 100.7961,95.80952 c 0.41731,-1.08747 0.76424,-28.2281 0.77095,-60.3125 l 0.0125,-58.33526 2.91883,-6.25 c 4.11698,-8.81559 8.61315,-13.68116 16.08151,-17.40281 7.12572,-3.5509 17.65665,-4.30333 26.3689,-1.88405 6.52777,1.81267 13.73144,9.41022 17.26197,18.20586 2.91183,7.25421 2.94934,7.95946 3.58102,67.331 l 0.63835,60 32.5,0 32.5,0 0,-66.25 c 0,-64.4563 -0.075,-66.53126 -2.77149,-76.63829 -8.88883,-33.3178 -30.38326,-52.89402 -61.91236,-56.38715 -25.48975,-2.82401 -47.35094,4.9691 -62.04177,22.11678 l -5.0621,5.90866 -0.0436,-10.07359 c -0.0261,-6.01886 -0.67258,-10.93357 -1.60615,-12.21012 -1.41355,-1.93287 -4.54155,-2.10459 -32.8125,-1.80142 l -31.25,0.33513 -0.32011,97.8125 -0.32013,97.8125 32.37389,0 c 28.36762,0 32.46777,-0.24469 33.13261,-1.97724 z M 236.36174,235.37109 c 6.48125,-2.88421 13.82746,-9.69388 16.92995,-15.69344 1.14697,-2.21799 2.35201,-7.75884 2.67785,-12.31298 1.10045,-15.38016 -5.16658,-26.83111 -18.18255,-33.22272 -6.24617,-3.06723 -8.60056,-3.51614 -18.41199,-3.51064 -12.98729,0.007 -19.88926,2.46629 -27.06583,9.64284 -14.27021,14.27022 -12.67877,38.61781 3.34822,51.22465 9.50454,7.47626 28.53701,9.28686 40.70435,3.87229 z"
       id="path3446"
       inkscape:connector-curvature="0" />
    <path
       style="fill:#434343"
       d="M 289.57601,608.09011 C 196.01105,596.77334 113.13655,538.58159 70.261306,454.09454 46.969301,408.1969 36.364643,356.41815 39.981686,306.25 44.17049,248.1516 62.692769,198.39167 97.450796,151.8598 109.40968,135.84999 135.84999,109.40968 151.8598,97.450796 212.86054,51.884931 283.97279,32.689215 359.375,41.435094 453.69289,52.374996 538.76922,112.64354 580.56171,198.125 c 19.2875,39.45021 27.66778,73.34187 29.06538,117.54661 1.6015,50.6544 -7.89867,93.87756 -30.34874,138.07839 -44.00239,86.6341 -128.14103,144.69895 -224.54159,154.95821 -16.1482,1.71854 -48.36877,1.4129 -65.16075,-0.6181 z M 251.1047,459.55007 c 1.02711,-1.23759 1.32371,-28.00941 1.09055,-98.4375 L 251.875,264.375 l -32.5,0 -32.5,0 -0.32023,97.42146 c -0.25345,77.11034 0.008,97.62929 1.25,98.41835 0.86363,0.5483 15.14198,1.00553 31.72968,1.01605 23.9209,0.0151 30.45126,-0.3325 31.57025,-1.68079 z m 100.22747,0.40596 c 2.3383,-1.25143 2.41823,-3.25563 2.43004,-60.9375 l 0.0125,-59.64353 2.96966,-6.37771 c 5.98493,-12.85332 15.83409,-19.4691 30.13092,-20.23928 7.73307,-0.41657 9.54676,-0.053 15.6057,3.12809 4.84152,2.54195 7.87325,5.2453 10.31916,9.20146 6.51288,10.53434 7.15461,17.58248 7.17844,78.8412 0.0194,49.71979 0.23726,55.88649 1.99894,56.5625 2.57951,0.98985 59.71601,0.98985 62.29552,0 1.76679,-0.67797 1.97624,-7.4302 1.9678,-63.4375 -0.005,-36.65984 -0.54159,-66.05157 -1.29135,-70.80376 -4.40408,-27.91389 -18.72925,-49.60361 -39.13166,-59.24917 -12.19444,-5.76512 -20.47229,-7.52871 -35.19255,-7.49778 -21.35644,0.0449 -38.23947,7.2758 -50.97209,21.8311 l -5.9032,6.74791 0,-10.66603 c 0,-6.62913 -0.56773,-11.23376 -1.5,-12.16603 -2.19771,-2.19771 -63.35762,-2.1381 -64.11921,0.0625 -0.29741,0.85938 -0.76828,44.48693 -1.04637,96.95013 -0.43373,81.8274 -0.24973,95.64348 1.29427,97.1875 1.46436,1.46435 7.27442,1.79987 31.16777,1.79987 17.8536,0 30.31585,-0.50734 31.78572,-1.29397 z M 232.21796,236.84295 c 23.87257,-7.08939 32.22323,-36.07845 15.94192,-55.3419 -11.35443,-13.43415 -37.25192,-15.38103 -52.98605,-3.98328 -10.94849,7.93105 -15.57495,24.35265 -10.86009,38.54777 5.84001,17.58266 27.30787,26.89387 47.90422,20.77741 z"
       id="path3444"
       inkscape:connector-curvature="0" />
    <path
       style="fill:#3a3a3a"
       d="M 291.25,608.1363 C 247.60585,602.84058 205.6642,587.68372 169.375,564.09321 126.42883,536.17519 88.600538,493.14726 67.420795,448.125 48.372014,407.63258 39.925602,369.54366 39.935808,324.18204 39.943432,290.19605 43.942357,265.47052 54.643415,233.24379 82.271154,150.04157 150.04157,82.271154 233.24379,54.643415 c 32.22673,-10.701058 56.95226,-14.699961 90.93825,-14.707608 45.36162,-0.01025 83.45054,8.436207 123.94296,27.484988 45.01891,21.178167 88.02235,58.983345 115.97305,101.954205 54.26555,83.42682 60.858,190.5672 17.22866,280 -14.68106,30.0937 -31.13085,53.12374 -54.97941,76.9723 -23.84856,23.84856 -46.8786,40.29835 -76.9723,54.97941 C 401.11161,604.87176 344.06163,614.5444 291.25,608.1363 Z M 250.94522,460.21481 c 1.24285,-0.78906 1.50345,-21.30801 1.25,-98.41835 L 251.875,264.375 l -32.5,0 -32.5,0 -0.32023,97.42146 c -0.25345,77.11034 0.008,97.62929 1.25,98.41835 0.86363,0.5483 15.07023,0.9969 31.57023,0.9969 16.5,0 30.7066,-0.4486 31.57022,-0.9969 z m 101.35563,-0.59985 c 0.92352,-1.11277 1.47151,-20.97684 1.71556,-62.1875 0.39958,-67.47285 -0.13427,-63.28212 9.40654,-73.84265 5.86305,-6.4897 12.80324,-9.95792 21.48656,-10.73747 14.92252,-1.33969 26.35763,5.98801 31.64395,20.27766 2.69648,7.28895 2.7865,9.17026 3.19897,66.85588 0.31332,43.82217 0.81017,59.60121 1.89848,60.29334 2.0193,1.28424 61.07147,1.19287 63.10618,-0.0976 1.31906,-0.8366 1.54724,-14.07886 1.18967,-69.04335 -0.43242,-66.47499 -0.50637,-68.21912 -3.27991,-77.36281 -9.27764,-30.58618 -28.73614,-48.53071 -58.02901,-53.51405 -24.75495,-4.21137 -47.34884,2.44036 -62.60005,18.42966 -3.96815,4.16016 -7.45624,7.56395 -7.7513,7.56395 -0.29506,0 -0.53649,-4.17275 -0.53649,-9.27276 0,-5.10003 -0.34143,-10.16253 -0.75874,-11.25 C 352.32654,263.99499 348.23874,263.75 320,263.75 c -28.23874,0 -32.32654,0.24499 -32.99126,1.97724 -0.41732,1.08747 -0.75874,44.84997 -0.75874,97.25 0,72.43437 0.35957,95.63234 1.5,96.77276 2.25047,2.25048 62.67596,2.12406 64.55085,-0.13504 z M 238.125,234.71301 c 7.88472,-4.07469 12.24176,-8.65622 15.77521,-16.58801 8.03866,-18.04498 -1.67647,-40.11401 -20.39591,-46.33161 -8.60745,-2.85894 -24.62089,-2.01175 -31.77489,1.68103 -13.16495,6.79557 -19.2464,16.56083 -19.20196,30.8335 0.0516,16.56494 8.5941,27.97124 24.97255,33.34433 1.71875,0.56385 7.90625,0.85991 13.75,0.65791 8.50609,-0.29402 11.87141,-1.01139 16.875,-3.59715 z"
       id="path3442"
       inkscape:connector-curvature="0" />
    <path
       style="fill:#343434"
       d="M 301.875,609.2305 C 275.49992,606.4694 251.96411,601.49124 230.72544,594.18137 214.56097,588.61793 183.81867,573.53501 169.375,564.08136 111.01647,525.88463 66.425245,464.63172 49.347634,399.20533 38.477759,357.56151 36.951932,309.76143 45.169992,268.33094 67.338217,156.57215 156.57215,67.338217 268.33094,45.169992 299.26561,39.033857 343.48698,38.346421 372.5,43.550648 c 58.99137,10.581608 108.04684,35.469602 150.24935,76.228112 25.1291,24.26928 42.39677,48.00941 57.89529,79.59624 13.94836,28.42754 21.5475,52.674 26.44415,84.375 3.07676,19.91901 3.08471,62.59351 0.0154,82.23748 -9.79293,62.67428 -36.81205,116.23831 -80.84519,160.27145 -43.75978,43.75978 -97.82786,71.13295 -159.38392,80.69165 -12.02173,1.86678 -54.66019,3.36236 -65,2.27992 z m -50,-246.7305 0,-98.125 L 220,264.04017 c -28.85836,-0.30315 -32.02288,-0.13266 -33.4375,1.8014 -2.04998,2.80272 -2.29844,189.19767 -0.25729,193.01159 1.24969,2.33506 2.67221,2.42464 33.4375,2.10533 l 32.13229,-0.33349 0,-98.125 z m 100.375,97.25 c 1.1233,-1.1233 1.5,-15.97736 1.5,-59.14813 0,-65.22104 0.10362,-66.1074 8.89644,-76.09656 8.96033,-10.17947 20.5454,-13.88791 33.60112,-10.7559 10.41466,2.49844 17.02769,9.6727 21.31653,23.12559 1.15145,3.61177 1.79766,21.48517 2.32746,64.375 l 0.73345,59.375 32.2104,0.33365 32.2104,0.33365 1.2271,-3.22752 c 1.58644,-4.17265 1.57296,-99.85335 -0.0169,-119.93978 -1.47447,-18.62856 -3.60097,-27.07597 -10.22668,-40.625 -11.87086,-24.27484 -36.02384,-38.70659 -64.77935,-38.70659 -19.45416,0 -34.95733,6.10725 -48.08324,18.94171 -4.78952,4.68319 -8.84575,8.51488 -9.01384,8.51488 -0.16807,0 -0.46811,-4.92188 -0.66676,-10.9375 l -0.36116,-10.9375 -33.125,0 -33.125,0 -0.32025,96.73757 c -0.23316,70.42809 0.0634,97.19991 1.09055,98.4375 1.9239,2.31815 62.29964,2.50499 64.6047,0.19993 z M 234.08299,236.78112 c 7.56973,-2.57927 16.24006,-10.33127 19.83339,-17.7327 3.49297,-7.19473 3.88257,-20.85401 0.79788,-27.97287 -2.71377,-6.26285 -10.40169,-14.47993 -16.504,-17.63997 -7.092,-3.67255 -24.27892,-4.52709 -32.9729,-1.63942 -24.44982,8.12093 -31.17707,41.16127 -11.84539,58.17769 3.04898,2.68383 7.89247,5.71198 10.76332,6.72922 7.04992,2.49808 22.7055,2.5389 29.9277,0.078 z"
       id="path3440"
       inkscape:connector-curvature="0" />
    <path
       style="fill:#323232"
       d="m 302.5,609.22698 c -14.88626,-1.35757 -34.59235,-4.79081 -49.65159,-8.65043 C 153.74901,575.17772 74.54958,496.05284 48.954977,396.875 41.767382,369.02341 40.720036,359.90518 40.699216,325 40.682565,297.08279 41.04095,291.10731 43.585556,276.875 65.148081,156.27305 156.27305,65.148081 276.875,43.585556 291.10731,41.04095 297.08279,40.682565 325,40.699216 c 24.65782,0.01471 34.70526,0.51326 44.375,2.201879 59.17664,10.333975 110.85233,36.047309 152.24291,75.754635 46.30248,44.41946 75.49227,100.84242 85.43271,165.13883 3.0839,19.94713 3.10495,61.39851 0.0412,81.20544 C 587.45958,491.92335 492.16376,587.62318 366.25,606.86294 c -12.70455,1.94126 -52.28938,3.40918 -63.75,2.36404 z M 251.875,362.5 l 0,-98.125 -32.4129,-0.33406 c -25.09761,-0.25866 -32.63983,0.0235 -33.41836,1.25 -1.55989,2.45755 -1.30569,190.63395 0.26147,193.56222 1.24969,2.33506 2.67221,2.42464 33.4375,2.10533 l 32.13229,-0.33349 0,-98.125 z m 100.26635,97.74811 c 1.14611,-0.72834 1.60391,-15.75464 1.875,-61.54336 l 0.35865,-60.57975 3.38752,-6.42231 c 4.30603,-8.16369 12.26194,-14.99189 20.22225,-17.35585 16.60434,-4.93097 30.24474,1.02767 37.2637,16.27816 2.84583,6.1833 2.8832,6.89696 3.50153,66.875 0.34375,33.34375 1.08007,61.32812 1.63627,62.1875 0.7653,1.18246 8.7354,1.5625 32.76852,1.5625 31.01018,0 31.7904,-0.0619 33.16605,-2.63235 1.0148,-1.89619 1.24278,-20.33653 0.81522,-65.9375 -0.63747,-67.98915 -0.80819,-69.95335 -7.66231,-88.16309 -8.72154,-23.17097 -27.02115,-38.89039 -50.98355,-43.79501 -12.96695,-2.65407 -24.84472,-2.48243 -36.62004,0.52919 -12.31702,3.15016 -19.05413,7.07087 -29.63172,17.24437 l -8.38656,8.06619 -0.36344,-11.0934 -0.36344,-11.0934 -33.125,0 -33.125,0 -0.32025,96.73757 c -0.23316,70.42809 0.0634,97.19991 1.09055,98.4375 1.12041,1.35002 7.74742,1.69599 32.19525,1.68079 16.93145,-0.01 31.4668,-0.45276 32.3008,-0.98275 z M 234.45421,236.65464 c 4.0605,-1.38355 8.34741,-4.29322 12.61936,-8.56516 13.42617,-13.42617 13.80847,-33.07186 0.91188,-46.85935 -7.43354,-7.94706 -15.82172,-11.50254 -27.31174,-11.57659 -16.44696,-0.106 -28.77871,6.72719 -35.28014,19.54915 -8.86772,17.48874 0.41909,41.00086 18.76172,47.50038 7.23574,2.56392 22.70466,2.53919 30.29892,-0.0484 z"
       id="path3438"
       inkscape:connector-curvature="0" />
    <path
       style="fill:#2b2b2b"
       d="M 303.75,609.13861 C 234.1119,603.88182 167.03557,572.20494 118.99493,521.8878 67.876704,468.34724 40,398.86705 40,325 40,243.08042 72.852584,168.93145 133.74337,113.41923 209.3739,44.469239 317.06443,21.949387 415.23971,54.553728 487.05494,78.403796 547.27551,131.12692 580.6552,199.375 647.73437,336.52505 595.07494,501.88562 461.00532,575.09815 413.91844,600.81129 356.91056,613.15156 303.75,609.13861 Z M 252.45602,458.83217 c 1.39702,-2.61033 1.88274,-187.13283 0.50612,-192.26967 l -0.75372,-2.8125 -32.84547,0 c -28.79766,0 -32.93899,0.24367 -33.60421,1.97724 -0.41732,1.08747 -0.75874,44.84997 -0.75874,97.25 0,72.43437 0.35957,95.63234 1.5,96.77276 1.0875,1.0875 10.18467,1.5 33.08102,1.5 29.9439,0 31.64809,-0.12534 32.875,-2.41783 z M 353.75,399.375 l 0.625,-61.25 3.71019,-6.6985 c 7.74836,-13.9892 20.60422,-20.48615 35.51915,-17.95029 10.15207,1.72609 15.7838,6.05159 20.77066,15.95309 l 3.75,7.4457 0.625,60.625 c 0.34375,33.34375 1.08007,61.32813 1.63627,62.1875 1.42184,2.19686 63.42032,2.25591 65.61373,0.0625 1.9256,-1.9256 2.08941,-110.04605 0.19186,-126.625 -2.8586,-24.97554 -9.40316,-40.3416 -22.94177,-53.86534 -15.08963,-15.07305 -32.6608,-21.33993 -56.37509,-20.10658 -19.97149,1.03868 -32.2377,6.34573 -45.12536,19.52375 l -7.37464,7.54078 -0.625,-10.92131 -0.625,-10.9213 -33.125,0 -33.125,0 -0.3231,96.875 c -0.1777,53.28125 -0.0511,97.58749 0.28126,98.45831 0.47105,1.2341 7.84833,1.5098 33.4481,1.25 L 353.125,460.625 353.75,399.375 Z M 226.91827,238.63621 c 9.7614,-1.8045 15.2283,-4.74211 21.51255,-11.55972 15.03947,-16.3159 10.05873,-43.25613 -9.87762,-53.42689 -11.06321,-5.64403 -27.38378,-5.59781 -38.5705,0.10925 -5.58734,2.85045 -13.31435,11.24116 -15.94696,17.31672 -2.63835,6.08879 -2.53699,20.60204 0.18692,26.7648 4.6954,10.62319 15.42533,18.94989 26.9279,20.89673 8.1957,1.38715 7.7012,1.39031 15.76771,-0.10088 z"
       id="path3436"
       inkscape:connector-curvature="0" />
    <path
       style="fill:#232323"
       d="M 305.625,609.2129 C 280.8456,607.15656 251.56121,601.09807 230.67225,593.70632 135.65941,560.08516 65.427246,479.58836 45.687668,381.6857 29.31246,300.46934 48.416717,217.88979 99.135822,150.65215 108.87157,137.74561 137.74561,108.87157 150.65215,99.135822 184.42016,73.663727 224.97786,54.799517 264.13134,46.354343 384.52944,20.385177 507.20994,74.041477 570.15056,180.1968 c 18.95547,31.97018 31.29485,67.36936 36.9424,105.98023 2.91394,19.92193 2.85108,58.06392 -0.12889,78.19797 -18.67302,126.16371 -116.58369,224.42432 -241.49446,242.35757 -14.04307,2.01615 -48.31929,3.43677 -59.84461,2.48033 z M 252.25,459.75 c 1.88603,-1.88603 2.15715,-191.77336 0.27808,-194.75 -0.98687,-1.56326 -6.13882,-1.93719 -30.98763,-2.24904 -18.271,-0.2293 -31.10735,0.1215 -33.17221,0.90656 L 185,264.93813 l 0,96.65593 c 0,73.51018 0.3592,97.01514 1.5,98.15594 2.13409,2.13409 63.61591,2.13409 65.75,0 z M 353.75,400 c 0.59984,-58.1847 0.73025,-60.85143 3.2398,-66.25 6.35331,-13.66738 16.78847,-20.49285 31.24889,-20.43941 10.76131,0.0398 17.98561,3.47962 23.23726,11.06441 6.83899,9.87731 7.27405,14.47597 7.27405,76.88763 0,42.65685 0.3772,57.36457 1.5,58.48737 1.08699,1.08699 10.13889,1.5 32.875,1.5 22.73611,0 31.78801,-0.41301 32.875,-1.5 1.91149,-1.91149 2.11836,-113.00904 0.23836,-128.00236 -2.88441,-23.00363 -9.4135,-38.3662 -21.95655,-51.66249 -13.36275,-14.16522 -31.20918,-21.35402 -52.91926,-21.31667 -20.49724,0.0352 -36.20665,6.12106 -49.15881,19.04402 -3.96205,3.95312 -7.48499,7.1875 -7.82874,7.1875 -0.34375,0 -0.625,-4.48021 -0.625,-9.95602 0,-8.56391 -0.33808,-10.13695 -2.41783,-11.25 -3.24728,-1.73789 -59.41706,-1.73789 -62.66435,0 -2.35862,1.2623 -2.41782,3.67505 -2.41782,98.54167 0,53.48623 0.38414,97.63183 0.85364,98.10133 0.4695,0.4695 15.51637,0.70387 33.4375,0.52083 L 353.125,460.625 353.75,400 Z m -115,-165.33368 c 13.0021,-6.4996 19.72362,-18.79438 18.39064,-33.6395 -1.1855,-13.2025 -9.9021,-24.65751 -22.34023,-29.35863 -8.44721,-3.19271 -23.88021,-2.84516 -31.94261,0.71935 -12.3598,5.46445 -21.6078,19.15488 -21.6078,31.98746 0,7.55547 3.75054,16.93145 9.08999,22.72406 12.3498,13.39795 30.93456,16.30304 48.41001,7.56726 z"
       id="path3434"
       inkscape:connector-curvature="0" />
    <path
       style="fill:#1d1d1d"
       d="M 304.375,608.73892 C 200.25766,601.25124 107.33644,536.31804 65.006628,441.46871 29.512064,361.93528 32.284484,269.52536 72.463639,192.9127 80.567174,177.46107 91.546993,160.50174 102.1966,146.98742 111.17916,135.58859 135.58859,111.17916 146.98742,102.1966 222.55726,42.64574 321.85779,24.593489 412.38731,53.948455 494.57805,80.599497 558.77157,141.45779 590.62672,222.92727 611.36416,275.96324 614.97215,337.95236 600.64195,395 580.57179,474.89806 525.14873,543.23821 450.5993,580.01209 c -44.89643,22.1466 -96.56825,32.2979 -146.2243,28.72683 z M 252.99126,459.27276 c 0.41731,-1.08747 0.75874,-45.22394 0.75874,-98.08101 0,-93.73568 -0.0596,-96.13568 -2.41783,-97.39778 -3.2504,-1.73956 -60.66395,-1.73956 -63.91435,0 -2.35862,1.2623 -2.41782,3.67505 -2.41782,98.54168 0,53.48622 0.375,97.62269 0.83334,98.08101 0.45832,0.45834 15.58565,0.83334 33.61626,0.83334 28.74062,0 32.87649,-0.2438 33.54166,-1.97724 z M 353.7793,400 c 0.4746,-43.97503 1.07675,-61.59505 2.19251,-64.15707 7.12673,-16.3644 22.24059,-25.01912 38.37399,-21.97424 9.77034,1.84396 15.24082,6.2337 19.82386,15.90746 l 3.95534,8.34885 0.31501,58.75 c 0.17325,32.3125 0.60814,60.02479 0.96643,61.58286 l 0.65141,2.83287 33.40858,-0.33287 33.40857,-0.33286 0,-65.625 c 0,-74.77001 -0.17798,-76.48762 -10.05615,-97.04704 -12.33942,-25.68205 -34.87096,-39.13685 -65.61872,-39.18448 -20.65678,-0.032 -35.33867,5.5426 -48.51032,18.41902 -4.3954,4.29687 -8.20496,7.8125 -8.46571,7.8125 -0.26076,0 -0.4741,-4.72107 -0.4741,-10.49126 0,-8.41355 -0.39158,-10.64153 -1.97724,-11.25 -2.57964,-0.9899 -60.96589,-0.9899 -63.54552,0 -1.77967,0.68292 -1.97724,10.52953 -1.97724,98.54166 0,53.78061 0.38414,98.16707 0.85364,98.63658 0.4695,0.46949 15.51637,0.70387 33.4375,0.52083 L 353.125,460.625 353.7793,400 Z M 235.3699,236.80446 c 3.57592,-1.23986 8.40596,-4.42704 11.97024,-7.89875 9.52727,-9.27986 12.46055,-21.95468 8.31302,-35.92093 -8.61712,-29.01699 -54.97622,-32.58223 -70.02816,-5.38551 -3.28953,5.94372 -3.75,8.00367 -3.75,16.77573 0,8.77143 0.46071,10.83281 3.75,16.77861 4.89807,8.85389 12.62087,14.61098 23.75,17.70483 5.30501,1.47476 18.92034,0.39895 25.9949,-2.05398 z"
       id="path3432"
       inkscape:connector-curvature="0" />
    <path
       style="fill:#191919"
       d="M 306.875,608.6588 C 269.17115,606.37775 233.9572,596.99519 199.375,580.01603 114.86817,538.52488 57.595511,459.76776 42.944619,364.90457 39.883045,345.08116 39.864488,304.72182 42.907877,285 49.59996,241.63386 64.466943,202.47049 87.276134,168.12282 132.92409,99.382983 201.8379,55.741107 285,42.907877 c 19.72182,-3.04339 60.08116,-3.024832 79.90457,0.03674 63.98208,9.881542 119.35813,38.134999 163.61193,83.476583 51.94117,53.21791 80.15303,122.26176 80.37469,196.7038 0.12437,41.7691 -6.91798,77.22893 -22.59274,113.75953 C 538.83899,547.49051 427.46911,615.95462 306.875,608.6588 Z M 253.44521,363.26236 c 0.23314,-70.89025 -0.0634,-97.82481 -1.09056,-99.0625 C 250.42995,261.88075 188.80628,261.69373 186.5,264 c -1.1409,1.1409 -1.5,24.73149 -1.5,98.54166 0,53.37293 0.384,97.42567 0.85333,97.89499 0.46932,0.46932 15.79744,0.7037 34.0625,0.52084 L 253.125,460.625 253.44521,363.26236 Z M 353.75157,400.625 c 0.62347,-59.70059 0.64129,-60.03253 3.57195,-66.5172 3.49589,-7.73534 12.81273,-16.88381 19.41288,-19.06206 2.70322,-0.89214 8.6072,-1.36228 13.80891,-1.0996 10.75143,0.54292 17.2653,4.22747 21.829,12.34747 5.52684,9.83369 5.62168,10.93909 6.32315,73.70639 l 0.67754,60.625 33.75,0 33.75,0 0,-66.875 c 0,-64.993 -0.0776,-67.16567 -2.75645,-77.20386 -7.39789,-27.721 -23.27866,-46.27045 -46.25312,-54.02568 -10.55054,-3.56142 -33.32575,-4.88691 -43.96174,-2.5585 -11.54398,2.52718 -22.40984,8.42729 -31.05549,16.86299 -4.34457,4.23905 -8.16899,7.4376 -8.49871,7.10787 -0.32972,-0.32972 -0.59949,-4.94556 -0.59949,-10.25742 0,-7.65365 -0.41033,-9.81539 -1.97724,-10.41666 -2.57964,-0.9899 -60.96589,-0.9899 -63.54552,0 -1.77967,0.68292 -1.97724,10.52954 -1.97724,98.54166 0,53.78061 0.38414,98.16708 0.85364,98.63658 0.4695,0.4695 15.51637,0.70387 33.4375,0.52083 l 32.58386,-0.33281 0.62657,-60 z M 236.45915,236.55191 c 12.67761,-5.63323 19.7855,-15.56187 20.74544,-28.97824 1.12761,-15.75983 -6.44719,-29.11216 -19.96999,-35.20169 -8.97366,-4.04099 -26.2595,-4.19909 -34.79811,-0.31828 -12.2606,5.57248 -19.64832,15.84539 -20.82587,28.95926 -1.55831,17.35411 8.90657,32.58339 25.64339,37.31817 7.73951,2.18948 22.26509,1.30456 29.20514,-1.77922 z"
       id="path3430"
       inkscape:connector-curvature="0" />
    <path
       style="fill:#151515"
       d="M 288.125,606.8329 C 239.54699,600.47521 193.84041,581.85436 153.75,552.08856 138.04535,540.42837 108.95757,511.27836 97.219921,495.43751 35.799514,412.54604 23.248666,306.14238 63.756161,211.7382 91.953916,146.02231 146.02231,91.953916 211.7382,63.756161 306.14238,23.248666 412.54604,35.799514 495.43751,97.219921 511.27836,108.95757 540.42837,138.04535 552.08856,153.75 589.94068,204.73155 608.75,261.64641 608.75,325.20097 c 0,46.13976 -9.49964,86.44729 -30.00323,127.30544 -14.23511,28.36679 -29.88378,49.9199 -53.10212,73.13824 -45.42861,45.42862 -101.03733,72.8237 -164.77118,81.17289 -17.86783,2.3407 -54.92117,2.34852 -72.74847,0.0154 z M 253.44521,363.26236 c 0.23314,-70.89025 -0.0634,-97.82481 -1.09056,-99.0625 -1.12,-1.34951 -7.79883,-1.69986 -32.40548,-1.69986 -17.04708,0 -31.88446,0.34143 -32.97193,0.75874 C 185.19757,263.94166 185,273.78827 185,361.8004 c 0,53.78061 0.384,98.16693 0.85332,98.63625 0.46933,0.46932 15.79745,0.7037 34.0625,0.52084 l 33.20918,-0.33249 0.32021,-97.36264 z m 100.76693,95.17514 c 0.41455,-1.54688 0.7669,-28.96875 0.783,-60.9375 l 0.0292,-58.125 2.93256,-6.29762 c 3.49156,-7.49808 12.47937,-15.81338 19.30156,-17.85735 16.82008,-5.03942 31.80823,1.74293 38.04436,17.21562 2.72707,6.76618 2.81277,8.45224 3.43448,67.56435 l 0.63761,60.625 33.75,0 33.75,0 0,-66.875 c 0,-65.31903 -0.0652,-67.12221 -2.80622,-77.5 -4.28336,-16.21779 -10.53961,-27.80705 -20.25673,-37.52415 -14.03521,-14.03526 -29.92664,-20.11751 -52.56201,-20.11751 -21.52884,0 -33.9659,4.65162 -48.3873,18.09748 l -7.8627,7.33082 0,-8.6544 c 0,-13.7312 2.1243,-12.98036 -35.625,-12.59179 l -32.5,0.33455 -0.32002,99.0625 -0.32003,99.0625 33.61174,0 33.61173,0 0.75372,-2.8125 z M 237.15881,236.30771 c 13.69384,-5.95406 21.09628,-18.52854 20.07896,-34.10802 C 256.3168,188.0956 250.33592,179.04327 237.5,172.3257 c -4.75668,-2.48936 -7.45813,-2.94433 -17.5,-2.94725 -10.49061,-0.002 -12.70918,0.40617 -19.03031,3.51024 -23.38527,11.48357 -26.86028,43.61373 -6.40447,59.21615 10.89718,8.31168 29.02884,10.10081 42.59359,4.20287 z"
       id="path3428"
       inkscape:connector-curvature="0" />
    <path
       style="fill:#111111"
       d="M 289.57601,606.84011 C 218.53495,598.24762 152.73765,562.22867 106.1267,506.41576 71.802389,465.31512 50.156151,415.1783 42.373007,358.75 39.940899,341.11706 40.553784,303.38145 43.602531,283.04748 62.202245,158.99456 158.99456,62.202245 283.04748,43.602531 c 20.33397,-3.048747 58.06958,-3.661632 75.70252,-1.229524 56.4283,7.783144 106.56512,29.429382 147.66576,63.753693 56.36219,47.06966 92.0334,112.67377 100.46726,184.77266 10.18697,87.08575 -19.59316,173.23242 -81.1722,234.81146 -45.79831,45.79832 -106.24933,74.69229 -170.97406,81.72103 -16.05141,1.7431 -48.27626,1.45046 -65.16075,-0.59174 z M 251.33217,461.20602 c 2.35889,-1.26243 2.41783,-3.68422 2.41783,-99.35118 l 0,-98.05721 -2.8125,-0.68808 c -1.54688,-0.37845 -16.875,-0.5298 -34.0625,-0.33632 l -31.25,0.35177 -0.32412,98.125 c -0.30107,91.1403 -0.17284,98.23623 1.80141,99.6875 2.71681,1.99715 60.54816,2.23893 64.22988,0.26853 z M 352.5,461.27746 c 1.61114,-1.01759 1.96295,-9.85428 2.5,-62.79335 0.6909,-68.10501 0.2132,-64.19526 9.07677,-74.29031 11.76762,-13.40258 34.3678,-14.03873 45.56779,-1.28264 8.1174,9.2452 8.33888,11.18765 8.78938,77.08884 0.36567,53.49349 0.61082,59.52977 2.47488,60.9375 2.99148,2.25915 61.45363,2.22771 64.54768,-0.0347 2.0422,-1.4933 2.15499,-5.98668 1.73355,-69.0625 -0.50546,-75.6544 -0.33654,-74.06048 -9.99884,-94.34025 -6.73009,-14.12549 -17.6618,-25.27106 -30.94121,-31.54654 -12.65014,-5.9781 -20.79665,-7.7349 -35.625,-7.68254 -20.37149,0.072 -34.33496,5.4316 -47.77551,18.33788 L 355,284.14626 l 0,-8.4053 C 355,261.56705 357.47195,262.5 319.91679,262.5 c -24.87099,0 -32.62365,0.3666 -33.04253,1.5625 -0.87039,2.48497 -1.62561,194.32474 -0.77016,195.63335 0.42399,0.64861 1.61465,1.50047 2.6459,1.89304 3.22982,1.22947 61.76304,0.94353 63.75,-0.31143 z M 238.13536,235.91077 c 22.63078,-11.56102 26.60451,-40.9244 7.82344,-57.8102 -17.90479,-16.09793 -50.25816,-10.8567 -61.35286,9.93917 -3.61448,6.77496 -3.91777,25.3914 -0.51532,31.63088 5.0039,9.17624 13.09645,15.82767 23.40938,19.24063 1.71875,0.5688 7.91091,0.84359 13.76036,0.61064 8.37189,-0.33342 11.96331,-1.10195 16.875,-3.61112 z"
       id="path3426"
       inkscape:connector-curvature="0" />
    <path
       style="fill:#0d0d0d"
       d="M 290.88444,606.84659 C 174.17285,592.72508 78.558944,508.66503 49.412894,394.55411 38.349508,351.2394 38.278063,298.53819 49.224256,255.40619 59.22122,216.0145 78.70968,177.0506 104.13319,145.625 c 11.62863,-14.37398 35.65127,-37.38828 50.718,-48.589155 49.74646,-36.982413 106.48139,-55.752526 168.75174,-55.829622 27.42828,-0.03396 48.00707,2.346316 70.95118,8.206671 114.76783,29.31384 198.57488,125.156826 212.34053,242.835776 18.40611,157.34904 -96.27831,299.55384 -254.21458,315.21749 -17.06122,1.69208 -45.00585,1.4119 -61.79562,-0.61957 z M 252.3546,460.80019 c 1.02725,-1.23776 1.32369,-28.33508 1.09056,-99.6875 L 253.125,263.125 l -33.75,0 -33.75,0 -0.32013,98.67151 c -0.25342,78.11044 0.007,98.87924 1.25,99.66836 0.86357,0.54827 15.70438,1.00547 32.97958,1.01599 24.97372,0.0152 31.69849,-0.32915 32.82015,-1.68067 z m 100.22757,0.40584 C 354.92027,459.95471 355,457.96306 355,400.8037 c 0,-65.77654 0.0247,-66.00159 8.32715,-75.70107 5.64375,-6.59345 12.73877,-10.21136 21.58236,-11.00529 10.17997,-0.91393 17.26974,1.41376 23.25225,7.63405 9.68802,10.07307 9.79138,10.86399 10.30795,78.87401 0.3364,44.29021 0.84138,60.22575 1.93044,60.91835 2.01984,1.28456 63.57163,1.19371 65.6064,-0.0969 1.31854,-0.83628 1.54689,-14.20195 1.19029,-69.66837 -0.42894,-66.71965 -0.51882,-68.88873 -3.22302,-77.7848 -6.9888,-22.99115 -19.50087,-39.16666 -36.94789,-47.76598 -30.26063,-14.9149 -66.1492,-9.78928 -86.71343,12.38445 l -5.3125,5.7283 0,-9.41027 c 0,-5.65241 -0.599,-10.00925 -1.5,-10.91025 -2.13518,-2.13517 -64.86483,-2.13517 -67,0 -1.14077,1.14078 -1.5,24.61905 -1.5,98.03572 0,86.09307 0.21249,96.7482 1.96429,98.5 1.67878,1.67878 6.4144,1.96428 32.58217,1.96428 18.71525,0 31.55782,-0.50303 33.03571,-1.29397 z M 237.64274,236.48346 c 19.93865,-9.65214 26.48244,-33.99799 14.14794,-52.63669 -8.54183,-12.90756 -28.39393,-18.56922 -46.38124,-13.22756 -8.19151,2.43261 -17.41211,10.56849 -21.20245,18.70816 -4.07468,8.75028 -4.07468,21.34498 0,30.09525 3.61937,7.77255 12.97801,16.23859 20.67941,18.70709 8.55121,2.7409 25.44789,1.89171 32.75634,-1.64625 z"
       id="path3424"
       inkscape:connector-curvature="0" />
    <path
       style="fill:#090909"
       d="M 301.875,607.89341 C 233.70749,601.94465 171.7837,573.14204 123.73291,525.03419 96.00105,497.2694 74.25445,463.92319 59.961201,427.24674 36.649999,367.43022 34.824671,297.70897 54.960839,236.25 76.215076,171.37847 121.30676,115.45228 181.05044,79.863906 239.176,45.239417 313.04264,32.853705 380.625,46.399906 c 74.55171,14.943138 140.5824,59.738214 182.19992,123.604034 40.23267,61.74063 54.77812,138.17195 40.20169,211.24606 -6.50071,32.58924 -21.79709,69.99853 -40.06147,97.97558 -47.45084,72.68433 -126.2477,120.39948 -211.71514,128.20333 -13.4426,1.22741 -37.98676,1.45831 -49.375,0.4645 z M 252.19513,461.46487 c 1.24294,-0.78912 1.50342,-21.55792 1.25,-99.66836 L 253.125,263.125 219.74235,262.79219 c -32.19394,-0.32097 -33.42993,-0.24449 -34.71024,2.14781 -0.91232,1.70469 -1.22272,32.6142 -0.99235,98.81618 0.2924,84.0249 0.57484,96.48697 2.21024,97.52053 2.27002,1.43467 63.70566,1.60997 65.94513,0.18817 z m 101.35572,-0.59991 c 0.92352,-1.11277 1.47151,-20.97684 1.71556,-62.1875 l 0.35859,-60.55246 3.87785,-6.875 c 7.46003,-13.22582 20.84977,-19.51526 35.15749,-16.51419 13.95818,2.92776 20.80856,12.62723 22.89006,32.41013 0.63535,6.03848 1.16517,34.12201 1.17739,62.40782 0.0197,45.73005 0.2413,51.51284 1.99945,52.1875 3.26274,1.25204 63.4852,0.82336 65.52276,-0.4664 1.62608,-1.02928 1.875,-9.53173 1.875,-64.04336 0,-45.92112 -0.43389,-65.214 -1.6104,-71.6065 -4.78918,-26.02165 -15.09475,-43.89784 -32.02041,-55.543 -7.73262,-5.32017 -15.27413,-8.37556 -26.28879,-10.6507 -25.29856,-5.22556 -49.63266,0.99261 -65.8024,16.8147 l -7.403,7.24383 0,-8.51768 C 355,261.3477 358.23366,262.5 320,262.5 c -29.37858,0 -33.57553,0.24235 -34.24126,1.97724 -0.41732,1.08747 -0.75874,45.41247 -0.75874,98.5 0,73.40659 0.35924,96.882 1.5,98.02276 2.25282,2.25283 65.17426,2.1261 67.05085,-0.13504 z M 239.41559,235.61201 c 8.887,-4.54862 14.74668,-11.73503 17.63886,-21.63256 5.40781,-18.5065 -6.18601,-38.97926 -24.98278,-44.11545 -7.33303,-2.00374 -20.44261,-1.65401 -27.07167,0.7222 -12.67813,4.54451 -19.85879,12.53145 -23.28295,25.89726 -1.78464,6.96613 -1.78819,8.43399 -0.0375,15.52824 3.24457,13.14793 9.7913,20.79845 21.98974,25.69726 4.35047,1.74712 8.40023,2.2171 17.04998,1.9787 9.79572,-0.26999 12.34788,-0.82633 18.69632,-4.07565 z"
       id="path3422"
       inkscape:connector-curvature="0" />
    <path
       style="fill:#050505"
       d="M 304.375,607.99693 C 277.86652,605.25903 259.48602,601.6856 239.72377,595.42781 138.18102,563.27394 63.20851,477.42432 45.040776,372.5 41.542173,352.29447 40.336764,317.37551 42.430188,296.875 52.323076,199.9957 109.8989,115.81175 196.25,71.968804 240.4706,49.51673 283.77376,40.001185 334.375,41.616874 c 71.91609,2.296266 136.79071,29.892942 188.0353,79.987346 45.88229,44.85247 73.37335,98.71669 83.39346,163.39578 3.05129,19.69583 3.02319,59.99808 -0.0557,80 -7.47684,48.57206 -25.70981,92.14984 -54.87317,131.14987 -11.49688,15.37472 -39.35024,43.22808 -54.72495,54.72495 -38.87439,29.06942 -83.25086,47.66633 -130.52488,54.69924 -13.31432,1.98076 -51.07022,3.47428 -61.25,2.42287 z M 253.70602,460.08217 c 1.39707,-2.61045 1.88305,-189.63164 0.50612,-194.76967 l -0.75372,-2.8125 -34.09547,0 c -29.9375,0 -34.18801,0.24112 -34.85421,1.97724 -0.41732,1.08747 -0.75874,45.41247 -0.75874,98.5 0,73.40659 0.35924,96.882 1.5,98.02276 1.09052,1.09052 10.46245,1.5 34.33102,1.5 31.17974,0 32.8961,-0.12163 34.125,-2.41783 z M 355,400 c 0.61084,-60.47298 0.68632,-61.9883 3.33159,-66.875 3.24055,-5.98645 10.64442,-13.2502 16.66841,-16.35296 5.97845,-3.07932 20.3032,-3.08362 26.1266,-0.007 6.69184,3.53446 11.24952,9.44857 13.91397,18.05498 2.29501,7.41304 2.45943,11.78514 2.45943,65.39468 0,37.21165 0.45585,58.30226 1.29398,59.86832 1.22889,2.29622 2.94526,2.41783 34.125,2.41783 23.86857,0 33.2405,-0.40948 34.33102,-1.5 1.9153,-1.9153 2.0945,-111.17609 0.20972,-127.875 -4.63475,-41.06355 -24.88576,-66.77429 -58.08472,-73.7445 -25.63601,-5.38235 -49.62646,0.476 -66.70696,16.28952 l -7.55984,6.99908 -0.3666,-9.77205 -0.3666,-9.7724 -34.375,0 -34.375,0 -0.32016,97.98769 c -0.23533,72.02392 0.0581,98.44341 1.10723,99.7076 1.15925,1.3968 7.67705,1.65742 34.69517,1.38731 L 354.375,461.875 355,400 Z M 237.5,236.69436 c 8.52301,-3.82538 13.02744,-8.0122 17.28832,-16.06936 2.7975,-5.28995 3.29723,-7.78607 3.2532,-16.25 -0.0433,-8.31411 -0.61167,-11.08272 -3.37178,-16.42231 -6.73963,-13.03823 -18.9788,-19.74002 -35.94418,-19.68192 -22.39938,0.0768 -38.03111,14.91645 -38.03111,36.10423 0,18.0268 11.55788,31.87044 29.73524,35.61586 7.73878,1.59458 19.3133,0.18509 27.07031,-3.2965 z"
       id="path3420"
       inkscape:connector-curvature="0" />
    <path
       style="fill:#000000"
       d="M 310,607.97913 C 205.51504,601.26674 115.21728,541.16252 69.939967,448.18976 29.789072,365.74364 32.000199,270.60131 75.949549,189.60417 c 13.64142,-25.14066 26.808561,-42.53771 48.962731,-64.69189 27.75057,-27.750565 54.589,-46.08896 89.06689,-60.858401 151.71809,-64.99211247 327.13574,14.466772 379.82241,172.048061 9.96252,29.79703 14.13957,56.62467 14.03601,90.14806 -0.13779,44.60005 -8.75217,81.5609 -28.40511,121.875 -28.49061,58.44279 -72.8235,102.7738 -131.30748,131.30189 -28.1198,13.71665 -54.44624,21.84688 -84.375,26.05703 -13.75899,1.93551 -42.03194,3.24801 -53.75,2.49521 z M 254.69511,363.26225 c 0.23313,-71.81459 -0.0633,-99.07465 -1.09055,-100.3125 -1.92621,-2.32094 -66.046,-2.50831 -68.35456,-0.19975 -1.14124,1.14124 -1.5,25.00926 -1.5,99.79166 0,54.06043 0.38371,98.67539 0.85271,99.14438 0.46899,0.46899 16.35962,0.70336 35.3125,0.52084 L 254.375,461.875 254.69511,363.26225 Z M 355,400.625 c 0.61824,-60.58784 0.65549,-61.30706 3.44517,-66.52775 7.03902,-13.17299 16.52306,-19.40975 29.51578,-19.40975 9.75091,0 16.89395,3.40826 22.04454,10.51845 6.67052,9.20839 6.72237,9.73371 7.44535,75.41905 l 0.67416,61.25 35,0 35,0 0.36936,-59.375 c 0.46461,-74.68593 -0.64255,-85.793 -10.59119,-106.25 -5.35746,-11.01635 -18.51931,-24.91701 -28.74752,-30.36119 -9.94149,-5.29156 -23.93895,-8.39169 -37.7931,-8.37033 -21.3181,0.0329 -36.90039,5.76797 -49.75029,18.31074 L 355,282.28344 l 0,-9.75798 c 0,-7.7449 -0.40791,-9.91452 -1.97724,-10.51672 -2.57987,-0.98999 -63.46565,-0.98999 -66.04552,0 C 285.19727,262.69177 285,272.64844 285,361.8004 c 0,54.46811 0.38385,99.41679 0.85301,99.88594 0.46915,0.46916 16.07853,0.70354 34.6875,0.52084 L 354.375,461.875 355,400.625 Z M 238.02287,237.08254 c 7.46533,-3.41774 13.48177,-9.07328 17.32894,-16.28948 2.25064,-4.22155 2.7569,-7.22847 2.76423,-16.41806 0.009,-10.29236 -0.32217,-11.83522 -3.881,-18.125 -4.87964,-8.6241 -12.61188,-14.31566 -23.09815,-17.00211 C 204.4574,162.41291 180,179.21327 180,204.375 c 0,16.8592 11.55979,31.33813 28.41809,35.59436 7.4767,1.88765 22.34223,0.43809 29.60478,-2.88682 z"
       id="path3418"
       inkscape:connector-curvature="0" />
  </g>
</svg>
