<?xml version="1.0" encoding="utf-8"?>
<!-- Generator: Adobe Illustrator 15.1.0, SVG Export Plug-In  -->
<!DOCTYPE svg PUBLIC "-//W3C//DTD SVG 1.1//EN" "http://www.w3.org/Graphics/SVG/1.1/DTD/svg11.dtd" [
	<!ENTITY ns_flows "http://ns.adobe.com/Flows/1.0/">
]>
<svg version="1.1"
	 xmlns="http://www.w3.org/2000/svg" xmlns:xlink="http://www.w3.org/1999/xlink" xmlns:a="http://ns.adobe.com/AdobeSVGViewerExtensions/3.0/"
	 x="0px" y="0px" width="1000px" height="1000px" viewBox="-0.499 -106.292 1000 1000"
	 overflow="visible" enable-background="new -0.499 -106.292 1000 1000" xml:space="preserve">
<defs>
</defs>
<g>
	<defs>
		<rect id="SVGID_1_" width="1000" height="788.414"/>
	</defs>
	<clipPath id="SVGID_2_">
		<use xlink:href="#SVGID_1_"  overflow="visible"/>
	</clipPath>
	<g clip-path="url(#SVGID_2_)">
		<g>
			<path fill="#000" fill-rule="evenodd" clip-rule="evenodd" d="M861.462,30.228c8.924,36.178,5.038,77.809,5.038,118.388
				c0,79.475-0.001,162.689,0,244.333c0,39.005,5.717,79.875-7.557,113.35c-27.162,8.964-56.416,5.038-85.643,5.038
				c-176.297,0-363.896,0-544.081,0c-29.227,0-58.48,3.926-85.643-5.038c-9.12-34.335-5.038-75.36-5.038-118.388
				c0-99.056,0-204.708,0-307.305c0-17.099-5.358-39.197,7.557-52.896c43.537-8.861,130.446-5.038,188.917-5.038
				c148.422,0,296.563,0,445.844,0C808.476,22.671,837.214,17.449,861.462,30.228z M196.475,90.682c0,120.906,0,241.814,0,362.72
				c203.189,0,406.382,0,609.571,0c0-123.426,0-246.851,0-370.277c-202.351,0-404.702,0-607.053,0
				C196.059,83.548,196.259,87.107,196.475,90.682z"/>
			<path fill="#000" fill-rule="evenodd" clip-rule="evenodd" d="M297.23,136.021c40.287,46.196,66.823,106.141,103.275,156.171
				c1.639-50.418-3.304-107.418,2.519-153.652c17.877-4.024,50.133-4.024,68.01,0c4.216,87.373,4.164,192.216,0,279.597
				c-22.67,0-45.34,0-68.01,0c-24.081-22.708-35.802-54.551-52.896-83.123c-16.447-27.49-37.845-53.043-50.378-83.124
				c-7.46,49.635,2.391,116.58-5.038,166.247c-22.67,0-45.34,0-68.01,0c-4.105-85.737-4.266-188.846,0-274.559
				c-0.11-4.308,1.872-6.524,5.038-7.557C253.57,136.021,275.4,136.021,297.23,136.021z"/>
			<path fill="#000" fill-rule="evenodd" clip-rule="evenodd" d="M604.536,138.541c5.514,27.231,1.104,64.386,2.519,95.718
				c30.227,0,60.453,0,90.681,0c5.866-26.879,0.848-64.643,2.519-95.718c18.652-4.035,51.877-4.035,70.529,0
				c5.859,87.339,0.853,185.545,2.519,277.078c-18.835,4.143-54.214,4.143-73.048,0c0-37.783,0-75.567,0-113.35
				c-30.227,0-60.453,0-90.68,0c-7.48,31.983,2.419,81.345-5.038,113.35c-18.709,5.641-47.685,1.014-70.529,2.519
				c-4.163-86.542-4.217-190.543,0-277.078C548.051,131.626,586.439,135.832,604.536,138.541z"/>
			<path fill="#000" fill-rule="evenodd" clip-rule="evenodd" d="M974.812,682.621c-314.858,0-629.729,0-944.584,0
				c-8.144-6.185,4.909-11.886,7.557-15.113c33.228-40.496,78.978-89.418,115.869-128.463c189.512,0,412.621,0,614.609,0
				c28.465,0,64.662-5.938,85.643,0c16.945,4.796,53.677,56.352,65.491,70.529c10.749,12.898,20.521,25.995,30.227,37.783
				C959.333,659.151,972.468,668.89,974.812,682.621z M161.21,594.459c-2.871,7.198-23.811,20.386-12.594,25.189
				c236.777,0,473.55,0,710.328,0c-1.702-7.588-14.492-25.771-25.189-32.746c-221.661,0-443.325,0-664.987,0
				C165.14,588.313,162.621,590.833,161.21,594.459z M478.591,642.319c-1.567,6.829-10.523,6.269-10.076,15.113
				c-2.679,1.567-16.062,10.523-5.038,10.075c26.04-1.667,58.758,3.344,80.604-2.519
				C534.481,645.203,512.086,638.209,478.591,642.319z"/>
			<path fill="#000" fill-rule="evenodd" clip-rule="evenodd" d="M25.19,710.329c317.384,1.68,641.472-3.358,954.66,2.52
				c9.341,55.152-31.722,55.415-70.528,55.415c-249.808,0-497.636,0-753.149,0c-61.189,0-144.199,18.588-133.501-50.378
				C22.455,714.311,22.255,710.752,25.19,710.329z"/>
		</g>
	</g>
</g>
</svg>
